<svg width="186" height="41" viewBox="0 0 186 41" fill="none" xmlns="http://www.w3.org/2000/svg">
<path d="M0.412292 0.343567V23.9114H14.6354V20.4758H3.7104V0.343567H0.412292Z" fill="#383E41"/>
<path d="M26.5911 0L17.2464 23.8426H20.8881C21.6439 21.9187 27.8279 5.42814 27.8279 5.42814L34.7676 23.8426H38.3406L28.9959 0H26.5911Z" fill="#383E41"/>
<path d="M85.751 0L76.4064 23.8426H80.048C80.8039 21.9187 86.9878 5.42814 86.9878 5.42814L93.9276 23.8426H97.5006L88.1559 0H85.751Z" fill="#383E41"/>
<path d="M62.6642 11.7496L55.0373 0.343567H52.2889V23.9114H55.6557V7.28336L61.7022 16.4219H63.6262L69.6727 7.28336V23.9114H72.9708V0.343567H70.3598L62.6642 11.7496Z" fill="#383E41"/>
<path d="M115.022 16.9028L103.685 0.343556L101.074 0.274841V23.9114H104.44V7.42078L115.64 23.9114H118.32V0.343556H115.022V16.9028Z" fill="#383E41"/>
<path d="M133.986 20.6819C131.787 20.6819 129.726 19.72 128.283 18.1396C126.84 16.5593 125.878 14.498 125.878 12.1618C125.878 9.75694 126.84 7.62689 128.283 6.11525C129.726 4.53491 131.787 3.57297 133.986 3.57297C137.421 3.57297 140.239 5.35944 141.475 8.86368H144.774C143.468 3.57296 139.277 0.206146 133.986 0.206146C130.825 0.206146 128.008 1.58034 125.947 3.71038C123.954 5.84041 122.649 8.79498 122.649 12.1618C122.649 15.4599 123.954 18.4145 125.947 20.5445C127.939 22.6745 130.825 24.0488 133.986 24.0488C139.414 24.0488 143.605 20.4071 144.98 15.0477H141.682C140.513 18.6206 137.49 20.6819 133.986 20.6819Z" fill="#383E41"/>
<path d="M162.501 10.3066H152.675V0.343567H149.377V23.9114H152.675V13.6734H162.501V23.9114H165.868V0.343567H162.501V10.3066Z" fill="#383E41"/>
<path d="M170.952 0.343567V23.9114H185.107V20.4758H174.388V13.8109H184.901V10.3753H174.388V3.7791H185.107V0.343567H170.952Z" fill="#383E41"/>
<path d="M22.8807 21.6439L22.812 21.7126L24.3236 24.0488L24.3923 23.9801C26.5223 22.5371 29.2708 22.5371 31.4008 23.9801L31.4695 24.0488L32.9811 21.7126L32.9124 21.6439C29.8204 19.6513 25.9039 19.6513 22.8807 21.6439Z" fill="#383E41"/>
<path d="M90.4921 20.3384C88.3621 21.7813 85.6136 21.7813 83.4836 20.3384L83.4149 20.2697L81.9033 22.6058L81.972 22.6746C83.4836 23.7052 85.2014 24.1862 86.9879 24.1862C88.7056 24.1862 90.4234 23.7052 92.0037 22.6746L92.0724 22.6058L90.5608 20.2697L90.4921 20.3384Z" fill="#383E41"/>
<path d="M6.25268 35.3173C6.25268 36.9663 5.01588 37.997 3.02327 37.997H1.09938V40.3332H0V32.6376H3.02327C5.08459 32.6376 6.25268 33.6682 6.25268 35.3173ZM5.15331 35.3173C5.15331 34.2179 4.39748 33.5995 3.02327 33.5995H1.16808V37.0351H3.02327C4.46619 37.0351 5.15331 36.4167 5.15331 35.3173Z" fill="#383E41"/>
<path d="M17.6586 39.3713V40.3332H12.0244V32.6376H17.4525V33.5996H13.1237V35.9358H16.9715V36.8977H13.1237V39.3713H17.6586Z" fill="#383E41"/>
<path d="M28.7211 40.3332L27.072 37.9971C26.9346 37.9971 26.7284 37.9971 26.591 37.9971H24.6671V40.3332H23.5677V32.6376H26.591C28.5836 32.6376 29.8204 33.6683 29.8204 35.3173C29.8204 36.4854 29.202 37.3787 28.1027 37.7222L29.9579 40.3332H28.7211ZM28.7211 35.3173C28.7211 34.218 27.9652 33.5996 26.591 33.5996H24.7358V37.0351H26.591C27.9652 37.0351 28.7211 36.4167 28.7211 35.3173Z" fill="#383E41"/>
<path d="M36.829 33.5996V36.2793H40.6768V37.2413H36.829V40.3332H35.7296V32.6376H41.1578V33.5996H36.829Z" fill="#383E41"/>
<path d="M52.495 39.3713V40.3332H46.9294V32.6376H52.3576V33.5996H48.0288V35.9358H51.8766V36.8977H48.0288V39.3713H52.495Z" fill="#383E41"/>
<path d="M57.7858 36.4854C57.7858 34.218 59.5035 32.5689 61.8397 32.5689C63.0078 32.5689 64.0384 32.9812 64.7943 33.737L64.1071 34.4241C63.4887 33.8057 62.8017 33.5309 61.9084 33.5309C60.1906 33.5309 58.8851 34.7677 58.8851 36.4854C58.8851 38.2032 60.1906 39.44 61.9084 39.44C62.7329 39.44 63.4887 39.1651 64.1071 38.5468L64.7943 39.2339C64.1071 40.0584 63.0765 40.4706 61.8397 40.4706C59.5035 40.4019 57.7858 38.7529 57.7858 36.4854Z" fill="#383E41"/>
<path d="M71.9402 33.5996H69.3292V32.6376H75.7193V33.5996H73.1083V40.3332H72.0089V33.5996H71.9402Z" fill="#383E41"/>
<path d="M93.3092 40.3332L91.6601 37.9971C91.5227 37.9971 91.3166 37.9971 91.1792 37.9971H89.2553V40.3332H88.1559V32.6376H91.1792C93.1718 32.6376 94.4086 33.6683 94.4086 35.3173C94.4086 36.4854 93.7902 37.3787 92.6908 37.7222L94.546 40.3332H93.3092ZM93.3092 35.3173C93.3092 34.218 92.5534 33.5996 91.1792 33.5996H89.324V37.0351H91.1792C92.5534 37.0351 93.3092 36.4167 93.3092 35.3173Z" fill="#383E41"/>
<path d="M105.883 39.3713V40.3332H100.318V32.6376H105.746V33.5996H101.417V35.9358H105.265V36.8977H101.417V39.3713H105.883Z" fill="#383E41"/>
<path d="M111.174 39.44L111.586 38.6155C112.136 39.1652 113.167 39.5087 114.129 39.5087C115.434 39.5087 116.052 38.959 116.052 38.3406C116.052 36.4854 111.38 37.6535 111.38 34.7677C111.38 33.5996 112.273 32.5689 114.335 32.5689C115.228 32.5689 116.19 32.8438 116.808 33.256L116.465 34.1493C115.778 33.737 115.022 33.5309 114.335 33.5309C113.029 33.5309 112.479 34.0806 112.479 34.7677C112.479 36.6229 117.152 35.4548 117.152 38.2719C117.152 39.44 116.19 40.4706 114.197 40.4706C112.892 40.4019 111.792 40.0584 111.174 39.44Z" fill="#383E41"/>
<path d="M122.855 32.6376H123.954V40.3332H122.855V32.6376Z" fill="#383E41"/>
<path d="M130.413 32.6376H133.642C136.116 32.6376 137.834 34.218 137.834 36.4854C137.834 38.7529 136.185 40.3332 133.642 40.3332H130.413V32.6376ZM133.574 39.3713C135.498 39.3713 136.666 38.2032 136.666 36.4854C136.666 34.7677 135.429 33.5996 133.574 33.5996H131.512V39.3713H133.574Z" fill="#383E41"/>
<path d="M149.24 39.3713V40.3332H143.674V32.6376H149.102V33.5996H144.774V35.9358H148.621V36.8977H144.774V39.3713H149.24Z" fill="#383E41"/>
<path d="M161.814 32.6376V40.3332H160.921L156.317 34.5615V40.3332H155.218V32.6376H156.111L160.714 38.4093V32.6376H161.814Z" fill="#383E41"/>
<path d="M167.654 36.4854C167.654 34.218 169.372 32.5689 171.708 32.5689C172.876 32.5689 173.907 32.9812 174.663 33.737L173.976 34.4241C173.357 33.8057 172.67 33.5309 171.777 33.5309C170.059 33.5309 168.754 34.7677 168.754 36.4854C168.754 38.2032 170.059 39.44 171.777 39.44C172.601 39.44 173.357 39.1651 173.976 38.5468L174.663 39.2339C173.976 40.0584 172.945 40.4706 171.708 40.4706C169.372 40.4019 167.654 38.7529 167.654 36.4854Z" fill="#383E41"/>
<path d="M186 39.3713V40.3332H180.434V32.6376H185.863V33.5996H181.534V35.9358H185.382V36.8977H181.534V39.3713H186Z" fill="#383E41"/>
</svg>
