<svg width="86" height="42" viewBox="0 0 86 42" fill="none" xmlns="http://www.w3.org/2000/svg">
<path d="M2.73142 29.3031C2.67838 29.3031 2.62535 29.3031 2.51927 29.3031C2.4132 29.3031 2.33364 29.3031 2.22757 29.3031V31.3185C2.22757 31.5837 2.22757 31.7959 2.22757 31.9815C2.22757 32.1671 2.20105 32.2997 2.20105 32.4323L3.47394 32.3528V32.9627H0.0530365V32.5119C0.318223 32.5119 0.503854 32.4588 0.636447 32.3793C0.76904 32.2997 0.848596 32.1671 0.901634 32.0345C0.954671 31.8754 0.981189 31.7163 0.981189 31.5042C0.981189 31.292 0.981189 31.0799 0.981189 30.8412V24.848C0.981189 24.6624 0.981189 24.4767 0.981189 24.3176C0.981189 24.1585 1.00771 23.9994 1.00771 23.8403L0 23.8933V23.2834C0.477336 23.2834 0.981189 23.2569 1.51156 23.2569C2.01542 23.2569 2.54579 23.2569 3.10268 23.2569C4.45513 23.2569 5.46284 23.4955 6.17885 23.9464C6.92137 24.4502 7.29263 25.1662 7.29263 26.1209C7.29263 26.3065 7.26611 26.5187 7.23959 26.7573C7.18655 26.996 7.107 27.2347 6.9744 27.4733C6.84181 27.712 6.65618 27.9507 6.44403 28.1893C6.20536 28.428 5.94018 28.6136 5.59544 28.7993C5.25069 28.9584 4.82639 29.1175 4.34906 29.197C3.92476 29.2501 3.36787 29.3031 2.73142 29.3031ZM2.22757 28.7197C2.38668 28.7462 2.54579 28.7462 2.67838 28.7727C2.81098 28.7727 2.97009 28.7727 3.1292 28.7727C3.52698 28.7727 3.89824 28.7197 4.24298 28.5871C4.58773 28.481 4.90595 28.2954 5.17114 28.0833C5.43632 27.8711 5.64847 27.5794 5.78107 27.2612C5.94018 26.943 6.01973 26.5717 6.01973 26.1739C6.01973 25.7231 5.94018 25.3518 5.80759 25.0601C5.67499 24.7419 5.46284 24.5032 5.22417 24.3176C4.95899 24.132 4.66728 23.9994 4.32254 23.8933C3.9778 23.8138 3.58002 23.7607 3.15572 23.7607C2.91705 23.7607 2.73142 23.7872 2.59883 23.8668C2.46623 23.9464 2.38668 24.0524 2.33364 24.2115C2.2806 24.3441 2.25409 24.5298 2.25409 24.7419C2.25409 24.9541 2.25409 25.1662 2.25409 25.4049V28.7197H2.22757Z" fill="#383E41"/>
<path d="M13.6836 28.8523L8.80417 28.9318C8.80417 29.4622 8.83069 29.9396 8.93676 30.3904C9.01632 30.8147 9.14891 31.1859 9.33454 31.5042C9.52017 31.8224 9.75884 32.061 10.0505 32.2202C10.3423 32.3793 10.687 32.4588 11.1113 32.4588C11.3234 32.4588 11.5621 32.4323 11.7743 32.3793C12.0129 32.3262 12.2251 32.2467 12.4372 32.1406C12.6494 32.0345 12.835 31.9284 13.0206 31.7693C13.2063 31.6367 13.3389 31.4776 13.4715 31.3185L13.8162 31.5837C13.6306 31.8754 13.4184 32.1141 13.1532 32.3262C12.9146 32.5384 12.6494 32.6975 12.3842 32.8301C12.119 32.9627 11.8538 33.0422 11.5621 33.0953C11.2969 33.1483 11.0317 33.1748 10.7931 33.1748C10.3157 33.1748 9.86492 33.0953 9.46714 32.9096C9.04284 32.7505 8.69809 32.4853 8.37987 32.1671C8.08817 31.8489 7.8495 31.4511 7.66387 31.0003C7.47824 30.5495 7.39868 30.0456 7.39868 29.4622C7.39868 28.9849 7.47824 28.5075 7.63735 28.0567C7.79646 27.6059 8.03513 27.2081 8.35335 26.8634C8.67158 26.5186 9.01632 26.2535 9.46714 26.0413C9.89143 25.8292 10.3688 25.7231 10.8991 25.7231C11.2704 25.7231 11.6417 25.7761 11.9864 25.9087C12.3312 26.0413 12.6229 26.2269 12.888 26.4656C13.1532 26.7308 13.3389 27.049 13.498 27.4203C13.6306 27.8976 13.6836 28.3484 13.6836 28.8523ZM10.8991 26.333C10.3688 26.333 9.91795 26.4921 9.54669 26.8103C9.20195 27.1286 8.96328 27.6324 8.85721 28.3484H12.3842C12.3842 28.1098 12.3577 27.8711 12.3046 27.6324C12.2516 27.3938 12.172 27.1816 12.0394 26.996C11.9069 26.8103 11.7743 26.6512 11.5621 26.5186C11.403 26.386 11.1643 26.333 10.8991 26.333Z" fill="#383E41"/>
<path d="M18.4039 26.5451C18.2183 26.5451 18.0592 26.5717 17.8736 26.6512C17.6879 26.7308 17.5023 26.8368 17.3432 26.9694C17.1576 27.102 16.9985 27.2611 16.8393 27.4468C16.6802 27.6324 16.5476 27.8446 16.415 28.0832L16.4416 31.5041C16.4416 31.6898 16.4416 31.8489 16.4416 32.008C16.4416 32.1406 16.415 32.2997 16.3885 32.4588L17.2636 32.4058V32.9626H14.3996V32.5383C14.6118 32.5383 14.7709 32.4853 14.877 32.4058C14.983 32.3262 15.0626 32.1936 15.1156 32.061C15.1687 31.9019 15.1952 31.7428 15.1952 31.5306C15.1952 31.3185 15.1952 31.1063 15.1952 30.8412V27.6589C15.1952 27.5263 15.1952 27.3672 15.1952 27.2346C15.1952 27.0755 15.2217 26.9429 15.2482 26.7838L14.267 26.8368V26.2799H14.6913C14.877 26.2799 15.0626 26.2799 15.1952 26.2534C15.3278 26.2269 15.4339 26.2004 15.5134 26.1739C15.593 26.1474 15.6725 26.0943 15.7256 26.0678C15.7786 26.0148 15.8316 25.9882 15.8847 25.9352H16.2824C16.309 26.0678 16.309 26.2534 16.309 26.4656C16.309 26.6777 16.3355 26.9694 16.3355 27.2877C16.4416 27.1285 16.5742 26.9429 16.7333 26.7573C16.8924 26.5717 17.078 26.4391 17.2902 26.2799C17.5023 26.1474 17.7145 26.0413 17.9531 25.9352C18.1918 25.8556 18.4305 25.8026 18.6691 25.8026C18.8017 25.8026 18.9078 25.8291 19.0404 25.8556C19.173 25.8822 19.2525 25.9352 19.3586 26.0148C19.4382 26.0943 19.5177 26.1739 19.5708 26.2799C19.6238 26.386 19.6503 26.5186 19.6503 26.6777C19.6503 26.7308 19.6503 26.8103 19.6238 26.8899C19.5973 26.9694 19.5708 27.049 19.4912 27.102C19.4382 27.1816 19.3586 27.2346 19.2791 27.2611C19.1995 27.3142 19.0934 27.3407 18.9608 27.3407C18.8548 27.3407 18.7752 27.3142 18.6691 27.2611C18.5896 27.2081 18.51 27.1551 18.457 27.0755C18.4039 26.996 18.3509 26.9164 18.3244 26.8368C18.4039 26.7308 18.3774 26.6512 18.4039 26.5451Z" fill="#383E41"/>
<path d="M24.4502 23.1243C24.3706 23.0447 24.2911 22.9652 24.185 22.9386C24.0789 22.9121 23.9728 22.8856 23.8668 22.8856C23.6546 22.8856 23.469 22.9386 23.3364 23.0447C23.2038 23.1508 23.0977 23.2569 22.9917 23.416C22.9121 23.5751 22.8591 23.7607 22.806 23.9463C22.7795 24.132 22.753 24.3441 22.753 24.5298V25.9883H24.6358V26.5187L22.753 26.5452L22.7795 31.4511C22.7795 31.6368 22.7795 31.7959 22.7795 31.955C22.7795 32.0876 22.753 32.2467 22.7265 32.4058L23.6016 32.3528V32.9096H20.7641V32.4853C20.9762 32.4853 21.1353 32.4323 21.2414 32.3528C21.3475 32.2732 21.427 32.1406 21.4801 32.008C21.5331 31.8489 21.5596 31.6898 21.5596 31.4776C21.5596 31.2655 21.5596 31.0533 21.5596 30.7882L21.5331 26.5452L20.3928 26.5717V25.9352H21.5331V25.6435C21.5331 25.1397 21.5862 24.6623 21.6657 24.2646C21.7453 23.8668 21.9044 23.4955 22.09 23.2303C22.2756 22.9386 22.5408 22.7265 22.8591 22.5674C23.1773 22.4083 23.5751 22.3287 24.0259 22.3287C24.185 22.3287 24.3441 22.3552 24.5032 22.3817C24.6888 22.4083 24.848 22.4878 24.9806 22.5674C25.1397 22.6469 25.2457 22.753 25.3518 22.8856C25.4579 23.0182 25.5109 23.1773 25.5109 23.3629C25.5109 23.5486 25.4579 23.7077 25.3518 23.8138C25.2457 23.9198 25.1131 23.9994 24.9275 23.9994C24.8214 23.9994 24.7154 23.9729 24.6358 23.9463C24.5563 23.9198 24.5032 23.8668 24.4502 23.8138C24.3971 23.7607 24.3706 23.6812 24.3441 23.6281C24.3176 23.5486 24.3176 23.4955 24.3176 23.4425C24.3176 23.3895 24.3176 23.3364 24.3441 23.2834C24.3971 23.2569 24.4237 23.2038 24.4502 23.1243Z" fill="#383E41"/>
<path d="M31.345 28.8523L26.4656 28.9318C26.4656 29.4622 26.4921 29.9396 26.5982 30.3904C26.6777 30.8147 26.8103 31.1859 26.9959 31.5042C27.1816 31.8224 27.4202 32.061 27.712 32.2202C28.0037 32.3793 28.3484 32.4588 28.7727 32.4588C28.9848 32.4588 29.2235 32.4323 29.4357 32.3793C29.6743 32.3262 29.8865 32.2467 30.0986 32.1406C30.3108 32.0345 30.4964 31.9284 30.682 31.7693C30.8677 31.6367 31.0003 31.4776 31.1329 31.3185L31.4776 31.5837C31.292 31.8754 31.0798 32.1141 30.8146 32.3262C30.576 32.5384 30.3108 32.6975 30.0456 32.8301C29.7804 32.9627 29.5152 33.0422 29.2235 33.0953C28.9583 33.1483 28.6931 33.1748 28.4545 33.1748C27.9771 33.1748 27.5263 33.0953 27.102 32.9096C26.6777 32.7505 26.333 32.4853 26.0148 32.1671C25.7231 31.8489 25.4844 31.4511 25.2988 31.0003C25.1131 30.5495 25.0336 30.0456 25.0336 29.4622C25.0336 28.9849 25.1131 28.5075 25.2722 28.0567C25.4313 27.6059 25.67 27.2081 25.9882 26.8634C26.3065 26.5186 26.6512 26.2535 27.102 26.0413C27.5263 25.8292 28.0037 25.7231 28.534 25.7231C28.9053 25.7231 29.2766 25.7761 29.6213 25.9087C29.966 26.0413 30.2577 26.2269 30.5229 26.4656C30.7881 26.7308 30.9737 27.049 31.1329 27.4203C31.2655 27.8976 31.345 28.3484 31.345 28.8523ZM28.534 26.333C28.0037 26.333 27.5528 26.4921 27.1816 26.8103C26.8368 27.1286 26.5982 27.6324 26.4921 28.3484H30.0191C30.0191 28.1098 29.9926 27.8711 29.9395 27.6324C29.8865 27.3938 29.8069 27.1816 29.6743 26.996C29.5417 26.8103 29.4091 26.6512 29.197 26.5186C29.0379 26.386 28.7992 26.333 28.534 26.333Z" fill="#383E41"/>
<path d="M37.073 27.0755C37.02 26.9164 36.9139 26.7838 36.8078 26.6778C36.6752 26.5717 36.5427 26.4921 36.4101 26.4391C36.2775 26.386 36.1184 26.3595 35.9858 26.333C35.8532 26.3065 35.7206 26.3065 35.641 26.3065C35.3228 26.3065 35.0311 26.3595 34.7659 26.4921C34.5007 26.6247 34.2621 26.8103 34.0499 27.049C33.8378 27.2877 33.7052 27.6059 33.5726 27.9772C33.4665 28.3484 33.3869 28.7727 33.3869 29.2501C33.3869 29.7009 33.44 30.1252 33.5726 30.523C33.6786 30.9207 33.8378 31.239 34.0499 31.5307C34.2621 31.8224 34.5007 32.0345 34.7924 32.1936C35.0841 32.3527 35.4024 32.4323 35.7736 32.4323C35.9858 32.4323 36.1979 32.4058 36.4101 32.3527C36.6222 32.2997 36.8344 32.2202 37.02 32.0876C37.2056 31.9815 37.3913 31.8489 37.5504 31.7163C37.7095 31.5837 37.8421 31.4246 37.9481 31.239L38.3194 31.5042C38.1338 31.7959 37.9216 32.0345 37.683 32.2467C37.4443 32.4588 37.2056 32.6179 36.9404 32.7505C36.6752 32.8831 36.4101 32.9892 36.1449 33.0422C35.8797 33.0953 35.641 33.1483 35.4024 33.1483C34.925 33.1483 34.5007 33.0688 34.0764 32.9096C33.6521 32.7505 33.3074 32.5119 32.9892 32.2202C32.6709 31.9019 32.4323 31.5307 32.2466 31.1064C32.061 30.6556 31.9814 30.1517 31.9814 29.5948C31.9814 29.2766 32.008 28.9584 32.0875 28.6401C32.1671 28.3219 32.2731 28.0302 32.4323 27.7385C32.5914 27.4468 32.7505 27.1816 32.9626 26.9429C33.1748 26.7043 33.4135 26.4921 33.6786 26.3065C33.9438 26.1209 34.2355 25.9883 34.5538 25.8822C34.872 25.7761 35.2167 25.7231 35.5615 25.7231C35.9327 25.7231 36.304 25.7761 36.6222 25.8557C36.9404 25.9618 37.2056 26.0678 37.4443 26.2269C37.683 26.3861 37.8421 26.5717 37.9747 26.7838C38.1073 26.996 38.1603 27.2081 38.1603 27.4203C38.1603 27.6324 38.1073 27.7915 38.0012 27.9241C37.8951 28.0567 37.736 28.1363 37.5238 28.1363C37.3912 28.1363 37.3117 28.1098 37.2056 28.0832C37.1261 28.0302 37.0465 27.9772 37.02 27.9241C36.967 27.8711 36.9404 27.7915 36.9139 27.712C36.8874 27.6324 36.8874 27.5794 36.8874 27.4998C36.8874 27.4203 36.9139 27.3142 36.9404 27.2081C36.9139 27.2346 36.9935 27.1551 37.073 27.0755Z" fill="#383E41"/>
<path d="M38.7438 26.0148C38.9824 26.0148 39.2211 25.9352 39.4067 25.8026C39.6189 25.67 39.778 25.5109 39.9371 25.3253C40.0962 25.1397 40.2288 24.9275 40.3084 24.6888C40.4144 24.4502 40.494 24.238 40.547 24.0524H41.0244C41.0244 24.4237 41.0244 24.7684 41.0244 25.0866C41.0244 25.4049 41.0244 25.7231 41.0244 25.9883H43.358V26.5186L41.0244 26.5452C41.0244 27.1551 41.0244 27.6589 41.0244 28.0832C41.0244 28.5075 41.0244 28.8523 41.0244 29.144C41.0244 29.4357 41.0244 29.6478 41.0244 29.8069C41.0244 29.9661 41.0244 30.0987 41.0244 30.1782C41.0244 30.2578 41.0244 30.3108 41.0244 30.3373C41.0244 30.3638 41.0244 30.3638 41.0244 30.3904C41.0244 30.7086 41.0509 30.9738 41.0774 31.239C41.1039 31.4776 41.157 31.6898 41.263 31.8489C41.3426 32.008 41.4487 32.1406 41.5813 32.2201C41.7139 32.2997 41.873 32.3527 42.0851 32.3527C42.3238 32.3527 42.5625 32.2732 42.8011 32.1406C43.0398 32.008 43.2519 31.7958 43.4376 31.5307L43.8088 31.8489C43.5967 32.1671 43.4111 32.4058 43.1989 32.5649C42.9868 32.7505 42.8011 32.8831 42.6155 32.9627C42.4299 33.0422 42.2708 33.0953 42.1116 33.1218C41.9525 33.1483 41.8199 33.1483 41.7139 33.1483C41.5813 33.1483 41.4222 33.1483 41.2896 33.1218C41.1305 33.0953 40.9979 33.0422 40.8653 32.9892C40.7327 32.9362 40.6001 32.8301 40.4675 32.724C40.3349 32.5914 40.2288 32.4588 40.1493 32.2467C40.0432 32.061 39.9902 31.8224 39.9371 31.5572C39.8841 31.292 39.8576 30.9738 39.8576 30.6025L39.8045 26.5982H38.7438V26.0148Z" fill="#383E41"/>
<path d="M51.2075 9.4937C50.8892 9.4937 50.6506 9.25503 50.6506 8.9368C50.6506 8.61858 50.8892 8.37991 51.2075 8.37991C51.5257 8.37991 51.7644 8.6451 51.7644 8.9368C51.7644 9.22851 51.5257 9.4937 51.2075 9.4937Z" fill="#383E41"/>
<path d="M34.872 9.4937C34.5538 9.4937 34.3151 9.25503 34.3151 8.9368C34.3151 8.61858 34.5538 8.37991 34.872 8.37991C35.1902 8.37991 35.4289 8.6451 35.4289 8.9368C35.4289 9.22851 35.1637 9.4937 34.872 9.4937Z" fill="#383E41"/>
<path d="M43.0397 8.45946C42.7215 8.45946 42.4828 8.22079 42.4828 7.90256C42.4828 7.58434 42.7215 7.34567 43.0397 7.34567C43.358 7.34567 43.5966 7.61086 43.5966 7.90256C43.5966 8.22079 43.358 8.45946 43.0397 8.45946Z" fill="#383E41"/>
<path d="M62.7962 6.17885C62.6636 5.99322 60.8869 6.41752 60.3565 6.33796C59.9057 6.17885 59.667 5.67499 59.2692 5.67499C58.7389 5.64847 58.3676 5.99322 58.3676 6.49707C58.3676 6.55011 58.3676 6.62967 58.3941 6.6827C58.0494 7.61086 56.5113 8.3799 55.5301 8.22078C54.0716 8.00863 53.7799 6.84181 53.5147 5.88714C53.3821 5.43633 54.0981 5.5424 54.2042 4.90595C54.2837 4.37558 53.992 3.92476 53.276 3.73913C53.6473 3.63306 53.8859 3.34135 53.8859 2.99661C53.8859 2.57231 53.8064 1.9889 53.1965 1.88283C52.6396 1.77675 52.0562 2.57231 52.0562 2.99661C52.0562 3.2618 52.2153 3.50046 52.4539 3.63306C51.3932 3.65958 50.5976 3.9778 50.6772 4.66729C50.7037 4.90595 50.8893 5.1181 50.8098 5.30373C50.7302 5.48936 48.98 7.05396 47.8132 7.05396C46.5668 7.05396 44.79 5.46284 44.6575 4.87943C44.6309 4.87943 45.4265 4.42862 45.5061 3.95128C45.6121 3.07616 44.8431 2.4132 43.9149 2.14801C44.021 1.9889 44.074 1.80327 44.074 1.61764C44.074 1.08727 43.6232 0 43.1194 0C43.0929 0 43.0929 0 43.0663 0C43.0398 0 43.0398 0 43.0133 0C42.5094 0 42.0586 1.08727 42.0586 1.61764C42.0586 1.80327 42.1117 1.9889 42.2177 2.14801C41.2896 2.4132 40.5205 3.07616 40.6266 3.95128C40.6797 4.42862 41.5017 4.87943 41.4752 4.87943C41.3426 5.46284 39.5659 7.05396 38.3195 7.05396C37.1527 7.05396 35.4024 5.48936 35.3229 5.30373C35.2433 5.1181 35.429 4.93247 35.4555 4.66729C35.535 3.9778 34.7395 3.65958 33.6787 3.63306C33.9174 3.50046 34.0765 3.2618 34.0765 2.99661C34.0765 2.57231 33.4931 1.77675 32.9362 1.88283C32.3263 1.9889 32.2467 2.57231 32.2467 2.99661C32.2467 3.34135 32.5119 3.63306 32.8567 3.73913C32.1406 3.92476 31.8489 4.37558 31.9285 4.90595C32.0346 5.56892 32.7506 5.43633 32.618 5.88714C32.3528 6.84181 32.0346 8.00863 30.6026 8.22078C29.6214 8.3799 28.0833 7.58434 27.7385 6.6827C27.7385 6.62967 27.7651 6.57663 27.7651 6.49707C27.7651 5.99322 27.3938 5.64847 26.8634 5.67499C26.4657 5.70151 26.227 6.17885 25.7762 6.33796C25.2458 6.41752 23.469 6.01974 23.3365 6.17885C23.3365 6.17885 23.2039 6.31144 23.2039 6.49707C23.2039 6.62966 29.6744 11.9864 30.1783 12.6494C30.6556 13.2858 31.2655 17.2636 31.5307 18.0857C31.5572 18.1918 31.5838 18.2714 31.6368 18.3509C32.3793 19.2791 38.1073 19.889 43.0133 19.889C43.0398 19.889 43.0663 19.889 43.0929 19.889C43.1194 19.889 43.1459 19.889 43.1724 19.889C48.0784 19.889 53.8064 19.2791 54.5489 18.3509C54.6285 18.2714 54.655 18.1653 54.655 18.0857C54.9202 17.2636 55.5301 13.2858 56.0074 12.6494C56.5113 11.9864 62.9818 6.62966 62.9818 6.49707C62.9023 6.31144 62.7962 6.17885 62.7962 6.17885ZM43.1194 19.1995C43.0929 19.1995 43.0663 19.1995 43.0398 19.1995C43.0133 19.1995 42.9868 19.1995 42.9603 19.1995C37.3648 19.1995 33.1484 18.4835 32.2732 18.0062C32.8301 17.4758 37.2057 16.362 42.9603 16.362C42.9868 16.362 43.0133 16.362 43.0398 16.362C43.0663 16.362 43.0929 16.362 43.1194 16.362C48.8739 16.362 53.2495 17.4758 53.8064 18.0062C52.9048 18.4835 48.7148 19.1995 43.1194 19.1995ZM55.0793 13.1798C54.9202 13.7101 54.6815 16.6272 54.3898 17.2902C53.7003 16.7333 48.7678 15.4869 43.0398 15.4869C43.0398 15.4869 43.0398 15.4869 43.0133 15.4869C43.0133 15.4869 43.0133 15.4869 42.9868 15.4869C37.2322 15.4869 32.3263 16.7333 31.6368 17.2902C31.3451 16.6272 31.1329 13.6836 30.9473 13.1798C30.8678 12.9411 31.0269 12.729 31.0269 12.729C31.8224 11.6417 36.8344 10.3688 42.9337 10.3688C42.9603 10.3688 43.0663 10.3688 43.0929 10.3688C49.1656 10.3688 54.2042 11.6417 54.9997 12.729C55.0262 12.729 55.1588 12.9676 55.0793 13.1798ZM55.7953 11.7743C55.7953 11.7743 54.5489 11.2439 52.3213 10.6605C49.8021 9.99753 46.2486 9.70583 43.0663 9.70583C39.8841 9.70583 36.3306 10.1036 33.8113 10.6605C31.7163 11.1113 30.3374 11.7743 30.3374 11.7743L27.8181 9.12242C27.8181 9.12242 30.5495 9.49368 31.9285 8.93679C33.3075 8.3799 33.9439 5.86062 33.9439 5.86062C33.9439 5.86062 36.9936 8.19427 38.7703 8.08819C40.5736 7.98212 43.0663 4.56121 43.0663 4.56121C43.0663 4.56121 45.5856 7.98212 47.3624 8.08819C49.1391 8.19427 52.1888 5.86062 52.1888 5.86062C52.1888 5.86062 52.8517 8.35338 54.2042 8.93679C55.5831 9.49368 58.3146 9.12242 58.3146 9.12242L55.7953 11.7743Z" fill="#383E41"/>
<path d="M43.0398 11.1378C42.1912 11.1378 41.5017 11.9334 41.5017 12.8881C41.5017 13.8693 42.1912 14.6383 43.0398 14.6383C43.8884 14.6383 44.5779 13.8428 44.5779 12.8881C44.5514 11.9334 43.8884 11.1378 43.0398 11.1378Z" fill="#383E41"/>
<path d="M49.8286 15.4074C50.5181 15.593 51.2872 15.0891 51.5258 14.2671C51.7645 13.445 51.3932 12.5964 50.6772 12.4108C49.9877 12.2251 49.2187 12.729 48.98 13.5511C48.7679 14.3997 49.1391 15.2217 49.8286 15.4074Z" fill="#383E41"/>
<path d="M36.2245 15.4074C35.535 15.593 34.766 15.0891 34.5273 14.2671C34.2886 13.445 34.6599 12.5964 35.3759 12.4108C36.0654 12.2251 36.8344 12.729 37.0731 13.5511C37.3118 14.3997 36.9405 15.2217 36.2245 15.4074Z" fill="#383E41"/>
<path d="M57.0151 32.4588H56.6438C56.4847 32.4588 56.2991 32.4853 56.0339 32.5384C55.7687 32.5914 55.477 32.6975 55.1588 32.8036C55.0262 32.8566 54.8671 32.9096 54.6815 32.9627C54.5224 33.0157 54.3367 33.0422 54.1511 33.0688C53.9655 33.0953 53.8064 33.1218 53.6207 33.1483C53.4351 33.1748 53.276 33.1748 53.1169 33.1748C52.4274 33.1748 51.7909 33.0688 51.2075 32.8301C50.6241 32.6179 50.1203 32.2732 49.7225 31.8754C49.2982 31.4511 48.98 30.9473 48.7413 30.3373C48.5026 29.7274 48.3965 29.0644 48.3965 28.2954C48.3965 27.8711 48.4496 27.4203 48.5291 26.996C48.6087 26.5717 48.7413 26.1474 48.9269 25.7496C49.1125 25.3518 49.3247 25.0071 49.5899 24.6623C49.8551 24.3176 50.1733 24.0259 50.518 23.7872C50.8893 23.5486 51.2871 23.3364 51.7379 23.2038C52.1887 23.0712 52.6926 22.9917 53.2229 22.9917C53.4616 22.9917 53.7268 23.0182 53.992 23.0447C54.2572 23.0712 54.4958 23.1243 54.761 23.2038C54.9997 23.2569 55.2384 23.3364 55.477 23.4425C55.7157 23.5486 55.9278 23.6546 56.1135 23.7607L56.0604 23.0977H56.8295V26.28H56.3256C56.2991 25.8557 56.193 25.4579 56.0339 25.1132C55.8748 24.7684 55.6627 24.4767 55.3975 24.2646C55.1323 24.0259 54.8141 23.8668 54.4693 23.7342C54.1246 23.6016 53.7533 23.5486 53.329 23.5486C52.8252 23.5486 52.3743 23.6546 51.95 23.8668C51.5257 24.0789 51.128 24.3972 50.8097 24.7949C50.4915 25.1927 50.2263 25.6435 50.0407 26.2004C49.8551 26.7308 49.749 27.3407 49.749 27.9772C49.749 28.6401 49.8286 29.2501 50.0142 29.7804C50.1998 30.3373 50.4385 30.8147 50.7832 31.2125C51.1014 31.6102 51.4992 31.9285 51.95 32.1406C52.4009 32.3793 52.9047 32.4853 53.4616 32.4853C53.6472 32.4853 53.8329 32.4588 54.045 32.4323C54.2572 32.4058 54.4428 32.3528 54.6549 32.2997C54.8671 32.2467 55.0527 32.1671 55.2649 32.0876C55.477 32.008 55.6627 31.9019 55.8483 31.7693V28.7197L54.8671 28.7727V28.1628H57.9963V28.6136C57.8372 28.6136 57.6781 28.6401 57.572 28.7197C57.4659 28.7727 57.3599 28.8788 57.2803 28.9584C57.2007 29.0644 57.1477 29.1705 57.1212 29.3031C57.0947 29.4357 57.0681 29.5418 57.0416 29.6744C57.0151 29.807 57.0151 29.913 57.0151 30.0191C57.0151 30.1252 57.0151 30.2047 57.0151 30.2843V32.4588Z" fill="#383E41"/>
<path d="M62.6371 26.5717C62.4515 26.5717 62.2924 26.5982 62.1068 26.6778C61.9211 26.7573 61.7355 26.8634 61.5764 26.996C61.3907 27.1286 61.2316 27.2877 61.0725 27.4733C60.9134 27.6589 60.7808 27.8711 60.6482 28.1098L60.6747 31.5307C60.6747 31.7163 60.6747 31.8754 60.6747 32.0345C60.6747 32.1671 60.6482 32.3262 60.6217 32.4853L61.4968 32.4323V32.9892H58.6593V32.5649C58.8715 32.5649 59.0306 32.5119 59.1367 32.4323C59.2427 32.3527 59.3223 32.2202 59.3753 32.0876C59.4284 31.9285 59.4549 31.7693 59.4549 31.5572C59.4549 31.345 59.4549 31.1329 59.4549 30.8677V27.6855C59.4549 27.5529 59.4549 27.3938 59.4549 27.2612C59.4549 27.1021 59.4814 26.9695 59.5079 26.8104L58.5267 26.8634V26.3065H58.951C59.1367 26.3065 59.3223 26.3065 59.4549 26.28C59.5875 26.2535 59.6935 26.2269 59.7731 26.2004C59.8527 26.1739 59.9322 26.1209 59.9853 26.0943C60.0383 26.0413 60.0913 26.0148 60.1444 25.9618H60.5422C60.5687 26.0943 60.5687 26.28 60.5687 26.4921C60.5687 26.7043 60.5952 26.996 60.5952 27.3142C60.7013 27.1551 60.8339 26.9695 60.993 26.7838C61.1521 26.5982 61.3377 26.4656 61.5499 26.3065C61.762 26.1739 61.9742 26.0678 62.2128 25.9618C62.4515 25.8822 62.6902 25.8292 62.9288 25.8292C63.0614 25.8292 63.1675 25.8557 63.3001 25.8822C63.4327 25.9087 63.5122 25.9618 63.6183 26.0413C63.6979 26.1209 63.7774 26.2004 63.8305 26.3065C63.8835 26.4126 63.91 26.5452 63.91 26.7043C63.91 26.7573 63.91 26.8369 63.8835 26.9164C63.857 26.996 63.8305 27.0755 63.7509 27.1286C63.6979 27.2081 63.6183 27.2612 63.5388 27.2877C63.4592 27.3407 63.3531 27.3672 63.2205 27.3672C63.1145 27.3672 63.0349 27.3407 62.9288 27.2877C62.8493 27.2347 62.7697 27.1816 62.7167 27.1021C62.6636 27.0225 62.6106 26.9429 62.5841 26.8634C62.6371 26.7573 62.6371 26.6778 62.6371 26.5717Z" fill="#383E41"/>
<path d="M67.2513 25.8026C67.7287 25.8026 68.206 25.8822 68.6303 26.0678C69.0546 26.2535 69.4258 26.4921 69.7441 26.8104C70.0623 27.1286 70.301 27.4998 70.4866 27.9241C70.6722 28.3484 70.7518 28.8258 70.7518 29.3296C70.7518 29.86 70.6722 30.3639 70.4866 30.8412C70.301 31.3185 70.0623 31.7163 69.7441 32.061C69.4258 32.4058 69.0546 32.671 68.6303 32.8831C68.206 33.0953 67.7552 33.1748 67.2513 33.1748C66.774 33.1748 66.2966 33.0953 65.8723 32.9096C65.448 32.724 65.0768 32.4853 64.7586 32.1936C64.4403 31.8754 64.2017 31.5042 64.016 31.0799C63.8304 30.6556 63.7509 30.1782 63.7509 29.6478C63.7509 29.091 63.8304 28.5871 64.016 28.1098C64.2017 27.6324 64.4403 27.2347 64.7586 26.8899C65.0768 26.5452 65.448 26.28 65.8723 26.0678C66.2966 25.9087 66.7475 25.8026 67.2513 25.8026ZM67.2513 26.333C66.8801 26.333 66.5618 26.4126 66.3232 26.5717C66.058 26.7308 65.8458 26.9429 65.6867 27.2346C65.5276 27.4998 65.395 27.8181 65.3155 28.1628C65.2359 28.5075 65.2094 28.8788 65.2094 29.2501C65.2094 29.6744 65.2624 30.0987 65.342 30.4964C65.4215 30.8942 65.5541 31.2655 65.7398 31.5837C65.9254 31.9019 66.1375 32.1406 66.4292 32.3527C66.6944 32.5384 67.0127 32.6445 67.3839 32.6445C67.7552 32.6445 68.0469 32.5649 68.3121 32.4058C68.5507 32.2467 68.7629 32.0345 68.922 31.7428C69.0811 31.4776 69.1872 31.1594 69.2667 30.8147C69.3463 30.4699 69.3728 30.0987 69.3728 29.7539C69.3728 29.3296 69.3463 28.9318 69.2667 28.5075C69.1872 28.1098 69.0546 27.7385 68.8955 27.4203C68.7364 27.1021 68.5242 26.8369 68.259 26.6512C67.9143 26.4391 67.6226 26.333 67.2513 26.333Z" fill="#383E41"/>
<path d="M76.5594 27.8446C76.5594 27.6059 76.5594 27.4203 76.586 27.2612C76.586 27.1021 76.6125 26.943 76.639 26.7839L75.6313 26.8369V26.28H76.0556C76.2677 26.28 76.4268 26.28 76.5594 26.2535C76.692 26.227 76.8246 26.2005 76.9307 26.1739C77.0368 26.1474 77.1163 26.0944 77.1694 26.0679C77.2224 26.0148 77.302 25.9883 77.355 25.9353H77.7528L77.7263 31.186C77.7263 31.2655 77.7263 31.3451 77.7263 31.4512C77.7263 31.5572 77.7263 31.6898 77.7263 31.7959C77.7263 31.9285 77.7263 32.0346 77.6997 32.1672C77.6997 32.2997 77.6732 32.4058 77.6732 32.4854L78.6809 32.4323V33.0158H76.692C76.6655 32.8566 76.639 32.724 76.639 32.5915C76.6125 32.4589 76.6125 32.3263 76.6125 32.1937C76.4799 32.3263 76.2943 32.4854 76.1351 32.5915C75.9495 32.724 75.7639 32.8301 75.5782 32.9362C75.3926 33.0423 75.1805 33.0953 74.9683 33.1749C74.7562 33.2279 74.544 33.2544 74.3584 33.2544C73.9871 33.2544 73.6424 33.2014 73.3507 33.0953C73.059 32.9892 72.8203 32.8301 72.6347 32.5915C72.449 32.3528 72.2899 32.0346 72.2104 31.6633C72.1043 31.2655 72.0778 30.7882 72.0778 30.2313V27.7651C72.0778 27.6325 72.0778 27.4734 72.0778 27.3142C72.0778 27.1551 72.1043 27.0225 72.1308 26.8634L71.1761 26.9165V26.3596H71.6004C71.7861 26.3596 71.9717 26.3596 72.1043 26.3331C72.2369 26.3065 72.3695 26.28 72.4756 26.2535C72.5816 26.227 72.6612 26.1739 72.7142 26.1474C72.7673 26.0944 72.8468 26.0679 72.8999 26.0148H73.2976V30.2578C73.2976 30.6556 73.3242 31.0003 73.3772 31.3186C73.4302 31.6103 73.5098 31.8489 73.6424 32.0611C73.775 32.2467 73.9076 32.4058 74.1197 32.4854C74.3054 32.5649 74.544 32.618 74.8092 32.618C74.9948 32.618 75.1539 32.5915 75.3396 32.5384C75.4987 32.4854 75.6578 32.4058 75.8169 32.2997C75.976 32.1937 76.1086 32.0876 76.2412 31.955C76.3738 31.8224 76.4799 31.6898 76.586 31.5572V30.8412V27.8446H76.5594Z" fill="#383E41"/>
<path d="M79.6356 27.6855C79.6356 27.5529 79.6356 27.3938 79.6356 27.2346C79.6356 27.0755 79.6621 26.9429 79.6886 26.7838L78.7074 26.8369V26.2535C78.9991 26.2535 79.2643 26.2535 79.4499 26.2269C79.6355 26.2004 79.7947 26.1739 79.9007 26.1474C80.0068 26.1209 80.1129 26.0678 80.1659 26.0413C80.219 25.9883 80.2985 25.9618 80.325 25.9087H80.7228C80.7228 25.9883 80.7493 26.0943 80.7493 26.2269C80.7493 26.3595 80.7758 26.4921 80.7758 26.6512C80.9084 26.5186 81.0676 26.4126 81.2532 26.3065C81.4123 26.2004 81.5979 26.1209 81.7836 26.0413C81.9692 25.9618 82.1548 25.9087 82.367 25.8822C82.5526 25.8292 82.7648 25.8292 82.9504 25.8292C83.3482 25.8292 83.7459 25.9087 84.1172 26.0678C84.4885 26.2269 84.8067 26.4656 85.0984 26.7573C85.3901 27.049 85.6022 27.4203 85.7614 27.8446C85.9205 28.2689 86 28.7462 86 29.3031C86 29.7009 85.947 30.0721 85.8674 30.4169C85.7879 30.7616 85.6553 31.0799 85.4962 31.3716C85.3371 31.6633 85.1514 31.9285 84.9393 32.1671C84.7271 32.4058 84.4885 32.5914 84.2233 32.7505C83.9581 32.9096 83.6929 33.0422 83.3747 33.1218C83.083 33.2013 82.7647 33.2544 82.473 33.2544C81.8366 33.2544 81.2797 33.0953 80.8024 32.8036V35.1107C80.8024 35.2963 80.8024 35.4554 80.8024 35.6145C80.8024 35.7471 80.7758 35.9062 80.7493 36.0654L81.6244 36.0123V36.5692H78.787V36.1449C78.9991 36.1449 79.1582 36.0919 79.2643 36.0123C79.3704 35.9328 79.4499 35.8002 79.503 35.6676C79.556 35.5085 79.5825 35.3494 79.5825 35.1372C79.5825 34.9251 79.5825 34.7129 79.609 34.4477L79.6356 27.6855ZM82.473 26.4921C82.3139 26.4921 82.1548 26.5186 81.9957 26.5452C81.8366 26.5982 81.704 26.6512 81.5449 26.7043C81.4123 26.7838 81.2797 26.8634 81.1471 26.9429C81.0145 27.049 80.9084 27.1286 80.8289 27.2346C80.8289 27.2612 80.8289 27.3142 80.8289 27.3672C80.8289 27.4203 80.8289 27.4998 80.8289 27.6059C80.8289 27.712 80.8289 27.8711 80.8289 28.0832C80.8289 28.2954 80.8289 28.5606 80.8289 28.9053C80.8289 29.2501 80.8289 29.6744 80.8289 30.2047C80.8289 30.7086 80.8289 31.345 80.8289 32.0876C81.0676 32.2467 81.3062 32.4058 81.5979 32.4853C81.8631 32.5914 82.1548 32.6179 82.473 32.6179C82.7913 32.6179 83.1095 32.5384 83.3482 32.3793C83.6133 32.2202 83.8255 32.008 84.0111 31.7163C84.1968 31.4246 84.3293 31.1064 84.4354 30.7086C84.5415 30.3108 84.5945 29.8865 84.5945 29.4357C84.5945 29.0644 84.568 28.6932 84.4885 28.3484C84.4089 28.0037 84.2763 27.6589 84.1172 27.3938C83.9581 27.1021 83.7194 26.8899 83.4542 26.7308C83.1625 26.5717 82.8443 26.4921 82.473 26.4921Z" fill="#383E41"/>
<path d="M61.1255 40.3879C60.993 40.3879 60.8869 40.3879 60.7278 40.3879C60.7278 39.9901 60.7278 39.5658 60.7278 39.1681C60.7278 38.7703 60.7278 38.3725 60.7278 37.9747C60.7012 37.9747 60.7013 37.9482 60.6747 37.9482C60.6217 38.0012 60.5952 38.0543 60.5421 38.1073C59.9322 38.8233 59.1632 39.6719 58.5532 40.3879H58.2615C58.2615 39.3537 58.2615 38.2664 58.2615 37.2057C58.3941 37.2057 58.5002 37.2057 58.6593 37.2057C58.6593 38.0012 58.6593 38.8233 58.6593 39.6719C58.7389 39.6189 58.6328 39.6984 58.6593 39.6719C59.2958 38.9559 60.1974 37.9482 60.8073 37.2057H61.099C61.1255 38.2664 61.1255 39.3272 61.1255 40.3879Z" fill="#383E41"/>
<path d="M30.7617 40.4144C30.7882 40.441 30.2844 39.5393 30.2844 39.5393H28.375C28.375 39.5393 28.0038 40.2819 27.9242 40.4144H27.4734C27.5264 40.3084 28.6667 38.1338 29.1441 37.2057C29.2501 37.2057 29.4888 37.2057 29.4888 37.2057C30.0192 38.2134 30.6556 39.4067 31.186 40.4144H30.7617ZM30.0987 39.1681C29.8335 38.6907 29.5949 38.2399 29.3297 37.7361C29.0645 38.2399 28.8258 38.6907 28.5872 39.1681C29.1175 39.1681 29.5949 39.1681 30.0987 39.1681Z" fill="#383E41"/>
<path d="M75.0478 40.3614C75.0744 40.3879 74.5705 39.4863 74.5705 39.4863H72.6612C72.6612 39.4863 72.2899 40.2288 72.2103 40.3614H71.7595C71.8126 40.2553 72.9529 38.0808 73.4302 37.1526C73.5363 37.1526 73.7749 37.1526 73.7749 37.1526C74.3053 38.1604 74.9418 39.3537 75.4721 40.3614H75.0478ZM74.3849 39.115C74.1197 38.6377 73.881 38.1869 73.6158 37.683C73.3506 38.1869 73.112 38.6377 72.8733 39.115C73.3772 39.115 73.881 39.115 74.3849 39.115Z" fill="#383E41"/>
<path d="M16.1764 37.0731C16.3355 37.1261 16.4947 37.1526 16.6538 37.2057C16.972 37.3383 17.2372 37.5504 17.4493 37.8421C17.3433 37.9217 17.2372 38.0012 17.1311 38.0808C16.4947 37.3648 15.6991 37.2587 15.1157 37.8421C14.5853 38.3725 14.6383 39.3537 15.1952 39.831C15.8052 40.3614 16.6272 40.1758 17.2107 39.4067C17.3167 39.4863 17.4228 39.5658 17.5289 39.6454C17.2107 40.2288 16.7333 40.5205 16.0704 40.5205C15.2218 40.5205 14.5588 40.0432 14.3997 39.2211C14.161 38.1604 14.7975 37.2322 15.7787 37.1261C15.8052 37.1261 15.8317 37.0996 15.8317 37.0996C15.9378 37.0731 16.0438 37.0731 16.1764 37.0731Z" fill="#383E41"/>
<path d="M35.9063 40.441C35.8002 40.441 35.6941 40.441 35.5615 40.441C35.5615 39.3537 35.5615 38.2664 35.5615 37.1526C35.6676 37.1526 35.8002 37.1526 35.9063 37.1526C35.9063 38.2399 35.9063 39.3272 35.9063 40.441Z" fill="#383E41"/>
<path d="M13.1798 38.585C13.5511 38.7972 13.7367 39.1419 13.6836 39.5662C13.6306 40.0966 13.2593 40.4148 12.7025 40.4148C11.9865 40.4413 11.297 40.4148 10.5544 40.4148C10.5544 39.3275 10.5544 38.2403 10.5544 37.153C10.634 37.153 10.687 37.153 10.7666 37.153C11.403 37.153 12.0395 37.153 12.6759 37.1795C12.9942 37.1795 13.2859 37.3121 13.3919 37.6569C13.498 37.9751 13.4715 38.3198 13.1798 38.5585C13.2063 38.5585 13.1798 38.5585 13.1798 38.585ZM10.9787 38.8237C10.9787 39.2215 10.9787 39.6192 10.9787 40.0435C11.5622 40.0435 12.1456 40.0435 12.729 40.0435C13.0737 40.0435 13.2593 39.8049 13.2593 39.4601C13.2593 39.1154 13.0737 38.8502 12.729 38.8502C12.1721 38.8237 11.5887 38.8237 10.9787 38.8237ZM10.9787 38.4524C11.5356 38.4524 12.066 38.4524 12.6229 38.4524C12.9146 38.4524 13.1002 38.2668 13.0737 37.9751C13.0737 37.6834 12.8881 37.5508 12.5964 37.5243C12.1986 37.5243 11.8008 37.5243 11.4296 37.5243C11.297 37.5243 11.1644 37.5243 11.0053 37.5243C10.9787 37.8425 10.9787 38.1342 10.9787 38.4524Z" fill="#383E41"/>
<path d="M24.6889 37.1791C25.4049 37.1791 26.0944 37.1526 26.7839 37.1791C27.2877 37.2057 27.5794 37.5769 27.5529 38.0808C27.5264 38.5846 27.1817 38.9559 26.7043 38.9824C26.227 39.0089 25.7762 38.9824 25.2988 38.9824C25.2458 38.9824 25.1662 38.9824 25.0867 38.9824C25.0867 39.4597 25.0867 39.9371 25.0867 40.4144C24.9541 40.4144 24.8215 40.4144 24.6889 40.4144C24.6889 39.3272 24.6889 38.2664 24.6889 37.1791ZM25.0867 37.5504C25.0867 37.9217 25.0867 38.2664 25.0867 38.6112C25.6171 38.6112 26.1474 38.6112 26.6513 38.6112C26.9695 38.6112 27.1286 38.399 27.1286 38.1073C27.1286 37.8156 26.9695 37.5769 26.6778 37.5769C26.1474 37.5239 25.6171 37.5504 25.0867 37.5504Z" fill="#383E41"/>
<path d="M32.1671 38.4521C32.8301 38.4521 33.44 38.4521 34.103 38.4521C34.103 38.0278 34.103 37.6035 34.103 37.1792C34.2356 37.1792 34.3682 37.1792 34.5008 37.1792C34.5008 38.2664 34.5008 39.3272 34.5008 40.4144C34.3682 40.4144 34.2356 40.4144 34.103 40.4144C34.103 39.8841 34.103 39.3802 34.103 38.8498C33.4665 38.8498 32.8301 38.8498 32.1671 38.8498C32.1671 39.3802 32.1671 39.8841 32.1671 40.4144C32.0345 40.4144 31.9019 40.4144 31.7693 40.4144C31.7693 39.3272 31.7693 38.2664 31.7693 37.1792C31.9019 37.1792 32.008 37.1792 32.1671 37.1792C32.1671 37.6035 32.1671 38.0278 32.1671 38.4521Z" fill="#383E41"/>
<path d="M22.1431 40.4144C21.984 40.4144 21.8779 40.4144 21.7453 40.4144C21.7453 39.3272 21.7453 38.2664 21.7453 37.1526C22.5674 37.1526 23.3629 37.1526 24.185 37.1526C24.185 37.2587 24.185 37.3913 24.185 37.5239C23.4955 37.5239 22.8326 37.5239 22.1431 37.5239C22.1431 38.5051 22.1431 39.4598 22.1431 40.4144Z" fill="#383E41"/>
<path d="M18.6957 40.4144C18.5631 40.4144 18.4305 40.4144 18.2979 40.4144C18.2979 39.3272 18.2979 38.2399 18.2979 37.1526C18.4305 37.1526 18.5631 37.1526 18.6957 37.1526C18.6957 38.2399 18.6957 39.3272 18.6957 40.4144Z" fill="#383E41"/>
<path d="M38.8233 37.1792C39.5923 37.1792 40.3879 37.1792 41.1569 37.2057C41.263 37.2057 41.3691 37.2057 41.4752 37.2057C41.4752 37.3383 41.4752 37.4444 41.4752 37.5769C40.7326 37.5769 39.9901 37.5769 39.2476 37.5769C39.2476 37.8952 39.2476 38.1604 39.2476 38.4786C39.5393 38.4786 39.8575 38.4786 40.1492 38.4786C40.3879 38.4786 40.6001 38.4786 40.8387 38.4786C41.4752 38.5051 41.7934 38.8498 41.7934 39.4333C41.7934 40.0167 41.3956 40.4144 40.8122 40.4144C40.1492 40.441 39.4863 40.4144 38.8498 40.4144C38.8233 39.3272 38.8233 38.2399 38.8233 37.1792ZM39.2211 40.0432C39.7249 40.0432 40.2023 40.0432 40.6531 40.0432C40.7592 40.0432 40.8652 40.0432 40.9713 39.9901C41.21 39.9106 41.3426 39.7515 41.3426 39.4598C41.3426 39.1416 41.2365 38.9824 40.9978 38.8764C40.9448 38.8498 40.8918 38.8233 40.8652 38.8233C40.3083 38.8233 39.778 38.8233 39.2211 38.8233C39.2211 39.2476 39.2211 39.6454 39.2211 40.0432Z" fill="#383E41"/>
<path d="M50.7037 40.4144C50.7037 39.3272 50.7037 38.2664 50.7037 37.2322C51.4727 37.2322 52.2152 37.2057 52.9578 37.2322C53.2229 37.2322 53.4351 37.4178 53.5146 37.683C53.6207 38.0012 53.5942 38.3194 53.276 38.5846C53.5942 38.7968 53.7798 39.0885 53.7798 39.4863C53.7533 39.9901 53.4351 40.3614 52.8782 40.3879C52.1622 40.4409 51.4462 40.4144 50.7037 40.4144ZM51.1015 38.8498C51.1015 39.2741 51.1015 39.6454 51.1015 40.0432C51.7114 40.0432 52.2948 40.0432 52.8782 40.0432C52.9312 40.0432 53.0108 40.0166 53.0638 39.9901C53.3025 39.884 53.4086 39.6189 53.3555 39.3272C53.3025 39.062 53.1169 38.8498 52.8782 38.8498C52.2948 38.8233 51.7114 38.8498 51.1015 38.8498ZM51.1015 37.5769C51.1015 37.8951 51.1015 38.1603 51.1015 38.452C51.6583 38.452 52.2152 38.4786 52.7721 38.452C53.0373 38.452 53.1699 38.2399 53.1434 37.9747C53.1169 37.736 52.9843 37.5769 52.7191 37.5769C52.1887 37.5504 51.6583 37.5769 51.1015 37.5769Z" fill="#383E41"/>
<path d="M70.9375 38.5847C71.2027 38.7703 71.3883 38.9824 71.4413 39.3007C71.5209 39.9371 71.1496 40.3879 70.4867 40.4144C69.7972 40.441 69.0812 40.4144 68.3652 40.4144C68.3652 39.3537 68.3652 38.293 68.3652 37.1792C68.4978 37.1792 68.6304 37.1792 68.7364 37.1792C69.2933 37.1792 69.8767 37.1792 70.4336 37.2057C70.7518 37.2057 71.017 37.3383 71.1496 37.63C71.2822 37.9747 71.2557 38.3195 70.9375 38.5847ZM68.763 40.0432C69.3729 40.0432 69.9298 40.0697 70.5132 40.0432C70.8579 40.0432 71.0701 39.778 71.0436 39.4067C71.0436 39.0355 70.8314 38.8498 70.4601 38.8233C69.9563 38.8233 69.4524 38.8233 68.9486 38.8233C68.8955 38.8233 68.8425 38.8498 68.7895 38.8498C68.7629 39.2476 68.763 39.6454 68.763 40.0432ZM68.763 37.5769C68.763 37.8687 68.763 38.1604 68.763 38.4521C69.3464 38.4521 69.9033 38.4786 70.4601 38.4521C70.7253 38.4521 70.8314 38.2399 70.8314 38.0012C70.8049 37.7626 70.6988 37.6035 70.4601 37.6035C69.8767 37.577 69.3198 37.5769 68.763 37.5769Z" fill="#383E41"/>
<path d="M45.5325 41.1305C45.4 41.1305 45.3204 41.1305 45.1878 41.1305C45.1878 40.7857 45.1878 40.0432 45.1878 40.0432H45.5856L46.8054 37.1792H47.1237L48.3966 40.0432H48.8209C48.8209 40.0432 48.8209 40.7592 48.8209 41.1305C48.7148 41.1305 48.6087 41.1305 48.4761 41.1305C48.4761 40.9183 48.4761 40.6796 48.4761 40.441C47.4684 40.441 46.5137 40.441 45.506 40.441C45.5325 40.6531 45.5325 40.8653 45.5325 41.1305ZM46.9911 37.7361C46.6463 38.5316 46.3546 39.2741 46.0364 40.0432C46.6994 40.0432 47.3358 40.0432 48.0253 40.0432C47.6806 39.2741 47.3358 38.5316 46.9911 37.7361Z" fill="#383E41"/>
<path d="M64.626 40.0432C64.7851 40.0432 64.9442 40.0697 65.0768 40.0697C65.0768 40.4144 65.0768 40.7592 65.0768 41.1304C64.9708 41.1304 64.8647 41.1304 64.7321 41.1304C64.7321 40.8918 64.7321 40.6796 64.7321 40.441C63.857 40.441 63.0084 40.441 62.1598 40.441C62.1598 39.3537 62.1598 38.293 62.1598 37.2322C62.2924 37.2322 62.3985 37.2322 62.5576 37.2322C62.5576 38.1869 62.5576 39.115 62.5576 40.0697C63.1145 40.0697 63.6714 40.0697 64.2283 40.0697C64.2283 39.115 64.2283 38.1869 64.2283 37.2322C64.3608 37.2322 64.4934 37.2322 64.626 37.2322C64.626 38.1338 64.626 39.0885 64.626 40.0432Z" fill="#383E41"/>
<path d="M54.655 37.2057C54.7876 37.2057 54.8937 37.2057 55.0528 37.2057C55.0528 37.63 55.0528 38.0278 55.0528 38.4521C55.6893 38.4521 56.3257 38.4521 56.9622 38.4521C56.9622 38.0278 56.9622 37.63 56.9622 37.2057C57.0947 37.2057 57.2273 37.2057 57.3334 37.2057C57.3334 38.2664 57.3334 39.3272 57.3334 40.4144C57.2008 40.4144 57.0947 40.4144 56.9622 40.4144C56.9622 39.9106 56.9622 39.3802 56.9622 38.8764C56.3257 38.8764 55.6893 38.8764 55.0528 38.8764C55.0528 39.3802 55.0528 39.8841 55.0528 40.4144C54.9202 40.4144 54.7876 40.4144 54.655 40.4144C54.655 39.3272 54.655 38.2664 54.655 37.2057Z" fill="#383E41"/>
<path d="M43.8884 38.9559C44.2066 38.4521 44.9756 37.1792 44.9756 37.1792H45.453C45.453 37.1792 43.9944 39.5128 43.4641 40.4144H42.9867C43.1458 40.1493 43.6232 39.3537 43.6232 39.3537C43.2254 38.7968 42.1912 37.1792 42.1912 37.1792H42.695C42.695 37.1792 43.5436 38.4521 43.8884 38.9559Z" fill="#383E41"/>
<path d="M66.3763 37.5769C65.8989 37.5769 65.4746 37.5769 65.0238 37.5769C65.0238 37.4444 65.0238 37.3383 65.0238 37.2057C66.058 37.2057 67.0657 37.2057 68.1 37.2057C68.1 37.3118 68.1 37.4178 68.1 37.5504C67.6757 37.5504 67.2249 37.5504 66.7475 37.5504C66.7475 38.5051 66.7475 39.4598 66.7475 40.3879C66.6149 40.3879 66.4823 40.3879 66.3497 40.3879C66.3763 39.4598 66.3763 38.5316 66.3763 37.5769Z" fill="#383E41"/>
<path d="M49.3248 37.1792C49.4574 37.1792 49.5634 37.1792 49.696 37.1792C49.696 38.2664 49.696 39.3272 49.696 40.4144C49.5634 40.4144 49.4574 40.4144 49.3248 40.4144C49.3248 39.3272 49.3248 38.2664 49.3248 37.1792Z" fill="#383E41"/>
</svg>
