<svg width="18" height="18" viewBox="0 0 18 18" fill="none" xmlns="http://www.w3.org/2000/svg">
<path fill-rule="evenodd" clip-rule="evenodd" d="M8.09246 6.07056C8.50046 5.51058 8.65235 4.91863 8.18035 4.39865C7.13236 2.9267 6.42836 2.02272 5.98036 1.58273C5.14037 0.750765 3.74841 0.862761 3.02042 1.58273C2.62842 1.96672 2.49249 2.10274 2.09249 2.51073C-0.155498 4.75864 1.21246 9.5025 4.85244 13.1424C8.49242 16.7902 13.2364 18.1581 15.4844 15.9022C15.8604 15.5502 16.1724 15.2302 16.4203 14.9662C17.1403 14.2143 17.2443 12.8864 16.4203 12.0224C15.9964 11.5824 15.1243 10.9104 13.5883 9.81446C13.1243 9.39048 12.5644 9.48647 12.0524 9.81446C11.8044 9.98246 11.6284 10.1424 11.2924 10.4784L10.6764 11.0944C10.5964 11.1744 9.5004 10.6224 8.4364 9.55842C7.37241 8.49446 6.82047 7.39855 6.90047 7.31856L7.51629 6.70256C7.62029 6.59857 7.67631 6.54255 7.74031 6.47855C7.87631 6.33455 7.98846 6.19855 8.09246 6.07056Z" stroke="#383E41" stroke-width="2"/>
</svg>
