<svg width="14" height="14" viewBox="0 0 14 14" fill="none" xmlns="http://www.w3.org/2000/svg">
<path fill-rule="evenodd" clip-rule="evenodd" d="M6.2059 4.43674C6.5629 3.94676 6.69581 3.4288 6.28281 2.97382C5.36581 1.68586 4.74981 0.894878 4.35782 0.509892C3.62282 -0.218081 2.40486 -0.120084 1.76786 0.509892C1.42487 0.84588 1.30593 0.9649 0.95593 1.32189C-1.01106 3.28881 0.185899 7.43969 3.37088 10.6246C6.55587 13.8165 10.7069 15.0134 12.6739 13.0394C13.0029 12.7315 13.2758 12.4514 13.4928 12.2204C14.1228 11.5625 14.2138 10.4006 13.4928 9.64459C13.1218 9.2596 12.3588 8.67162 11.0148 7.71265C10.6088 7.34167 10.1188 7.42566 9.67085 7.71265C9.45385 7.85965 9.29989 7.99961 9.00589 8.2936L8.46688 8.8326C8.39688 8.90259 7.43785 8.41958 6.50685 7.48861C5.57586 6.55765 5.09292 5.59874 5.16292 5.52874L5.70176 4.98974C5.79275 4.89875 5.84177 4.84973 5.89777 4.79373C6.01677 4.66774 6.1149 4.54873 6.2059 4.43674Z" fill="white"/>
</svg>
