<svg width="12" height="14" viewBox="0 0 12 14" fill="none" xmlns="http://www.w3.org/2000/svg">
<path fill-rule="evenodd" clip-rule="evenodd" d="M5.56143 0.0294418C7.84296 -0.234056 9.43478 1.28872 9.22458 3.89128C9.16607 4.61649 8.86664 5.48406 8.50709 6.12512C8.16591 6.73317 7.398 7.32177 7.60056 8.09384C7.72874 8.58223 8.80005 8.87019 9.1868 9.04025C10.1739 9.47485 11.5587 10.1237 11.9059 11.1605C11.9953 11.4277 12.0629 12.0778 11.9059 12.4856C11.3525 13.9235 7.92175 14 6.01447 14C4.95948 14 3.67753 13.9836 2.54007 13.7729C1.21519 13.5271 -0.390006 12.9946 0.0853794 11.2362C0.299847 10.4429 1.25488 9.86302 2.12481 9.38083C2.37749 9.24097 2.91197 8.93724 3.40882 8.73726C3.82776 8.56852 4.41324 8.4154 4.46616 7.8666C4.51085 7.40238 4.21715 7.15406 3.93742 6.76854C3.29769 5.88712 2.69559 4.68531 2.80437 3.0582C2.91138 1.461 3.90228 0.220876 5.56143 0.0294418Z" fill="white"/>
</svg>
