<svg width="18" height="19" viewBox="0 0 18 19" fill="none" xmlns="http://www.w3.org/2000/svg">
<path d="M17.2463 10.8547C17.8052 6.15021 16.9778 3.18017 15.4854 1.83682L15.4862 1.83604C13.0774 -0.458027 4.94234 -0.797572 2.06051 1.93908C0.766336 3.27774 0.310488 5.24241 0.260532 7.67464C0.210576 10.1077 0.151253 14.6654 4.39829 15.9018H4.40219L4.39829 17.7899C4.39829 17.7899 4.36941 18.5549 4.85804 18.7087C5.41692 18.8898 5.66982 18.5346 7.40813 16.4583C10.3149 16.7104 12.5474 16.1328 12.801 16.0485C13.388 15.8518 16.7093 15.4124 17.2463 10.8547ZM7.6946 15.1298C7.6946 15.1298 5.85482 17.4239 5.28266 18.0194C5.09533 18.213 4.89004 18.1951 4.89316 17.811C4.89316 17.5589 4.90721 14.6763 4.90721 14.6763C1.30648 13.6444 1.5188 9.76343 1.55783 7.73319C1.59685 5.70217 1.9684 4.03879 3.06431 2.91868C5.59255 0.548117 12.7245 1.07812 14.5417 2.78599C16.7632 4.75534 15.9725 10.3192 15.9771 10.5089C15.5205 14.3133 12.8291 14.5545 12.3343 14.7192C12.1227 14.7895 10.1596 15.2945 7.6946 15.1298Z" fill="#383E41"/>
<path d="M8.71239 3.36438C8.41187 3.36438 8.41187 3.83272 8.71239 3.83662C11.0439 3.85457 12.9641 5.4797 12.9852 8.46067C12.9852 8.77523 13.4457 8.77133 13.4418 8.45676H13.441C13.4161 5.24475 11.3195 3.38233 8.71239 3.36438Z" fill="#383E41"/>
<path d="M11.7792 7.9666C11.7722 8.27727 12.2319 8.2921 12.2358 7.97753C12.2741 6.20644 11.1821 4.74757 9.12996 4.5938C8.82945 4.57194 8.79822 5.04418 9.09796 5.06604C10.8776 5.20108 11.8151 6.41563 11.7792 7.9666Z" fill="#383E41"/>
<path d="M11.2877 9.98125C10.9021 9.75801 10.5095 9.89694 10.3471 10.1163L10.0075 10.5557C9.83505 10.779 9.51267 10.7493 9.51267 10.7493C7.16006 10.1272 6.53093 7.66532 6.53093 7.66532C6.53093 7.66532 6.50205 7.33202 6.71748 7.15327L7.14211 6.80202C7.35442 6.63342 7.48868 6.22753 7.27246 5.82866C6.69485 4.78505 6.30691 4.42521 6.10943 4.14889C5.9018 3.88896 5.58957 3.83042 5.26486 4.00605H5.25783C4.58265 4.40101 3.84346 5.1402 4.07997 5.90125C4.48352 6.70367 5.22505 9.26157 7.58859 11.1942C8.69933 12.1083 10.4572 13.0449 11.2034 13.2612L11.2104 13.2721C11.9457 13.5172 12.6607 12.7491 13.0424 12.0536V12.0482C13.2118 11.7118 13.1556 11.3933 12.9081 11.1849C12.4694 10.7571 11.8075 10.2849 11.2877 9.98125Z" fill="#383E41"/>
<path d="M9.45175 6.33594C10.2019 6.37966 10.5656 6.7715 10.6046 7.57626C10.6187 7.89082 11.0753 7.86897 11.0613 7.5544C11.0113 6.50377 10.4634 5.91834 9.47673 5.8637C9.17621 5.84575 9.14811 6.31799 9.45175 6.33594Z" fill="#383E41"/>
</svg>
