<svg width="60" height="82" viewBox="0 0 60 82" fill="none" xmlns="http://www.w3.org/2000/svg">
<path fill-rule="evenodd" clip-rule="evenodd" d="M29.8592 81.75C40.2817 69.7026 60 47.0421 60 30.4053C60 13.7684 46.4789 0 29.8592 0C13.5211 0 0 13.7684 0 30.4053C0 47.0421 19.7183 69.7026 29.8592 81.75Z" fill="#383E41"/>
<circle cx="30" cy="30.0044" r="24" fill="white"/>
<path d="M40.4927 26.9551C41.2679 26.9551 41.8985 26.3245 41.8985 25.5493V23.7291C41.8985 23.1519 41.5528 22.6403 41.0176 22.4249L30.4764 18.1148C30.1331 17.9765 29.7617 17.9789 29.4271 18.1128C29.4193 18.1159 29.6036 18.0406 18.881 22.425C18.3457 22.6403 18 23.152 18 23.7291V25.5494C18 26.3245 18.6306 26.9552 19.4058 26.9552H20.2493V37.5455H19.4058C18.6306 37.5455 18 38.1761 18 38.9513V40.5914C18 41.3665 18.6306 41.9972 19.4058 41.9972H40.4927C41.2678 41.9972 41.8985 41.3665 41.8985 40.5914V38.9513C41.8985 38.1761 41.2678 37.5455 40.4927 37.5455H39.6492V26.9552H40.4927V26.9551ZM40.4927 38.9512C40.4936 40.6288 40.4974 40.5913 40.4927 40.5913H19.4058V38.9512H40.4927ZM21.6551 37.5454V26.9551H23.2483V37.5454H21.6551ZM24.6541 37.5454V26.9551H27.7469V37.5454H24.6541ZM29.1527 37.5454V26.9551H30.7459V37.5454H29.1527ZM32.1517 37.5454V26.9551H35.2444V37.5454H32.1517ZM36.6502 37.5454V26.9551H38.2435V37.5454H36.6502ZM19.4058 25.5493C19.4058 23.5885 19.4037 23.7299 19.4108 23.7271L29.9493 19.418L40.4878 23.7271C40.4951 23.73 40.4927 23.5932 40.4927 25.5493C40.2591 25.5493 19.6835 25.5493 19.4058 25.5493Z" fill="#383E41"/>
<path d="M29.9492 21.0508C29.561 21.0508 29.2463 21.3655 29.2463 21.7537V23.2532C29.2463 23.6414 29.561 23.9561 29.9492 23.9561C30.3374 23.9561 30.6521 23.6414 30.6521 23.2532V21.7537C30.6521 21.3655 30.3374 21.0508 29.9492 21.0508V21.0508Z" fill="#383E41"/>
</svg>
