<svg width="60" height="82" viewBox="0 0 60 82" fill="none" xmlns="http://www.w3.org/2000/svg">
<path fill-rule="evenodd" clip-rule="evenodd" d="M29.8592 81.75C40.2817 69.7026 60 47.0421 60 30.4053C60 13.7684 46.4789 0 29.8592 0C13.5211 0 0 13.7684 0 30.4053C0 47.0421 19.7183 69.7026 29.8592 81.75Z" fill="#383E41"/>
<circle cx="30.0001" cy="30" r="24" fill="white"/>
<path d="M42.2906 25.382C41.5335 24.9138 40.6039 24.8731 39.8095 25.2703L36.7 26.825V26.5005C36.7 25.0943 35.5562 23.9505 34.15 23.9505H32.9751C33.689 23.3268 34.15 22.4208 34.15 21.4005C34.15 19.5258 32.6251 18.0005 30.75 18.0005C28.8749 18.0005 27.35 19.5258 27.35 21.4005C27.35 22.4208 27.811 23.3268 28.5249 23.9505H26.1751C26.889 23.3268 27.35 22.4208 27.35 21.4005C27.35 19.5258 25.8251 18.0005 23.95 18.0005C22.0749 18.0005 20.55 19.5258 20.55 21.4005C20.55 22.4208 21.011 23.3268 21.7249 23.9505H20.55C19.1438 23.9505 18 25.0943 18 26.5005V33.3005C18 34.7066 19.1438 35.8505 20.55 35.8505H24.8819L19.8851 42.1209C19.5929 42.4878 19.6535 43.0224 20.0204 43.3154C20.3865 43.6076 20.9227 43.547 21.2149 43.1801L26.8129 36.1551C27.125 35.7617 27.575 35.7617 27.8871 36.1551L33.4851 43.1801C33.6528 43.3909 33.901 43.5005 34.1508 43.5005C34.3359 43.5005 34.5235 43.4399 34.6796 43.3154C35.0465 43.0224 35.1071 42.4878 34.8149 42.1209L29.8181 35.8505H34.15C35.5562 35.8505 36.7 34.7066 36.7 33.3005V32.9759L39.8095 34.5307C40.1722 34.7125 40.5624 34.8021 40.9517 34.8021C41.4157 34.8021 41.8789 34.6734 42.2906 34.4194C43.0476 33.9513 43.5 33.1403 43.5 32.2496V27.551C43.5 26.6607 43.0476 25.8501 42.2906 25.382ZM30.75 19.7005C31.6872 19.7005 32.45 20.4629 32.45 21.4005C32.45 22.3381 31.6872 23.1005 30.75 23.1005C29.8128 23.1005 29.05 22.3381 29.05 21.4005C29.05 20.4629 29.8128 19.7005 30.75 19.7005ZM23.95 19.7005C24.8872 19.7005 25.65 20.4629 25.65 21.4005C25.65 22.3381 24.8872 23.1005 23.95 23.1005C23.0128 23.1005 22.25 22.3381 22.25 21.4005C22.25 20.4629 23.0128 19.7005 23.95 19.7005ZM35 33.3005C35 33.7695 34.619 34.1505 34.15 34.1505H20.55C20.081 34.1505 19.7 33.7695 19.7 33.3005V26.5005C19.7 26.0319 20.081 25.6505 20.55 25.6505H34.15C34.619 25.6505 35 26.0319 35 26.5005V28.2005V31.6005V33.3005ZM41.8 32.2496C41.8 32.6779 41.5178 32.8979 41.3966 32.9726C41.2754 33.0481 40.9508 33.2017 40.5698 33.01L36.7 31.0751V28.7259L40.5698 26.791C40.9508 26.5993 41.2754 26.7532 41.3966 26.828C41.5178 26.9031 41.8 27.1235 41.8 27.551V32.2496Z" fill="#383E41" stroke="#383E41" stroke-width="0.5"/>
</svg>
