<svg width="60" height="82" viewBox="0 0 60 82" fill="none" xmlns="http://www.w3.org/2000/svg">
<path fill-rule="evenodd" clip-rule="evenodd" d="M29.8592 81.7515C40.2817 69.7041 60 47.0436 60 30.4067C60 13.7699 46.4789 0.00146484 29.8592 0.00146484C13.5211 0.00146484 0 13.7699 0 30.4067C0 47.0436 19.7183 69.7041 29.8592 81.7515Z" fill="#383E41"/>
<circle cx="30" cy="29.9995" r="24" fill="white"/>
<path d="M43.4513 22.1214C43.3067 21.9611 39.8905 18.2051 35.7964 19.191C34.356 19.5381 31.7018 21.6242 30.4436 22.663V20.7895C30.9711 20.6848 31.4407 20.3876 31.7612 19.9557C32.0816 19.5239 32.23 18.9882 32.1774 18.4531C32.1247 17.9179 31.8749 17.4214 31.4765 17.0602C31.0781 16.6991 30.5595 16.499 30.0218 16.499C29.484 16.499 28.9655 16.6991 28.5671 17.0602C28.1686 17.4214 27.9188 17.9179 27.8662 18.4531C27.8136 18.9882 27.9619 19.5239 28.2824 19.9557C28.6028 20.3876 29.0725 20.6848 29.5999 20.7895V22.6585C28.3373 21.618 25.6938 19.5369 24.2528 19.191C20.1638 18.2084 16.7424 21.9611 16.5979 22.1214C16.5291 22.2054 16.4954 22.3128 16.5038 22.421C16.5122 22.5293 16.562 22.6302 16.6429 22.7026C16.7238 22.7751 16.8295 22.8136 16.938 22.8101C17.0465 22.8066 17.1495 22.7614 17.2256 22.6838C17.2571 22.6501 20.463 19.1432 24.0554 20.0116C25.3023 20.3114 27.9537 22.3779 29.3052 23.5095C28.5129 23.9471 27.6776 24.3019 26.8125 24.568C25.9512 24.8795 25.0327 25.0011 24.12 24.9246C24.0103 24.9044 23.8971 24.9285 23.805 24.9916C23.713 25.0547 23.6498 25.1516 23.6291 25.2613C23.6084 25.3709 23.632 25.4843 23.6947 25.5766C23.7574 25.6688 23.8541 25.7325 23.9637 25.7537C24.1631 25.7851 24.3648 25.799 24.5666 25.7953C25.4151 25.7804 26.2566 25.638 27.0628 25.3729C27.9417 25.1036 28.7916 24.7475 29.5999 24.3099V30.6092L29.1899 30.5254C27.4177 30.1728 26.1381 29.9169 25.7725 28.9467C25.2961 27.6795 26.6797 26.8971 26.7433 26.8622C26.792 26.8358 26.8349 26.7999 26.8698 26.7569C26.9046 26.7138 26.9306 26.6642 26.9463 26.6111C26.962 26.558 26.9671 26.5022 26.9612 26.4471C26.9554 26.392 26.9388 26.3386 26.9123 26.2899C26.8858 26.2413 26.85 26.1983 26.8069 26.1635C26.7638 26.1286 26.7143 26.1026 26.6612 26.0869C26.608 26.0712 26.5523 26.0661 26.4972 26.072C26.4421 26.0778 26.3887 26.0945 26.34 26.1209C25.6128 26.5146 24.3928 27.675 24.9828 29.2431C25.4221 30.4096 26.5644 30.8207 28.0543 31.1503C26.6167 31.5738 25.6128 32.2223 25.7691 33.7938C25.8974 35.0953 27.268 35.8316 28.5757 36.3034C27.6359 36.6477 26.7005 37.2394 26.7005 38.5465C26.7005 39.7839 27.79 40.3975 28.7776 40.767C27.4587 41.3891 26.759 42.1731 26.759 43.073C26.759 43.1849 26.8035 43.2922 26.8826 43.3713C26.9617 43.4504 27.069 43.4949 27.1809 43.4949C27.2927 43.4949 27.4 43.4504 27.4791 43.3713C27.5583 43.2922 27.6027 43.1849 27.6027 43.073C27.6027 42.4544 28.3232 41.8284 29.5999 41.325V43.0753C29.5999 43.1872 29.6444 43.2945 29.7235 43.3736C29.8026 43.4527 29.9099 43.4971 30.0218 43.4971C30.1337 43.4971 30.241 43.4527 30.3201 43.3736C30.3992 43.2945 30.4436 43.1872 30.4436 43.0753V41.3396C31.7012 41.8407 32.4122 42.4589 32.4122 43.0753C32.4122 43.1872 32.4566 43.2945 32.5357 43.3736C32.6148 43.4527 32.7221 43.4971 32.834 43.4971C32.9459 43.4971 33.0532 43.4527 33.1323 43.3736C33.2114 43.2945 33.2558 43.1872 33.2558 43.0753C33.2558 42.1754 32.5562 41.3925 31.2372 40.7693C32.2254 40.3997 33.3149 39.7872 33.3149 38.5487C33.3149 37.2416 32.379 36.6499 31.4391 36.3057C32.7474 35.8338 34.1181 35.0976 34.2463 33.7966C34.4027 32.2218 33.3981 31.5738 31.9605 31.1531C33.4504 30.8241 34.5928 30.4124 35.032 29.2459C35.6221 27.6778 34.4021 26.518 33.6749 26.1237C33.5767 26.0716 33.4619 26.0604 33.3555 26.0925C33.249 26.1246 33.1596 26.1973 33.1065 26.295C33.0534 26.3927 33.0411 26.5074 33.0721 26.6141C33.1031 26.7208 33.175 26.811 33.2722 26.865C33.3312 26.8977 34.7199 27.68 34.2424 28.9489C33.8768 29.9197 32.5967 30.1756 30.8255 30.5283L30.4459 30.6059V24.3065C31.2557 24.7467 32.1075 25.1047 32.9887 25.3751C33.7948 25.6403 34.6363 25.7827 35.4848 25.7975C35.6866 25.8012 35.8884 25.7873 36.0878 25.7559C36.1971 25.7349 36.2936 25.6714 36.3562 25.5794C36.4189 25.4874 36.4424 25.3743 36.4218 25.2649C36.4003 25.1558 36.3369 25.0594 36.2453 24.9964C36.1537 24.9333 36.041 24.9086 35.9314 24.9274C35.0187 25.005 34.1 24.8833 33.239 24.5708C32.3738 24.3047 31.5385 23.95 30.7462 23.5123C32.0961 22.3807 34.7491 20.3142 35.9961 20.0145C39.5862 19.1432 42.7921 22.6501 42.8236 22.6866C42.8996 22.7642 43.0026 22.8094 43.1112 22.8129C43.2197 22.8164 43.3254 22.7779 43.4063 22.7055C43.4872 22.633 43.537 22.5321 43.5454 22.4238C43.5538 22.3156 43.5201 22.2082 43.4513 22.1242V22.1214ZM28.6995 18.6663C28.699 18.4046 28.7762 18.1487 28.9212 17.9309C29.0662 17.7132 29.2725 17.5432 29.514 17.4427C29.7556 17.3422 30.0215 17.3155 30.2782 17.3661C30.5349 17.4167 30.7708 17.5423 30.9562 17.727C31.1415 17.9117 31.2679 18.1472 31.3194 18.4037C31.3708 18.6603 31.3451 18.9263 31.2454 19.1682C31.1457 19.4101 30.9765 19.617 30.7592 19.7627C30.5419 19.9084 30.2862 19.9865 30.0246 19.9869C29.6738 19.9872 29.3373 19.8483 29.0888 19.6007C28.8404 19.3531 28.7004 19.017 28.6995 18.6663ZM26.6083 33.7139C26.4817 32.4411 27.497 32.098 29.5999 31.6436V35.7579C28.3373 35.3704 26.7118 34.7618 26.6083 33.7139ZM27.5442 38.551C27.5442 37.5538 28.3879 37.2118 29.5999 36.8726V40.1601C28.4936 39.8019 27.5442 39.3913 27.5442 38.5476V38.551ZM32.469 38.551C32.469 39.3828 31.5364 39.7951 30.4442 40.15V36.8805C31.636 37.2169 32.469 37.5616 32.469 38.5476V38.551ZM33.4049 33.7139C33.3025 34.7522 31.7046 35.3597 30.4436 35.7478V31.6503C32.5252 32.102 33.5303 32.4479 33.4049 33.7145V33.7139Z" fill="#383E41" stroke="#383E41" stroke-width="0.5"/>
<path d="M42.0485 22.8789C41.2743 22.8651 40.5057 22.7457 39.7638 22.524C39.0692 22.2917 38.4172 21.9474 37.8335 21.5049C37.7469 21.4356 37.6365 21.4033 37.5262 21.4149C37.4159 21.4265 37.3146 21.481 37.2442 21.5667C37.1739 21.6524 37.14 21.7623 37.1501 21.8727C37.1602 21.9832 37.2133 22.0852 37.2981 22.1567C37.961 22.6681 38.7054 23.064 39.5 23.3277C40.3267 23.579 41.1846 23.7129 42.0485 23.7254C42.1603 23.7254 42.2676 23.681 42.3468 23.6018C42.4259 23.5227 42.4703 23.4154 42.4703 23.3036C42.4703 23.1917 42.4259 23.0844 42.3468 23.0053C42.2676 22.9262 42.1603 22.8817 42.0485 22.8817V22.8789Z" fill="#383E41" stroke="#383E41" stroke-width="0.5"/>
<path d="M39.486 23.9343C38.5458 23.9133 37.6099 23.8003 36.6917 23.5968C36.1267 23.4511 35.5834 23.2316 35.0758 22.9438C34.981 22.8841 34.8664 22.8646 34.7572 22.8894C34.648 22.9143 34.5531 22.9815 34.4934 23.0763C34.4337 23.1711 34.4142 23.2857 34.439 23.3949C34.4639 23.5041 34.5311 23.599 34.6259 23.6587C35.2032 23.9927 35.8235 24.2461 36.4696 24.4118C37.4539 24.6336 38.458 24.7562 39.4668 24.778H39.4753C39.5872 24.779 39.6949 24.7356 39.7747 24.6572C39.8546 24.5788 39.9 24.4719 39.901 24.3601C39.9021 24.2482 39.8586 24.1405 39.7803 24.0606C39.7019 23.9808 39.595 23.9353 39.4831 23.9343H39.486Z" fill="#383E41" stroke="#383E41" stroke-width="0.5"/>
<path d="M22.7511 22.154C22.8281 22.0804 22.8744 21.9804 22.8807 21.874C22.887 21.7676 22.8528 21.6628 22.785 21.5806C22.7172 21.4985 22.6208 21.445 22.5152 21.4309C22.4096 21.4169 22.3025 21.4433 22.2156 21.505C21.6323 21.9484 20.9805 22.2936 20.2859 22.5269C19.5438 22.7486 18.775 22.868 18.0006 22.8818C17.8888 22.8818 17.7815 22.9263 17.7024 23.0054C17.6233 23.0845 17.5788 23.1918 17.5788 23.3037C17.5788 23.4155 17.6233 23.5228 17.7024 23.6019C17.7815 23.6811 17.8888 23.7255 18.0006 23.7255C18.8647 23.7129 19.7228 23.5791 20.5496 23.3278C21.3442 23.0631 22.0885 22.6663 22.7511 22.154Z" fill="#383E41" stroke="#383E41" stroke-width="0.5"/>
<path d="M25.5541 23.08C25.4947 22.9854 25.4001 22.9182 25.2912 22.8931C25.1823 22.868 25.0679 22.8871 24.9731 22.9462C24.4655 23.2339 23.9222 23.4535 23.3572 23.5992C22.439 23.8024 21.5031 23.9154 20.563 23.9367C20.4511 23.9377 20.3442 23.9831 20.2658 24.063C20.1875 24.1428 20.144 24.2505 20.1451 24.3624C20.1461 24.4743 20.1915 24.5812 20.2714 24.6596C20.3512 24.7379 20.4589 24.7814 20.5708 24.7803H20.5793C21.5881 24.7586 22.5922 24.6359 23.5765 24.4142C24.2226 24.2485 24.8429 23.9951 25.4202 23.6611C25.515 23.6017 25.5823 23.5072 25.6074 23.3983C25.6325 23.2893 25.6133 23.1749 25.5541 23.08Z" fill="#383E41" stroke="#383E41" stroke-width="0.5"/>
</svg>
