<svg width="60" height="82" viewBox="0 0 60 82" fill="none" xmlns="http://www.w3.org/2000/svg">
<path fill-rule="evenodd" clip-rule="evenodd" d="M29.8592 81.75C40.2817 69.7026 60 47.0421 60 30.4053C60 13.7684 46.4789 0 29.8592 0C13.5211 0 0 13.7684 0 30.4053C0 47.0421 19.7183 69.7026 29.8592 81.75Z" fill="#383E41"/>
<circle cx="30" cy="30" r="24" fill="white"/>
<path d="M36.9811 25.2757L33.2873 15.847C33.082 15.3446 32.5129 15.0982 32.0061 15.2924L22.5774 18.9862C22.0705 19.1868 21.8222 19.7604 22.0228 20.2674L25.7443 29.696C25.945 30.203 26.5186 30.4512 27.0255 30.2507L36.4264 26.5568C36.9334 26.3562 37.1816 25.7826 36.9811 25.2757ZM26.7316 29.1691L23.1265 19.9956L32.3 16.385L35.9051 25.5641L26.7316 29.1691Z" fill="#383E41" stroke="#383E41" stroke-width="0.5"/>
<path d="M27.8741 31.1934H17.7743C17.2291 31.1934 16.7871 31.6353 16.7871 32.1806V42.2859C16.7871 42.8312 17.2291 43.2731 17.7743 43.2731H27.8741C28.4194 43.2731 28.8613 42.8312 28.8613 42.2859V32.1806C28.8613 31.6353 28.4193 31.1934 27.8741 31.1934ZM27.7521 42.1583H17.8964V32.3026H27.7521V42.1583Z" fill="#383E41" stroke="#383E41" stroke-width="0.5"/>
<path d="M42.7879 31.1372L33.0265 28.5415C32.4943 28.4117 31.9561 28.7325 31.8174 29.2625L29.2218 39.024C29.0807 39.5507 29.3934 40.0919 29.9201 40.2329C29.9202 40.233 29.9205 40.233 29.9206 40.2331L39.682 42.8287C40.2087 42.9697 40.75 42.6571 40.891 42.1304C40.891 42.1302 40.891 42.13 40.8911 42.1299L43.4646 32.3463C43.6072 31.8261 43.3059 31.2877 42.7879 31.1372ZM39.854 41.6751L30.3255 39.1737L32.8601 29.6508L42.3831 32.1854L39.854 41.6751Z" fill="#383E41" stroke="#383E41" stroke-width="0.5"/>
<path d="M32.8159 23.867C32.7152 23.6754 32.5819 23.5028 32.4221 23.3568L29.649 20.4339L29.3218 20.0789C29.2395 19.9936 29.1484 19.9175 29.05 19.8515C28.9504 19.7838 28.8365 19.7401 28.7172 19.724C28.4334 19.7041 28.1559 19.8143 27.9629 20.0235C27.8867 20.1171 27.8335 20.2272 27.8076 20.3451C27.7795 20.4838 27.7664 20.6252 27.7688 20.7667C27.7688 20.9275 27.7688 21.0662 27.7688 21.1826V25.2203C27.7799 25.3867 27.7891 25.5143 27.7965 25.603C27.8008 25.6864 27.8176 25.7687 27.8464 25.8471C27.9004 25.9772 28.0074 26.0781 28.1404 26.1244C28.2754 26.1798 28.4269 26.1798 28.5619 26.1244C28.6993 26.0853 28.8089 25.9818 28.8559 25.8471C28.8975 25.6335 28.9124 25.4154 28.9002 25.1981V24.405L31.091 23.5453L31.6124 24.1L31.8509 24.3385C31.9188 24.4103 31.9951 24.4736 32.0783 24.527C32.1406 24.5646 32.2109 24.5874 32.2835 24.5936C32.3649 24.5995 32.4466 24.5862 32.522 24.5548C32.6523 24.5013 32.7574 24.4001 32.8159 24.2719C32.8711 24.1426 32.8711 23.9963 32.8159 23.867ZM28.8503 23.4622L28.7727 20.9441L30.4587 22.8299L28.8503 23.4622Z" fill="#383E41" stroke="#383E41" stroke-width="0.5"/>
<path d="M24.2079 36.8009C24.7363 36.6035 25.0829 36.0947 25.0732 35.5308C25.0736 35.3681 25.0454 35.2066 24.99 35.0538C24.9355 34.9021 24.8548 34.7613 24.7515 34.6378C24.6496 34.5147 24.5277 34.4097 24.391 34.3272C24.2208 34.2254 24.0324 34.1576 23.8363 34.1275C23.5996 34.0914 23.3603 34.0747 23.1209 34.0776H21.2795C21.0798 34.0559 20.8797 34.1158 20.7249 34.244C20.5983 34.3997 20.5386 34.599 20.5585 34.7986V39.1469C20.5382 39.3457 20.5958 39.5445 20.7193 39.7016C20.874 39.8344 21.077 39.8967 21.2795 39.8735H23.0488C23.307 39.8655 23.5644 39.8414 23.8197 39.8014C24.029 39.7768 24.2342 39.7246 24.4298 39.6461C24.7036 39.5321 24.9373 39.339 25.1009 39.0915C25.268 38.83 25.3548 38.5254 25.3505 38.2152C25.3632 37.5289 24.8815 36.9326 24.2079 36.8009ZM21.7398 34.9706H22.6661C22.9887 34.9539 23.3114 35.003 23.6145 35.1148C23.8242 35.2161 23.9483 35.4376 23.9251 35.6694C23.9263 35.8001 23.8918 35.9286 23.8252 36.041C23.749 36.19 23.6177 36.3034 23.4592 36.3571C23.2395 36.4207 23.011 36.4487 22.7825 36.4403H21.7121L21.7398 34.9706ZM24.158 38.1375C24.158 38.7069 23.7624 38.9916 22.9711 38.9916H21.7121L21.7398 37.3056H22.9434C23.2628 37.2854 23.5816 37.3545 23.8641 37.5052C24.0677 37.6485 24.1796 37.8895 24.158 38.1375Z" fill="#383E41" stroke="#383E41" stroke-width="0.5"/>
<path d="M39.1329 34.0443C38.9915 33.6943 38.7646 33.3854 38.4729 33.1458C38.1512 32.8773 37.7715 32.6875 37.3637 32.5911C37.0029 32.4914 36.6261 32.4632 36.2544 32.508C35.897 32.5516 35.5529 32.6707 35.245 32.8574C34.9265 33.0536 34.6525 33.3142 34.4408 33.6228C34.2023 33.9739 34.0277 34.3645 33.925 34.7764C33.8529 35.0391 33.8083 35.3086 33.7919 35.5806C33.7776 35.835 33.7943 36.0901 33.8418 36.3404C33.8865 36.5781 33.9611 36.8092 34.0637 37.0282C34.1704 37.2529 34.3127 37.459 34.4852 37.6383C34.657 37.8142 34.8554 37.9621 35.0731 38.0764C35.3216 38.2056 35.5839 38.3061 35.8551 38.3759C36.2026 38.4757 36.5668 38.504 36.9255 38.4591C37.2278 38.4126 37.517 38.303 37.7741 38.1374C37.9867 38.0046 38.1743 37.8357 38.3287 37.6383C38.46 37.4747 38.5563 37.2859 38.6116 37.0836C38.6506 36.9529 38.6324 36.8119 38.5617 36.6954C38.4943 36.5786 38.3821 36.4944 38.2511 36.4624C38.123 36.4163 37.9804 36.4349 37.8684 36.5124C37.7613 36.6001 37.6694 36.7051 37.5966 36.8229C37.4244 37.0736 37.181 37.2668 36.8978 37.3776C36.6095 37.4716 36.2987 37.4716 36.0104 37.3776C35.7484 37.3267 35.5051 37.206 35.306 37.0282C35.1135 36.8092 34.9934 36.536 34.9622 36.2461C34.925 35.8731 34.9608 35.4963 35.0675 35.1369C35.1665 34.58 35.4521 34.0734 35.8773 33.7004C36.2325 33.4239 36.6999 33.3371 37.1307 33.4675C37.3936 33.5278 37.6316 33.6671 37.8129 33.8668C37.9904 34.0879 38.1121 34.3486 38.1679 34.6266C38.1962 34.7739 38.2466 34.916 38.3176 35.0481C38.3892 35.1475 38.4966 35.2152 38.6171 35.2367C38.7439 35.2718 38.8797 35.2495 38.9887 35.1757C39.1014 35.1076 39.183 34.9981 39.2161 34.8707C39.2746 34.5932 39.2455 34.3045 39.1329 34.0443Z" fill="#383E41" stroke="#383E41" stroke-width="0.5"/>
</svg>
