<svg width="60" height="82" viewBox="0 0 60 82" fill="none" xmlns="http://www.w3.org/2000/svg">
<path fill-rule="evenodd" clip-rule="evenodd" d="M29.8592 81.75C40.2817 69.7026 60 47.0421 60 30.4053C60 13.7684 46.4789 0 29.8592 0C13.5211 0 0 13.7684 0 30.4053C0 47.0421 19.7183 69.7026 29.8592 81.75Z" fill="#383E41"/>
<circle cx="30" cy="30" r="24" fill="white"/>
<path d="M37.9446 22.4257C39.9912 22.4257 41.6575 20.7595 41.6575 18.7129C41.6575 16.6663 39.9945 15 37.9446 15H22.7129C20.6663 15 19 16.6663 19 18.7129C19 20.7595 20.6663 22.4257 22.7129 22.4257C23.6604 22.4257 24.55 22.068 25.2236 21.4556V36.9485H22.9256C22.6613 36.9485 22.4486 37.1612 22.4486 37.4255V39.6268C21.501 40.0135 20.8307 40.9417 20.8307 42.0279V43.533C20.8307 43.7941 21.0434 44.01 21.3077 44.01H39.3531C39.6174 44.01 39.8301 43.7973 39.8301 43.533V42.0279C39.8301 40.9417 39.1597 40.0135 38.2122 39.6268V37.4255C38.2122 37.1612 37.9994 36.9485 37.7352 36.9485H35.3824V21.4041C36.0592 22.0486 36.9681 22.4257 37.9446 22.4257ZM38.8761 42.0279V43.056H21.7814V42.0279C21.7814 41.1222 22.5195 40.3842 23.4251 40.3842H37.2324C38.138 40.3842 38.8761 41.1222 38.8761 42.0279ZM37.2582 37.8992V39.4302H37.2324H23.4251H23.3994V37.8992H25.6973H34.9054H37.2582ZM34.8022 19.5089L34.7539 19.5251C34.5605 19.5895 34.4284 19.77 34.4284 19.9763V36.9485H32.3721V18.7129C32.3721 18.4518 32.1594 18.2359 31.8951 18.2359C31.6308 18.2359 31.4181 18.4486 31.4181 18.7129V36.9485H29.3619V18.7129C29.3619 18.4518 29.1491 18.2359 28.8849 18.2359C28.6206 18.2359 28.4079 18.4486 28.4079 18.7129V36.9485H26.1647V19.9859C26.1647 19.9827 26.1647 19.9827 26.1647 19.9795C26.1647 19.9763 26.1647 19.9763 26.1647 19.9731C26.1647 19.9473 26.155 19.9279 26.1518 19.9054C26.1453 19.8764 26.1453 19.8441 26.1324 19.8183C26.1163 19.7732 26.0905 19.7346 26.0615 19.6959C26.0583 19.6927 26.0583 19.6894 26.0551 19.683C25.9681 19.5734 25.8392 19.4993 25.6877 19.4993C25.4846 19.4993 25.3138 19.6282 25.2461 19.8087C24.8046 20.8207 23.8087 21.475 22.7032 21.475C21.182 21.475 19.9411 20.2373 19.9411 18.7129C19.9411 17.1916 21.1787 15.9508 22.7032 15.9508H37.9382C39.4594 15.9508 40.7003 17.1884 40.7003 18.7129C40.7003 20.2341 39.4627 21.475 37.9382 21.475C36.8166 21.475 35.8143 20.8078 35.3856 19.7764C35.2986 19.5444 35.0375 19.4284 34.8022 19.5089Z" fill="#383E41" stroke="#383E41" stroke-width="0.5"/>
<path d="M39.0662 18.7125C39.0662 19.3313 38.5634 19.8341 37.9446 19.8341C37.4869 19.8341 37.0808 19.5634 36.9068 19.1476C36.8069 18.9059 36.5265 18.7899 36.2848 18.8898C36.043 18.9897 35.927 19.2701 36.0269 19.5118C36.3492 20.2853 37.1002 20.7849 37.9414 20.7849C39.0855 20.7849 40.0137 19.8567 40.0137 18.7125C40.0137 17.5684 39.0823 16.6401 37.9414 16.6401H22.7128C21.5687 16.6401 20.6404 17.5716 20.6404 18.7125C20.6404 19.8567 21.5687 20.7849 22.7128 20.7849C23.5476 20.7849 24.2985 20.2918 24.6305 19.5247C24.7336 19.283 24.624 19.0026 24.3823 18.8994C24.1438 18.7963 23.8602 18.9059 23.7571 19.1476C23.5733 19.5634 23.1673 19.8341 22.7128 19.8341C22.094 19.8341 21.5912 19.3313 21.5912 18.7125C21.5912 18.0937 22.094 17.5909 22.7128 17.5909H37.9478C38.5634 17.5909 39.0662 18.0937 39.0662 18.7125Z" fill="#383E41" stroke="#383E41" stroke-width="0.5"/>
</svg>
