<svg width="100" height="137" viewBox="0 0 100 137" fill="none" xmlns="http://www.w3.org/2000/svg">
<path fill-rule="evenodd" clip-rule="evenodd" d="M49.7653 136.25C67.1361 116.171 100 78.4035 100 50.6754C100 22.9474 77.4648 0 49.7653 0C22.5352 0 0 22.9474 0 50.6754C0 78.4035 32.8638 116.171 49.7653 136.25Z" fill="#EFC47F"/>
<circle cx="50" cy="50" r="40" fill="white"/>
<path d="M13.3775 41.543V50.915H19.0033V49.5488H14.682V41.543H13.3775Z" fill="#383E41"/>
<path d="M23.7324 41.4062L20.0362 50.8876H21.4766C21.7756 50.1225 24.2216 43.5648 24.2216 43.5648L26.9666 50.8876H28.3798L24.6836 41.4062H23.7324Z" fill="#383E41"/>
<path d="M47.1327 41.4062L43.4365 50.8876H44.877C45.1759 50.1225 47.6219 43.5648 47.6219 43.5648L50.3669 50.8876H51.7802L48.084 41.4062H47.1327Z" fill="#383E41"/>
<path d="M38.0008 46.0787L34.984 41.543H33.8969V50.915H35.2286V44.3027L37.6203 47.9367H38.3813L40.7729 44.3027V50.915H42.0775V41.543H41.0447L38.0008 46.0787Z" fill="#383E41"/>
<path d="M58.7105 48.1284L54.2261 41.5434L53.1934 41.5161V50.9155H54.5251V44.3578L58.9551 50.9155H60.015V41.5434H58.7105V48.1284Z" fill="#383E41"/>
<path d="M66.2116 49.6307C65.3419 49.6307 64.5266 49.2482 63.9558 48.6198C63.3851 47.9913 63.0046 47.1716 63.0046 46.2426C63.0046 45.2863 63.3851 44.4392 63.9558 43.8381C64.5266 43.2097 65.3419 42.8271 66.2116 42.8271C67.5705 42.8271 68.6848 43.5375 69.174 44.9311H70.4786C69.9622 42.8271 68.3043 41.4883 66.2116 41.4883C64.9614 41.4883 63.8471 42.0347 63.0318 42.8818C62.2436 43.7288 61.7272 44.9037 61.7272 46.2426C61.7272 47.5541 62.2436 48.729 63.0318 49.5761C63.8199 50.4231 64.9614 50.9696 66.2116 50.9696C68.3587 50.9696 70.0165 49.5214 70.5601 47.3902H69.2556C68.7935 48.811 67.5977 49.6307 66.2116 49.6307Z" fill="#383E41"/>
<path d="M77.4905 45.5049H73.604V41.543H72.2995V50.915H73.604V46.8438H77.4905V50.915H78.8222V41.543H77.4905V45.5049Z" fill="#383E41"/>
<path d="M80.8334 41.543V50.915H86.432V49.5488H82.1923V46.8984H86.3505V45.5322H82.1923V42.9092H86.432V41.543H80.8334Z" fill="#383E41"/>
<path d="M22.2647 50.0132L22.2375 50.0406L22.8354 50.9696L22.8626 50.9422C23.7051 50.3684 24.7922 50.3684 25.6347 50.9422L25.6619 50.9696L26.2598 50.0406L26.2327 50.0132C25.0096 49.2208 23.4605 49.2208 22.2647 50.0132Z" fill="#383E41"/>
<path d="M49.008 49.4946C48.1655 50.0684 47.0783 50.0684 46.2358 49.4946L46.2086 49.4673L45.6107 50.3963L45.6379 50.4236C46.2358 50.8335 46.9153 51.0247 47.6219 51.0247C48.3013 51.0247 48.9808 50.8335 49.6059 50.4236L49.6331 50.3963L49.0351 49.4673L49.008 49.4946Z" fill="#383E41"/>
<path d="M15.6877 55.4514C15.6877 56.1071 15.1985 56.517 14.4103 56.517H13.6494V57.446H13.2145V54.3857H14.4103C15.2257 54.3857 15.6877 54.7956 15.6877 55.4514ZM15.2529 55.4514C15.2529 55.0142 14.9539 54.7683 14.4103 54.7683H13.6765V56.1345H14.4103C14.9811 56.1345 15.2529 55.8885 15.2529 55.4514Z" fill="#383E41"/>
<path d="M20.1992 57.063V57.4455H17.9706V54.3853H20.1176V54.7678H18.4054V55.6968H19.9274V56.0793H18.4054V57.063H20.1992Z" fill="#383E41"/>
<path d="M24.5749 57.4455L23.9226 56.5165C23.8683 56.5165 23.7867 56.5165 23.7324 56.5165H22.9714V57.4455H22.5366V54.3853H23.7324C24.5206 54.3853 25.0098 54.7951 25.0098 55.4509C25.0098 55.9154 24.7652 56.2706 24.3303 56.4072L25.0641 57.4455H24.5749ZM24.5749 55.4509C24.5749 55.0137 24.276 54.7678 23.7324 54.7678H22.9986V56.134H23.7324C24.276 56.134 24.5749 55.8881 24.5749 55.4509Z" fill="#383E41"/>
<path d="M27.782 54.7678V55.8334H29.304V56.2159H27.782V57.4455H27.3472V54.3853H29.4942V54.7678H27.782Z" fill="#383E41"/>
<path d="M33.9785 57.063V57.4455H31.7771V54.3853H33.9242V54.7678H32.2119V55.6968H33.7339V56.0793H32.2119V57.063H33.9785Z" fill="#383E41"/>
<path d="M36.0711 55.9154C36.0711 55.0137 36.7506 54.3579 37.6746 54.3579C38.1367 54.3579 38.5443 54.5219 38.8433 54.8224L38.5715 55.0957C38.3269 54.8497 38.0551 54.7404 37.7018 54.7404C37.0224 54.7404 36.506 55.2323 36.506 55.9154C36.506 56.5985 37.0224 57.0903 37.7018 57.0903C38.028 57.0903 38.3269 56.981 38.5715 56.7351L38.8433 57.0083C38.5715 57.3362 38.1638 57.5001 37.6746 57.5001C36.7506 57.4728 36.0711 56.817 36.0711 55.9154Z" fill="#383E41"/>
<path d="M41.6699 54.7678H40.6371V54.3853H43.1647V54.7678H42.1319V57.4455H41.6971V54.7678H41.6699Z" fill="#383E41"/>
<path d="M50.1222 57.4455L49.47 56.5165C49.4156 56.5165 49.3341 56.5165 49.2797 56.5165H48.5187V57.4455H48.0839V54.3853H49.2797C50.0679 54.3853 50.5571 54.7951 50.5571 55.4509C50.5571 55.9154 50.3125 56.2706 49.8776 56.4072L50.6115 57.4455H50.1222ZM50.1222 55.4509C50.1222 55.0137 49.8233 54.7678 49.2797 54.7678H48.5459V56.134H49.2797C49.8233 56.134 50.1222 55.8881 50.1222 55.4509Z" fill="#383E41"/>
<path d="M55.0959 57.063V57.4455H52.8945V54.3853H55.0415V54.7678H53.3293V55.6968H54.8513V56.0793H53.3293V57.063H55.0959Z" fill="#383E41"/>
<path d="M57.1885 57.0903L57.3516 56.7624C57.569 56.981 57.9767 57.1176 58.3572 57.1176C58.8736 57.1176 59.1181 56.899 59.1181 56.6531C59.1181 55.9154 57.27 56.3799 57.27 55.2323C57.27 54.7678 57.6234 54.3579 58.4387 54.3579C58.792 54.3579 59.1725 54.4672 59.4171 54.6311L59.2812 54.9864C59.0094 54.8224 58.7105 54.7404 58.4387 54.7404C57.9223 54.7404 57.7049 54.959 57.7049 55.2323C57.7049 55.97 59.553 55.5055 59.553 56.6258C59.553 57.0903 59.1725 57.5001 58.3843 57.5001C57.868 57.4728 57.4331 57.3362 57.1885 57.0903Z" fill="#383E41"/>
<path d="M61.8088 54.3853H62.2437V57.4455H61.8088V54.3853Z" fill="#383E41"/>
<path d="M64.7984 54.3853H66.0758C67.0542 54.3853 67.7336 55.0137 67.7336 55.9154C67.7336 56.8171 67.0814 57.4455 66.0758 57.4455H64.7984V54.3853ZM66.0486 57.063C66.8096 57.063 67.2716 56.5985 67.2716 55.9154C67.2716 55.2323 66.7824 54.7678 66.0486 54.7678H65.2333V57.063H66.0486Z" fill="#383E41"/>
<path d="M72.2452 57.063V57.4455H70.0438V54.3853H72.1909V54.7678H70.4787V55.6968H72.0006V56.0793H70.4787V57.063H72.2452Z" fill="#383E41"/>
<path d="M77.2187 54.3853V57.4455H76.8654L75.0445 55.1503V57.4455H74.6096V54.3853H74.963L76.7839 56.6804V54.3853H77.2187Z" fill="#383E41"/>
<path d="M79.5289 55.9154C79.5289 55.0137 80.2083 54.3579 81.1324 54.3579C81.5944 54.3579 82.0021 54.5219 82.3011 54.8224L82.0293 55.0957C81.7847 54.8497 81.5129 54.7404 81.1596 54.7404C80.4801 54.7404 79.9638 55.2323 79.9638 55.9154C79.9638 56.5985 80.4801 57.0903 81.1596 57.0903C81.4857 57.0903 81.7847 56.981 82.0293 56.7351L82.3011 57.0083C82.0293 57.3362 81.6216 57.5001 81.1324 57.5001C80.2083 57.4728 79.5289 56.817 79.5289 55.9154Z" fill="#383E41"/>
<path d="M86.7853 57.063V57.4455H84.5839V54.3853H86.731V54.7678H85.0188V55.6968H86.5407V56.0793H85.0188V57.063H86.7853Z" fill="#383E41"/>
</svg>
