<svg width="60" height="82" viewBox="0 0 60 82" fill="none" xmlns="http://www.w3.org/2000/svg">
<path fill-rule="evenodd" clip-rule="evenodd" d="M29.8592 81.75C40.2817 69.7026 60 47.0421 60 30.4053C60 13.7684 46.4789 0 29.8592 0C13.5211 0 0 13.7684 0 30.4053C0 47.0421 19.7183 69.7026 29.8592 81.75Z" fill="#383E41"/>
<circle cx="30" cy="30" r="24" fill="white"/>
<path d="M27.044 27.2993H23.3379C22.8263 27.2993 22.4116 27.7022 22.4116 28.1992C22.4116 28.6963 22.8263 29.0992 23.3379 29.0992H27.044C27.5556 29.0992 27.9704 28.6963 27.9704 28.1992C27.9708 27.7022 27.5556 27.2993 27.044 27.2993Z" fill="#383E41"/>
<path d="M27.044 30.8994H23.3379C22.8263 30.8994 22.4116 31.3023 22.4116 31.7993C22.4116 32.2964 22.8263 32.6993 23.3379 32.6993H27.044C27.5556 32.6993 27.9704 32.2964 27.9704 31.7993C27.9704 31.3023 27.5556 30.8994 27.044 30.8994Z" fill="#383E41"/>
<path d="M27.044 34.5H23.3379C22.8263 34.5 22.4116 34.9029 22.4116 35.3999C22.4116 35.897 22.8263 36.2998 23.3379 36.2998H27.044C27.5556 36.2998 27.9704 35.897 27.9704 35.3999C27.9708 34.9029 27.5556 34.5 27.044 34.5Z" fill="#383E41"/>
<path d="M45.5736 27.3H42.7944V24.5998C42.7944 24.1027 42.3797 23.6998 41.8681 23.6998H39.0884V17.3999C39.0884 16.9029 38.6737 16.5 38.162 16.5C34.3788 16.5 31.1858 20.0369 30.1663 24.8822C29.3424 24.1505 28.2489 23.6998 27.0444 23.6998H19.6324C19.1208 23.6998 18.706 24.1027 18.706 24.5998V27.3H15.9264C15.4147 27.3 15 27.7029 15 28.1999V42.6001C15 43.0971 15.4147 43.5 15.9264 43.5H27.044C27.5556 43.5 27.9704 43.0971 27.9704 42.6001C27.9704 42.103 27.5556 41.7001 27.044 41.7001H16.8532V29.0998H18.706V38.9999C18.706 39.4969 19.1208 39.8998 19.6324 39.8998H27.044C28.5789 39.8998 29.8231 41.1085 29.8231 42.6001C29.8231 43.0971 30.2379 43.5 30.7495 43.5C31.2612 43.5 31.6759 43.0971 31.6759 42.6001C31.6759 41.109 32.9202 39.8998 34.4551 39.8998H41.8676C42.3792 39.8998 42.794 39.4969 42.794 38.9999V29.0998H44.6467V41.6997H34.456C33.9444 41.6997 33.5296 42.1026 33.5296 42.5996C33.5296 43.0966 33.9444 43.4995 34.456 43.4995H45.5736C46.0853 43.4995 46.5 43.0966 46.5 42.5996V28.1999C46.5 27.7029 46.0853 27.3 45.5736 27.3ZM37.2352 18.4022V30.9734C34.9943 31.3212 33.0222 32.9142 31.6764 35.2488V28.1999C31.6764 23.2124 34.0928 19.0884 37.2352 18.4022ZM27.044 38.0995H20.5588V25.4997H27.044C28.5789 25.4997 29.8231 26.7084 29.8231 28.1999V39.0058C29.0489 38.4397 28.0883 38.0995 27.044 38.0995ZM34.456 38.0995C33.6406 38.0995 32.8757 38.3055 32.2105 38.6648C32.5349 37.5229 32.9955 36.4925 33.5619 35.6221C33.6644 36.0109 34.0244 36.2992 34.4565 36.2992H38.1625C38.6741 36.2992 39.0889 35.8963 39.0889 35.3993C39.0889 34.9023 38.6741 34.4994 38.1625 34.4994H34.4565C34.4485 34.4994 34.4415 34.5012 34.4335 34.5017C35.4887 33.3675 36.7736 32.6995 38.162 32.6995C38.6737 32.6995 39.0884 32.2966 39.0884 31.7996V25.4997H40.9412V38.0995H34.456Z" fill="#383E41"/>
</svg>
