<svg width="60" height="82" viewBox="0 0 60 82" fill="none" xmlns="http://www.w3.org/2000/svg">
<path fill-rule="evenodd" clip-rule="evenodd" d="M29.8592 81.75C40.2817 69.7026 60 47.0421 60 30.4053C60 13.7684 46.4789 0 29.8592 0C13.5211 0 0 13.7684 0 30.4053C0 47.0421 19.7183 69.7026 29.8592 81.75Z" fill="#383E41"/>
<circle cx="30" cy="30" r="24" fill="white"/>
<path d="M42.4678 27.9968H23.7406C23.5744 27.9968 23.4151 27.9308 23.2977 27.8134C23.1802 27.6959 23.1142 27.5366 23.1142 27.3705C23.1142 27.2044 23.1802 27.045 23.2977 26.9276C23.4151 26.8101 23.5744 26.7441 23.7406 26.7441H42.4678C42.6339 26.7441 42.7933 26.8101 42.9107 26.9276C43.0282 27.045 43.0942 27.2044 43.0942 27.3705C43.0942 27.5366 43.0282 27.6959 42.9107 27.8134C42.7933 27.9308 42.6339 27.9968 42.4678 27.9968Z" fill="#383E41" stroke="#383E41" stroke-width="0.5"/>
<path d="M41.4782 31.7561H24.4796C24.3135 31.7561 24.1541 31.6901 24.0367 31.5726C23.9192 31.4552 23.8532 31.2959 23.8532 31.1297C23.8532 30.9636 23.9192 30.8043 24.0367 30.6869C24.1541 30.5694 24.3135 30.5034 24.4796 30.5034H41.4782C41.6443 30.5034 41.8036 30.5694 41.9211 30.6869C42.0385 30.8043 42.1045 30.9636 42.1045 31.1297C42.1045 31.2959 42.0385 31.4552 41.9211 31.5726C41.8036 31.6901 41.6443 31.7561 41.4782 31.7561Z" fill="#383E41" stroke="#383E41" stroke-width="0.5"/>
<path d="M40.4948 35.5137H25.2186C25.0712 35.5163 24.9276 35.4669 24.813 35.3741C24.6984 35.2813 24.6203 35.1511 24.5923 35.0063L22.5004 24.3587C22.4826 24.2671 22.4856 24.1727 22.509 24.0824C22.5324 23.9921 22.5757 23.9081 22.6357 23.8367C22.6958 23.7652 22.771 23.7081 22.856 23.6695C22.9409 23.6308 23.0334 23.6117 23.1267 23.6134H41.4656C41.7769 23.6126 42.0841 23.6834 42.3636 23.8204C42.6431 23.9573 42.8873 24.1567 43.0774 24.4031C43.2675 24.6495 43.3984 24.9364 43.46 25.2415C43.5215 25.5465 43.512 25.8617 43.4323 26.1625L41.0961 35.0439C41.0616 35.1775 40.984 35.296 40.8752 35.3809C40.7665 35.4659 40.6328 35.5125 40.4948 35.5137ZM25.7385 34.261H40.0125L42.2235 25.8431C42.2531 25.7275 42.2559 25.6067 42.2316 25.4899C42.2074 25.3731 42.1568 25.2634 42.0837 25.1691C42.0106 25.0749 41.9169 24.9985 41.8097 24.946C41.7026 24.8935 41.5849 24.8661 41.4656 24.866H23.8845L25.7385 34.261Z" fill="#383E41" stroke="#383E41" stroke-width="0.5"/>
<path d="M37.9332 38.6451H24.2103C23.6289 38.6451 23.0713 38.4141 22.6602 38.003C22.2491 37.5919 22.0181 37.0343 22.0181 36.4529C22.0181 35.8715 22.2491 35.3139 22.6602 34.9028C23.0713 34.4917 23.6289 34.2607 24.2103 34.2607H25.4066C25.5727 34.2607 25.732 34.3267 25.8495 34.4442C25.9669 34.5616 26.0329 34.721 26.0329 34.8871C26.0329 35.0532 25.9669 35.2125 25.8495 35.33C25.732 35.4474 25.5727 35.5134 25.4066 35.5134H24.2103C23.9611 35.5134 23.7221 35.6124 23.546 35.7886C23.3698 35.9648 23.2708 36.2037 23.2708 36.4529C23.2708 36.7021 23.3698 36.941 23.546 37.1172C23.7221 37.2934 23.9611 37.3924 24.2103 37.3924H37.9332C38.0993 37.3924 38.2586 37.4584 38.3761 37.5758C38.4935 37.6933 38.5595 37.8526 38.5595 38.0187C38.5595 38.1848 38.4935 38.3441 38.3761 38.4616C38.2586 38.5791 38.0993 38.6451 37.9332 38.6451Z" fill="#383E41" stroke="#383E41" stroke-width="0.5"/>
<path d="M26.659 42.4032C26.1635 42.4032 25.6791 42.2563 25.2671 41.981C24.8551 41.7057 24.534 41.3144 24.3444 40.8566C24.1548 40.3989 24.1052 39.8951 24.2018 39.4091C24.2985 38.9232 24.5371 38.4767 24.8875 38.1264C25.2379 37.776 25.6843 37.5374 26.1702 37.4407C26.6562 37.344 27.16 37.3937 27.6178 37.5833C28.0755 37.7729 28.4668 38.094 28.7421 38.506C29.0174 38.918 29.1643 39.4024 29.1643 39.8979C29.1643 40.5624 28.9004 41.1996 28.4305 41.6694C27.9607 42.1393 27.3235 42.4032 26.659 42.4032ZM26.659 38.6452C26.4113 38.6452 26.1691 38.7187 25.9631 38.8564C25.7571 38.994 25.5965 39.1896 25.5017 39.4185C25.4069 39.6474 25.3821 39.8993 25.4304 40.1423C25.4788 40.3853 25.5981 40.6085 25.7732 40.7837C25.9484 40.9589 26.1716 41.0782 26.4146 41.1265C26.6576 41.1748 26.9095 41.15 27.1384 41.0552C27.3673 40.9604 27.5629 40.7998 27.7006 40.5938C27.8382 40.3878 27.9117 40.1457 27.9117 39.8979C27.9117 39.5657 27.7797 39.2471 27.5448 39.0121C27.3099 38.7772 26.9912 38.6452 26.659 38.6452Z" fill="#383E41" stroke="#383E41" stroke-width="0.5"/>
<path d="M37.933 42.4032C37.4375 42.4032 36.9531 42.2563 36.5411 41.981C36.1291 41.7057 35.808 41.3144 35.6184 40.8566C35.4288 40.3989 35.3792 39.8951 35.4758 39.4091C35.5725 38.9232 35.8111 38.4767 36.1615 38.1264C36.5119 37.776 36.9583 37.5374 37.4443 37.4407C37.9302 37.344 38.434 37.3937 38.8918 37.5833C39.3496 37.7729 39.7408 38.094 40.0161 38.506C40.2914 38.918 40.4383 39.4024 40.4383 39.8979C40.4383 40.5624 40.1744 41.1996 39.7046 41.6694C39.2347 42.1393 38.5975 42.4032 37.933 42.4032ZM37.933 38.6452C37.6853 38.6452 37.4431 38.7187 37.2371 38.8564C37.0311 38.994 36.8705 39.1896 36.7757 39.4185C36.6809 39.6474 36.6561 39.8993 36.7044 40.1423C36.7528 40.3853 36.8721 40.6085 37.0473 40.7837C37.2224 40.9589 37.4457 41.0782 37.6886 41.1265C37.9316 41.1748 38.1835 41.15 38.4124 41.0552C38.6413 40.9604 38.8369 40.7998 38.9746 40.5938C39.1122 40.3878 39.1857 40.1457 39.1857 39.8979C39.1857 39.5657 39.0537 39.2471 38.8188 39.0121C38.5839 38.7772 38.2653 38.6452 37.933 38.6452Z" fill="#383E41" stroke="#383E41" stroke-width="0.5"/>
<path d="M32.9226 35.5136C32.7565 35.5136 32.5971 35.4476 32.4797 35.3301C32.3622 35.2126 32.2962 35.0533 32.2962 34.8872V24.2396C32.2962 24.0735 32.3622 23.9142 32.4797 23.7967C32.5971 23.6793 32.7565 23.6133 32.9226 23.6133C33.0887 23.6133 33.248 23.6793 33.3654 23.7967C33.4829 23.9142 33.5489 24.0735 33.5489 24.2396V34.8872C33.5489 35.0533 33.4829 35.2126 33.3654 35.3301C33.248 35.4476 33.0887 35.5136 32.9226 35.5136Z" fill="#383E41" stroke="#383E41" stroke-width="0.5"/>
<path d="M29.4839 35.3819C29.3374 35.3849 29.1945 35.3363 29.08 35.2448C28.9656 35.1532 28.8869 35.0244 28.8576 34.8808L26.7594 24.3648C26.727 24.1986 26.7619 24.0265 26.8565 23.8861C26.951 23.7457 27.0975 23.6487 27.2636 23.6163C27.4297 23.5839 27.6019 23.6188 27.7422 23.7134C27.8826 23.8079 27.9797 23.9544 28.012 24.1205L30.1228 34.6366C30.1393 34.7172 30.1397 34.8002 30.124 34.881C30.1084 34.9618 30.077 35.0387 30.0316 35.1073C29.9863 35.1759 29.9278 35.235 29.8596 35.281C29.7914 35.3271 29.7149 35.3592 29.6342 35.3756L29.4839 35.3819Z" fill="#383E41" stroke="#383E41" stroke-width="0.5"/>
<path d="M36.5174 35.3823H36.3922C36.3116 35.3659 36.235 35.3337 36.1668 35.2877C36.0986 35.2416 36.0402 35.1826 35.9948 35.114C35.9494 35.0454 35.918 34.9685 35.9024 34.8877C35.8867 34.8069 35.8872 34.7238 35.9036 34.6432L38.0081 24.1146C38.0405 23.9485 38.1375 23.8021 38.2779 23.7075C38.4183 23.613 38.5905 23.578 38.7566 23.6104C38.9227 23.6428 39.0691 23.7399 39.1637 23.8802C39.2582 24.0206 39.2932 24.1928 39.2608 24.3589L37.1312 34.8875C37.1011 35.0278 37.0237 35.1535 36.912 35.2436C36.8002 35.3337 36.661 35.3826 36.5174 35.3823Z" fill="#383E41" stroke="#383E41" stroke-width="0.5"/>
<path d="M23.0515 24.5589C22.904 24.5616 22.7604 24.5122 22.6458 24.4194C22.5313 24.3266 22.4531 24.1963 22.4251 24.0516L21.2539 18.0388C21.2166 17.8474 21.1149 17.6746 20.9655 17.5492C20.8162 17.4238 20.6284 17.3534 20.4334 17.3498H16.6378C16.4717 17.3498 16.3124 17.2838 16.195 17.1664C16.0775 17.0489 16.0115 16.8896 16.0115 16.7235C16.0115 16.5574 16.0775 16.3981 16.195 16.2806C16.3124 16.1632 16.4717 16.0972 16.6378 16.0972H20.4334C20.9202 16.0981 21.3916 16.2678 21.7673 16.5773C22.143 16.8868 22.3999 17.3169 22.494 17.7945L23.6653 23.8136C23.6965 23.9763 23.662 24.1448 23.5693 24.2822C23.4765 24.4195 23.3331 24.5145 23.1705 24.5464L23.0515 24.5589Z" fill="#383E41" stroke="#383E41" stroke-width="0.5"/>
</svg>
