<svg width="60" height="82" viewBox="0 0 60 82" fill="none" xmlns="http://www.w3.org/2000/svg">
<path fill-rule="evenodd" clip-rule="evenodd" d="M29.8592 81.75C40.2817 69.7026 60 47.0421 60 30.4053C60 13.7684 46.4789 0 29.8592 0C13.5211 0 0 13.7684 0 30.4053C0 47.0421 19.7183 69.7026 29.8592 81.75Z" fill="#383E41"/>
<circle cx="29.9999" cy="30.0044" r="24" fill="white"/>
<path d="M42.3309 24.1364L40.715 22.5205L42.3309 20.9045C42.6284 20.607 42.6284 20.1247 42.3309 19.8272L40.1763 17.6727C39.8791 17.3754 39.3965 17.3752 39.099 17.6727L37.483 19.2886L35.8671 17.6727C34.9761 16.7816 33.5262 16.7817 32.6353 17.6727L32.0049 18.303C31.1607 17.8988 30.1108 18.0426 29.4034 18.75L28.3261 19.8272C28.0288 20.1244 28.0285 20.6071 28.3261 20.9045L32.0966 24.6751L24.6706 32.1012L20.9 28.3307C20.6027 28.0334 20.1201 28.0332 19.8227 28.3307L18.7455 29.4079C18.0432 30.1101 17.8949 31.1592 18.2995 32.0085L17.6682 32.6398C16.7771 33.5308 16.7771 34.9807 17.6682 35.8717L19.2841 37.4877L17.6682 39.1036C17.3706 39.4011 17.3706 39.8834 17.6682 40.1809L19.8227 42.3355C20.12 42.6328 20.6026 42.633 20.9 42.3355L22.516 40.7196L24.132 42.3356C25.023 43.2265 26.4728 43.2265 27.3638 42.3356L27.9942 41.7053C28.8385 42.1094 29.8884 41.9657 30.5957 41.2583L31.6731 40.181C31.9703 39.8837 31.9705 39.4012 31.6731 39.1037L27.9025 35.3331L35.3286 27.9071L39.0991 31.6776C39.3964 31.9749 39.879 31.975 40.1764 31.6776L41.2537 30.6003C41.956 29.8981 42.1043 28.849 41.6997 27.9997L42.331 27.3684C43.222 26.4772 43.222 25.0275 42.3309 24.1364ZM39.6378 19.2886L40.7151 20.3659L39.6378 21.4433L38.5604 20.366L39.6378 19.2886ZM20.3614 40.7195L19.2841 39.6422L20.3614 38.5649L21.4387 39.6422L20.3614 40.7195ZM26.2865 41.2581C25.9895 41.5552 25.5063 41.5551 25.2092 41.2582L18.7455 34.7944C18.4484 34.4974 18.4484 34.0141 18.7455 33.7171L19.2841 33.1785L26.8252 40.7195L26.2865 41.2581ZM30.0571 39.6423L29.5184 40.1809C29.2206 40.4787 28.7389 40.4787 28.4411 40.1809L19.8228 31.5626C19.525 31.2648 19.525 30.783 19.8228 30.4853L20.3614 29.9466C20.6967 30.282 29.8882 39.4734 30.0571 39.6423ZM26.8252 34.2558L25.7479 33.1785L33.1739 25.7524L34.2512 26.8297L26.8252 34.2558ZM40.1763 29.5229L39.6377 30.0616L33.7127 24.1365L33.7126 24.1365L33.7126 24.1364L29.9421 20.366L30.4807 19.8273C30.7784 19.5297 31.2602 19.5295 31.558 19.8273L40.1764 28.4457C40.4741 28.7434 40.4741 29.2252 40.1763 29.5229ZM41.2536 26.291L40.715 26.8297L33.1739 19.2886L33.7126 18.75C34.0097 18.453 34.4928 18.453 34.7899 18.75L41.2536 25.2137C41.5507 25.5107 41.5507 25.9941 41.2536 26.291Z" fill="#383E41"/>
</svg>
