<svg width="60" height="82" viewBox="0 0 60 82" fill="none" xmlns="http://www.w3.org/2000/svg">
<path fill-rule="evenodd" clip-rule="evenodd" d="M29.8592 81.75C40.2817 69.7026 60 47.0421 60 30.4053C60 13.7684 46.4789 0 29.8592 0C13.5211 0 0 13.7684 0 30.4053C0 47.0421 19.7183 69.7026 29.8592 81.75Z" fill="#383E41"/>
<circle cx="30" cy="30" r="24" fill="white"/>
<path d="M44.4176 25.5825L29.8852 19.0825C29.6395 18.9725 29.3606 18.9725 29.1148 19.0825L14.5825 25.5825C13.8059 25.9298 13.8058 27.0702 14.5825 27.4175L19.8118 29.7565V36C19.8118 39.3645 24.0673 42 29.5 42C34.9327 42 39.1882 39.3645 39.1882 36V29.7565L40.1571 29.3232V40C40.1571 40.5522 40.5908 41 41.1259 41C41.6609 41 42.0947 40.5522 42.0947 40V28.4565L44.4176 27.4176C45.1941 27.0703 45.1942 25.9298 44.4176 25.5825V25.5825ZM29.5 21.0898L41.5957 26.5L40.6364 26.9291L29.6201 25.5077C29.0892 25.4397 28.605 25.828 28.5386 26.376C28.4723 26.924 28.8489 27.4238 29.3798 27.4923L37.139 28.4934L29.5 31.9102C22.6664 28.8536 24.1218 29.5046 17.4043 26.5L29.5 21.0898ZM37.2506 36C37.2506 36.9422 36.5014 37.9123 35.1951 38.6614C32.0839 40.4454 26.9252 40.4507 23.805 38.6614C22.4986 37.9123 21.7494 36.9422 21.7494 36V30.6232L29.1148 33.9176C29.3601 34.0274 29.639 34.0277 29.8852 33.9176L37.2506 30.6232V36Z" fill="#383E41"/>
</svg>
