<svg width="60" height="82" fill="none" xmlns="http://www.w3.org/2000/svg"><path fill-rule="evenodd" clip-rule="evenodd" d="M29.86 81.75C40.281 69.703 60 47.042 60 30.405S46.479 0 29.86 0C13.52 0 0 13.768 0 30.405S19.718 69.703 29.86 81.75z" fill="#383E41"/><circle cx="30" cy="30.004" r="24" fill="#fff"/><path d="M40.493 26.955c.775 0 1.405-.63 1.405-1.406v-1.82a1.4 1.4 0 00-.88-1.304l-10.542-4.31a1.4 1.4 0 00-1.049-.002l-10.546 4.312A1.399 1.399 0 0018 23.729v1.82c0 .776.63 1.406 1.406 1.406h.843v10.59h-.843c-.775 0-1.406.631-1.406 1.406v1.64c0 .776.63 1.406 1.406 1.406h21.087c.775 0 1.405-.63 1.405-1.406v-1.64c0-.775-.63-1.406-1.405-1.406h-.844v-10.59h.844zm0 11.996c0 1.678.004 1.64 0 1.64H19.406v-1.64h21.087zm-18.838-1.406v-10.59h1.593v10.59h-1.593zm3 0v-10.59h3.092v10.59h-3.093zm4.498 0v-10.59h1.593v10.59h-1.593zm2.999 0v-10.59h3.092v10.59h-3.092zm4.498 0v-10.59h1.593v10.59H36.65zM19.406 25.55c0-1.96-.002-1.82.005-1.822l10.538-4.309 10.539 4.31c.007.002.005-.135.005 1.821H19.406z" fill="#383E41"/><path d="M29.95 21.05a.703.703 0 00-.704.704v1.5a.703.703 0 001.406 0v-1.5a.703.703 0 00-.703-.703z" fill="#383E41"/></svg>