<svg width="60" height="82" fill="none" xmlns="http://www.w3.org/2000/svg"><path fill-rule="evenodd" clip-rule="evenodd" d="M29.86 81.75C40.281 69.703 60 47.042 60 30.405S46.479 0 29.86 0C13.52 0 0 13.768 0 30.405S19.718 69.703 29.86 81.75z" fill="#383E41"/><circle cx="30" cy="30" r="24" fill="#fff"/><path d="M42.29 25.382a2.536 2.536 0 00-2.48-.112l-3.11 1.555V26.5a2.553 2.553 0 00-2.55-2.55h-1.175a3.379 3.379 0 001.175-2.55c0-1.874-1.525-3.4-3.4-3.4a3.404 3.404 0 00-3.4 3.4c0 1.02.461 1.927 1.175 2.55h-2.35a3.379 3.379 0 001.175-2.55c0-1.874-1.525-3.4-3.4-3.4a3.404 3.404 0 00-3.4 3.4c0 1.02.461 1.927 1.175 2.55H20.55A2.553 2.553 0 0018 26.5v6.8a2.553 2.553 0 002.55 2.55h4.332l-4.997 6.27a.85.85 0 001.33 1.06l5.598-7.025c.312-.393.762-.393 1.074 0l5.598 7.025a.849.849 0 001.195.135.85.85 0 00.135-1.194l-4.997-6.27h4.332a2.553 2.553 0 002.55-2.55v-.325l3.11 1.555a2.544 2.544 0 002.48-.112 2.535 2.535 0 001.21-2.17v-4.698c0-.89-.452-1.7-1.21-2.169zm-11.54-5.681c.937 0 1.7.762 1.7 1.7 0 .937-.763 1.7-1.7 1.7-.937 0-1.7-.763-1.7-1.7 0-.938.763-1.7 1.7-1.7zm-6.8 0c.937 0 1.7.762 1.7 1.7 0 .937-.763 1.7-1.7 1.7-.937 0-1.7-.763-1.7-1.7 0-.938.763-1.7 1.7-1.7zM35 33.3a.85.85 0 01-.85.85h-13.6a.85.85 0 01-.85-.85v-6.8a.85.85 0 01.85-.85h13.6a.85.85 0 01.85.85v6.8zm6.8-1.051a.837.837 0 01-.403.723.836.836 0 01-.827.037l-3.87-1.935v-2.35l3.87-1.934a.838.838 0 01.827.037.839.839 0 01.403.723v4.699z" fill="#383E41" stroke="#383E41" stroke-width=".5"/></svg>