<svg width="60" height="82" fill="none" xmlns="http://www.w3.org/2000/svg"><path fill-rule="evenodd" clip-rule="evenodd" d="M29.86 81.751C40.281 69.704 60 47.044 60 30.407S46.479 0 29.86 0C13.52.001 0 13.77 0 30.407S19.718 69.704 29.86 81.75z" fill="#383E41"/><circle cx="30" cy="30" r="24" fill="#fff"/><path d="M43.451 22.121c-.144-.16-3.56-3.916-7.655-2.93-1.44.347-4.094 2.433-5.352 3.472V20.79a2.166 2.166 0 10-.844 0v1.869c-1.263-1.041-3.906-3.122-5.347-3.468-4.09-.983-7.51 2.77-7.655 2.93a.421.421 0 00.628.563c.031-.034 3.237-3.54 6.83-2.672 1.246.3 3.898 2.366 5.25 3.497-.793.438-1.628.793-2.494 1.059a6.356 6.356 0 01-2.692.357.422.422 0 00-.156.829c.2.031.4.045.603.041a8.467 8.467 0 002.496-.422c.879-.27 1.729-.626 2.537-1.063v6.3l-.41-.085c-1.772-.352-3.052-.608-3.418-1.578-.476-1.267.908-2.05.971-2.085a.422.422 0 10-.403-.741c-.727.394-1.947 1.554-1.357 3.122.44 1.167 1.581 1.578 3.071 1.907-1.437.424-2.441 1.072-2.285 2.644.128 1.301 1.499 2.038 2.807 2.51-.94.344-1.875.935-1.875 2.242 0 1.238 1.089 1.852 2.077 2.221-1.32.622-2.019 1.406-2.019 2.306a.422.422 0 00.844 0c0-.619.72-1.245 1.997-1.748v1.75a.422.422 0 00.844 0V41.34c1.257.5 1.968 1.119 1.968 1.735a.422.422 0 10.844 0c0-.9-.7-1.683-2.019-2.306.988-.37 2.078-.982 2.078-2.22 0-1.307-.936-1.9-1.876-2.243 1.308-.472 2.68-1.208 2.807-2.51.157-1.574-.848-2.222-2.286-2.643 1.49-.329 2.633-.74 3.072-1.907.59-1.568-.63-2.728-1.357-3.122a.422.422 0 00-.403.741c.06.033 1.448.815.97 2.084-.365.97-1.645 1.227-3.416 1.58l-.38.077v-6.3c.81.44 1.662.799 2.543 1.07a8.46 8.46 0 002.496.421c.202.004.403-.01.603-.041a.42.42 0 00-.157-.829 6.322 6.322 0 01-2.692-.356 13.15 13.15 0 01-2.493-1.059c1.35-1.131 4.003-3.198 5.25-3.497 3.59-.872 6.796 2.635 6.828 2.672a.421.421 0 00.627-.563v-.003zM28.7 18.666a1.322 1.322 0 112.645-.005 1.322 1.322 0 01-2.645.005zm-2.09 15.048c-.127-1.273.888-1.616 2.99-2.07v4.114c-1.262-.388-2.887-.996-2.99-2.044zm.935 4.837c0-.997.844-1.34 2.056-1.678v3.287c-1.106-.358-2.056-.769-2.056-1.612v.003zm4.925 0c0 .832-.933 1.244-2.025 1.599v-3.27c1.192.337 2.025.682 2.025 1.668v.003zm.936-4.837c-.102 1.038-1.7 1.646-2.961 2.034V31.65c2.081.452 3.086.798 2.96 2.065v-.001z" fill="#383E41" stroke="#383E41" stroke-width=".5"/><path d="M42.048 22.879a8.509 8.509 0 01-2.284-.355 6.727 6.727 0 01-1.93-1.02.421.421 0 00-.536.653 7.443 7.443 0 002.202 1.17 9.221 9.221 0 002.548.398.422.422 0 000-.843v-.003zm-2.562 1.055a14.4 14.4 0 01-2.794-.337 6.635 6.635 0 01-1.616-.653.422.422 0 10-.45.715 7.306 7.306 0 001.844.753 15.12 15.12 0 002.997.366h.008a.422.422 0 10.008-.844h.003zm-16.735-1.78a.422.422 0 00-.535-.649 6.73 6.73 0 01-1.93 1.022 8.513 8.513 0 01-2.285.355.422.422 0 000 .843 9.228 9.228 0 002.549-.397 7.447 7.447 0 002.201-1.174zm2.803.926a.422.422 0 00-.58-.134 6.64 6.64 0 01-1.617.653c-.918.203-1.854.316-2.794.338a.422.422 0 10.008.843h.008a15.12 15.12 0 002.997-.366 7.306 7.306 0 001.844-.753.422.422 0 00.134-.581z" fill="#383E41" stroke="#383E41" stroke-width=".5"/></svg>