<svg width="60" height="82" fill="none" xmlns="http://www.w3.org/2000/svg"><path fill-rule="evenodd" clip-rule="evenodd" d="M29.86 81.75C40.281 69.703 60 47.042 60 30.405S46.479 0 29.86 0C13.52 0 0 13.768 0 30.405S19.718 69.703 29.86 81.75z" fill="#383E41"/><circle cx="30" cy="30" r="24" fill="#fff"/><path d="M36.981 25.276l-3.694-9.429a.998.998 0 00-1.28-.555l-9.43 3.694a.987.987 0 00-.554 1.281l3.721 9.429a.989.989 0 001.282.555l9.4-3.694a.987.987 0 00.555-1.281zm-10.25 3.893l-3.605-9.173 9.174-3.611 3.605 9.18-9.173 3.604zm1.143 2.024h-10.1a.987.987 0 00-.987.988v10.105c0 .545.442.987.987.987h10.1a.987.987 0 00.987-.987V32.18a.987.987 0 00-.987-.988zm-.122 10.965h-9.856v-9.855h9.856v9.855zm15.036-11.021l-9.761-2.596a1.004 1.004 0 00-1.21.721l-2.595 9.762a.987.987 0 00.698 1.209s0 0 0 0l9.762 2.596a.987.987 0 001.209-.699s0 0 0 0l2.574-9.784a.987.987 0 00-.677-1.209zm-2.934 10.538l-9.528-2.501 2.534-9.523 9.523 2.534-2.529 9.49z" fill="#383E41" stroke="#383E41" stroke-width=".5"/><path d="M32.816 23.867a1.869 1.869 0 00-.394-.51l-2.773-2.923-.327-.355a1.67 1.67 0 00-.272-.227.777.777 0 00-.333-.128.937.937 0 00-.754.3.772.772 0 00-.155.321c-.029.139-.042.28-.04.422v4.453c.012.167.021.294.029.383a.832.832 0 00.05.244c.053.13.16.231.293.277a.555.555 0 00.422 0 .438.438 0 00.294-.277c.041-.213.056-.432.044-.649v-.793l2.191-.86.521.555.239.238c.068.072.144.136.227.189.063.038.133.06.205.067a.555.555 0 00.532-.322.516.516 0 000-.405zm-3.966-.405l-.077-2.518 1.686 1.886-1.609.632zM24.208 36.8a1.33 1.33 0 00.865-1.27 1.39 1.39 0 00-.322-.892 1.422 1.422 0 00-.36-.31 1.534 1.534 0 00-.555-.2 4.392 4.392 0 00-.715-.05H21.28a.744.744 0 00-.555.166.76.76 0 00-.167.555v4.348a.77.77 0 00.161.555.732.732 0 00.56.172h1.77c.258-.009.515-.033.77-.073.21-.024.415-.076.61-.155.275-.114.508-.307.672-.554.167-.262.254-.567.25-.877a1.414 1.414 0 00-1.143-1.414zm-2.468-1.83h.926a2.39 2.39 0 01.948.145c.21.101.334.323.311.554a.716.716 0 01-.1.372.643.643 0 01-.366.316 2.15 2.15 0 01-.677.083h-1.07l.028-1.47zm2.418 3.168c0 .569-.396.854-1.187.854h-1.259l.028-1.686h1.203c.32-.02.639.049.921.2a.7.7 0 01.294.632zm14.975-4.094a2.257 2.257 0 00-.66-.898 2.7 2.7 0 00-1.11-.555 2.86 2.86 0 00-1.109-.083 2.54 2.54 0 00-1.009.35 2.679 2.679 0 00-.804.765 3.605 3.605 0 00-.516 1.153 3.933 3.933 0 00-.133.805c-.014.254.002.51.05.76.044.237.12.468.222.687a2.291 2.291 0 001.009 1.048c.249.13.51.23.782.3.348.1.712.128 1.07.083.303-.046.592-.156.85-.322.212-.132.4-.301.554-.499.131-.163.227-.352.283-.554a.482.482 0 00-.05-.389.494.494 0 00-.31-.233.422.422 0 00-.384.05 1.252 1.252 0 00-.271.31 1.52 1.52 0 01-.7.556 1.43 1.43 0 01-.887 0 1.482 1.482 0 01-.704-.35 1.414 1.414 0 01-.344-.782 2.89 2.89 0 01.105-1.11 2.49 2.49 0 01.81-1.436 1.387 1.387 0 011.254-.233c.263.06.5.2.682.4.177.22.3.482.355.76.028.147.079.289.15.421a.47.47 0 00.3.189.45.45 0 00.37-.061.505.505 0 00.228-.305 1.37 1.37 0 00-.083-.827z" fill="#383E41" stroke="#383E41" stroke-width=".5"/></svg>