<svg width="60" height="82" fill="none" xmlns="http://www.w3.org/2000/svg"><path fill-rule="evenodd" clip-rule="evenodd" d="M29.86 81.75C40.281 69.703 60 47.042 60 30.405S46.479 0 29.86 0C13.52 0 0 13.768 0 30.405S19.718 69.703 29.86 81.75z" fill="#383E41"/><circle cx="30" cy="30" r="24" fill="#fff"/><path d="M37.945 22.426a3.718 3.718 0 003.712-3.713A3.716 3.716 0 0037.945 15H22.713A3.718 3.718 0 0019 18.713a3.718 3.718 0 006.224 2.743v15.493h-2.298a.476.476 0 00-.477.477v2.2a2.595 2.595 0 00-1.618 2.402v1.505c0 .261.212.477.477.477h18.045a.476.476 0 00.477-.477v-1.505c0-1.086-.67-2.014-1.618-2.401v-2.202a.476.476 0 00-.477-.476h-2.353V21.404a3.706 3.706 0 002.563 1.022zm.931 19.602v1.028H21.781v-1.028c0-.906.739-1.644 1.644-1.644h13.807c.906 0 1.644.738 1.644 1.644zm-1.618-4.129v1.531H23.4V37.9h13.859zm-2.456-18.39l-.048.016a.475.475 0 00-.326.451V36.95h-2.056V18.713a.478.478 0 00-.954 0v18.236h-2.056V18.713a.478.478 0 00-.954 0v18.236h-2.243V19.973c0-.026-.01-.045-.013-.068-.007-.029-.007-.06-.02-.087a.467.467 0 00-.07-.122c-.004-.003-.004-.007-.007-.013a.467.467 0 00-.367-.184.472.472 0 00-.442.31 2.766 2.766 0 01-5.305-1.096 2.765 2.765 0 012.762-2.762h15.235a2.765 2.765 0 012.762 2.762 2.765 2.765 0 01-5.314 1.063.462.462 0 00-.584-.267z" fill="#383E41" stroke="#383E41" stroke-width=".5"/><path d="M39.066 18.712c0 .62-.503 1.122-1.121 1.122a1.12 1.12 0 01-1.038-.686.478.478 0 00-.622-.258.478.478 0 00-.258.622 2.073 2.073 0 101.915-2.872h-15.23a2.073 2.073 0 000 4.145c.836 0 1.587-.493 1.919-1.26a.476.476 0 00-.874-.377c-.184.415-.59.686-1.044.686a1.122 1.122 0 010-2.243h15.235c.615 0 1.118.503 1.118 1.121z" fill="#383E41" stroke="#383E41" stroke-width=".5"/></svg>