<svg width="100" height="137" fill="none" xmlns="http://www.w3.org/2000/svg"><path fill-rule="evenodd" clip-rule="evenodd" d="M49.765 136.25C67.136 116.171 100 78.403 100 50.675S77.465 0 49.765 0C22.535 0 0 22.947 0 50.675c0 27.728 32.864 65.496 49.765 85.575z" fill="#EFC47F"/><circle cx="50" cy="50" r="40" fill="#fff"/><path d="M13.377 41.543v9.372h5.626v-1.366h-4.321v-8.006h-1.305zm10.355-.137l-3.696 9.482h1.44c.3-.765 2.746-7.323 2.746-7.323l2.745 7.323h1.413l-3.696-9.482h-.952zm23.401 0l-3.697 9.482h1.441c.299-.765 2.745-7.323 2.745-7.323l2.745 7.323h1.413l-3.696-9.482h-.951zM38 46.079l-3.016-4.536h-1.087v9.372h1.332v-6.612l2.391 3.634h.761l2.392-3.634v6.612h1.304v-9.372h-1.032L38 46.079zm20.71 2.049l-4.484-6.585-1.033-.027v9.4h1.332v-6.558l4.43 6.558h1.06v-9.373h-1.304v6.585zm7.502 1.502a3.06 3.06 0 01-2.256-1.01c-.57-.629-.951-1.448-.951-2.377 0-.957.38-1.804.95-2.405a3.058 3.058 0 012.257-1.01c1.358 0 2.473.71 2.962 2.103h1.305c-.517-2.104-2.175-3.443-4.267-3.443-1.25 0-2.365.547-3.18 1.394a4.912 4.912 0 00-1.305 3.36c0 1.312.517 2.487 1.305 3.334a4.359 4.359 0 003.18 1.394c2.147 0 3.804-1.449 4.348-3.58h-1.304c-.463 1.421-1.658 2.24-3.044 2.24zm11.278-4.125h-3.886v-3.962h-1.305v9.372h1.305v-4.071h3.886v4.071h1.332v-9.372H77.49v3.962zm3.343-3.962v9.372h5.599v-1.366h-4.24v-2.65h4.159v-1.367h-4.159V42.91h4.24v-1.366h-5.599z" fill="#383E41"/><path d="M22.265 50.013l-.027.028.597.929.028-.028a2.447 2.447 0 012.772 0l.027.028.598-.93-.027-.027a3.609 3.609 0 00-3.968 0zm26.743-.518a2.447 2.447 0 01-2.772 0l-.027-.028-.598.93.027.027a3.46 3.46 0 001.984.6c.68 0 1.359-.19 1.984-.6l.027-.028-.598-.929-.027.028zm-33.32 5.956c0 .656-.49 1.066-1.278 1.066h-.76v.929h-.436v-3.06h1.196c.816 0 1.278.41 1.278 1.065zm-.435 0c0-.437-.3-.683-.843-.683h-.733v1.367h.733c.571 0 .843-.246.843-.684zm4.947 1.612v.383h-2.23v-3.06h2.148v.382h-1.713v.929h1.522v.382h-1.522v.984H20.2zm4.375.383l-.652-.93h-.952v.93h-.434v-3.06h1.195c.789 0 1.278.41 1.278 1.065 0 .464-.245.82-.68.956l.734 1.039h-.49zm0-1.995c0-.437-.299-.683-.843-.683H23v1.366h.733c.544 0 .843-.246.843-.683zm3.207-.683v1.065h1.522v.383h-1.522v1.23h-.435v-3.06h2.147v.382h-1.712zm6.196 2.295v.383h-2.2v-3.06h2.146v.382h-1.712v.929h1.522v.382h-1.522v.984h1.766zm2.093-1.148c0-.901.68-1.557 1.604-1.557.462 0 .87.164 1.168.464l-.272.274a1.145 1.145 0 00-.87-.356c-.679 0-1.195.492-1.195 1.175 0 .684.516 1.175 1.196 1.175.326 0 .625-.109.87-.355l.271.273c-.272.328-.68.492-1.168.492-.924-.027-1.604-.683-1.604-1.585zm5.599-1.147h-1.033v-.383h2.528v.383h-1.033v2.678h-.435v-2.678h-.027zm8.452 2.678l-.652-.93h-.951v.93h-.435v-3.06h1.196c.788 0 1.277.41 1.277 1.065 0 .464-.245.82-.68.956l.734 1.039h-.489zm0-1.995c0-.437-.299-.683-.842-.683h-.734v1.366h.734c.543 0 .842-.246.842-.683zm4.974 1.612v.383h-2.201v-3.06h2.146v.382H53.33v.929h1.522v.382H53.33v.984h1.767zm2.092.027l.164-.328c.217.219.625.356 1.005.356.517 0 .761-.219.761-.465 0-.738-1.848-.273-1.848-1.42 0-.465.353-.875 1.169-.875.353 0 .733.11.978.273l-.136.355a1.658 1.658 0 00-.842-.246c-.517 0-.734.219-.734.492 0 .738 1.848.273 1.848 1.394 0 .464-.38.874-1.169.874-.516-.027-.95-.164-1.196-.41zm4.621-2.705h.435v3.06h-.435v-3.06zm2.989 0h1.278c.978 0 1.658.629 1.658 1.53 0 .902-.653 1.53-1.658 1.53h-1.278v-3.06zm1.25 2.678c.762 0 1.224-.465 1.224-1.148 0-.683-.49-1.147-1.223-1.147h-.816v2.295h.816zm6.197 0v.383h-2.201v-3.06h2.147v.382h-1.712v.929H72v.382h-1.522v.984h1.766zm4.974-2.678v3.06h-.354l-1.82-2.295v2.296h-.435v-3.06h.353l1.82 2.294v-2.295h.436zm2.31 1.53c0-.901.68-1.557 1.603-1.557.462 0 .87.164 1.17.464l-.273.274a1.145 1.145 0 00-.87-.356c-.679 0-1.195.492-1.195 1.175 0 .684.516 1.175 1.196 1.175.326 0 .625-.109.87-.355l.271.273c-.272.328-.68.492-1.169.492-.924-.027-1.603-.683-1.603-1.585zm7.256 1.148v.383h-2.201v-3.06h2.147v.382h-1.712v.929h1.522v.382h-1.522v.984h1.766z" fill="#383E41"/></svg>