<svg width="60" height="82" fill="none" xmlns="http://www.w3.org/2000/svg"><path fill-rule="evenodd" clip-rule="evenodd" d="M29.86 81.75C40.281 69.703 60 47.042 60 30.405S46.479 0 29.86 0C13.52 0 0 13.768 0 30.405S19.718 69.703 29.86 81.75z" fill="#383E41"/><circle cx="30" cy="30" r="24" fill="#fff"/><path d="M27.044 27.3h-3.706a.913.913 0 00-.926.9c0 .496.414.9.926.9h3.706a.913.913 0 00.926-.9c0-.498-.414-.9-.926-.9zm0 3.6h-3.706a.913.913 0 00-.926.9c0 .496.414.9.926.9h3.706a.913.913 0 00.926-.9c0-.498-.414-.9-.926-.9zm0 3.6h-3.706a.913.913 0 00-.926.9c0 .497.414.9.926.9h3.706a.913.913 0 00.926-.9c0-.497-.414-.9-.926-.9z" fill="#383E41"/><path d="M45.574 27.3h-2.78v-2.7c0-.497-.414-.9-.926-.9h-2.78v-6.3c0-.497-.414-.9-.926-.9-3.783 0-6.976 3.537-7.996 8.382a4.687 4.687 0 00-3.122-1.182h-7.412a.913.913 0 00-.926.9v2.7h-2.78a.913.913 0 00-.926.9v14.4c0 .497.415.9.926.9h11.118a.913.913 0 00.926-.9c0-.497-.414-.9-.926-.9h-10.19V29.1h1.852V39c0 .497.415.9.926.9h7.412c1.535 0 2.78 1.209 2.78 2.7 0 .497.414.9.925.9a.913.913 0 00.927-.9c0-1.491 1.244-2.7 2.78-2.7h7.412a.913.913 0 00.926-.9v-9.9h1.853v12.6H34.456a.913.913 0 00-.926.9c0 .497.414.9.926.9h11.118a.913.913 0 00.926-.9V28.2c0-.497-.415-.9-.926-.9zm-8.339-8.898v12.571c-2.24.348-4.213 1.941-5.559 4.276v-7.05c0-4.987 2.417-9.11 5.56-9.797zM27.044 38.1h-6.485V25.5h6.485c1.535 0 2.78 1.21 2.78 2.7v10.807a4.694 4.694 0 00-2.78-.907zm7.412 0c-.815 0-1.58.207-2.245.566.324-1.142.785-2.172 1.35-3.043a.92.92 0 00.895.677h3.706a.913.913 0 00.927-.9c0-.497-.415-.9-.926-.9h-3.706c-.008 0-.016.002-.023.003 1.055-1.135 2.34-1.803 3.728-1.803a.913.913 0 00.926-.9v-6.3h1.853v12.6h-6.485z" fill="#383E41"/></svg>