<svg width="60" height="82" fill="none" xmlns="http://www.w3.org/2000/svg"><path fill-rule="evenodd" clip-rule="evenodd" d="M29.86 81.75C40.281 69.703 60 47.042 60 30.405S46.479 0 29.86 0C13.52 0 0 13.768 0 30.405S19.718 69.703 29.86 81.75z" fill="#383E41"/><circle cx="30" cy="30" r="24" fill="#fff"/><path d="M42.468 27.997H23.74a.626.626 0 110-1.253h18.727a.626.626 0 110 1.253zm-.99 3.759H24.48a.626.626 0 110-1.253h16.998a.626.626 0 010 1.253z" fill="#383E41" stroke="#383E41" stroke-width=".5"/><path d="M40.495 35.514H25.219a.627.627 0 01-.627-.508L22.5 24.36a.626.626 0 01.627-.746h18.339a2.028 2.028 0 011.966 2.55l-2.336 8.88a.626.626 0 01-.601.47zM25.739 34.26h14.274l2.21-8.418a.782.782 0 00-.757-.977H23.884l1.854 9.395z" fill="#383E41" stroke="#383E41" stroke-width=".5"/><path d="M37.933 38.645H24.21a2.192 2.192 0 010-4.384h1.197a.626.626 0 010 1.252H24.21a.94.94 0 100 1.88h13.723a.627.627 0 010 1.252z" fill="#383E41" stroke="#383E41" stroke-width=".5"/><path d="M26.659 42.403a2.505 2.505 0 110-5.01 2.505 2.505 0 010 5.01zm0-3.758a1.252 1.252 0 100 2.505 1.252 1.252 0 000-2.505zm11.274 3.758a2.505 2.505 0 110-5.01 2.505 2.505 0 010 5.01zm0-3.758a1.252 1.252 0 100 2.505 1.252 1.252 0 000-2.505zm-5.01-3.131a.626.626 0 01-.627-.627V24.24a.626.626 0 011.253 0v10.647a.626.626 0 01-.626.627zm-3.439-.132a.627.627 0 01-.626-.501l-2.099-10.516a.638.638 0 111.253-.244l2.11 10.516a.624.624 0 01-.488.739l-.15.006zm7.033 0h-.125a.627.627 0 01-.488-.739l2.104-10.528a.638.638 0 111.253.244l-2.13 10.529a.626.626 0 01-.614.494zM23.052 24.559a.626.626 0 01-.627-.507l-1.171-6.013a.852.852 0 00-.82-.69h-3.796a.626.626 0 010-1.252h3.795a2.104 2.104 0 012.061 1.697l1.171 6.02a.627.627 0 01-.494.732l-.12.013z" fill="#383E41" stroke="#383E41" stroke-width=".5"/></svg>