<svg width="60" height="82" fill="none" xmlns="http://www.w3.org/2000/svg"><path fill-rule="evenodd" clip-rule="evenodd" d="M29.86 81.75C40.281 69.703 60 47.042 60 30.405S46.479 0 29.86 0C13.52 0 0 13.768 0 30.405S19.718 69.703 29.86 81.75z" fill="#383E41"/><circle cx="30" cy="30.004" r="24" fill="#fff"/><path d="M42.33 24.136l-1.615-1.616 1.616-1.616a.762.762 0 000-1.077l-2.155-2.154a.762.762 0 00-1.077 0l-1.616 1.616-1.616-1.616a2.288 2.288 0 00-3.232 0l-.63.63a2.285 2.285 0 00-2.602.447l-1.077 1.077a.762.762 0 000 1.077l3.77 3.771-7.425 7.426-3.771-3.77a.762.762 0 00-1.077 0l-1.078 1.077a2.289 2.289 0 00-.446 2.6l-.63.632a2.288 2.288 0 000 3.232l1.615 1.616-1.616 1.616a.762.762 0 000 1.077l2.155 2.155a.762.762 0 001.077 0l1.616-1.616 1.616 1.616c.891.89 2.34.89 3.232 0l.63-.63c.845.403 1.894.26 2.602-.448l1.077-1.077a.762.762 0 000-1.077l-3.77-3.77 7.426-7.427 3.77 3.77a.762.762 0 001.077 0l1.078-1.077A2.29 2.29 0 0041.7 28l.631-.632a2.288 2.288 0 000-3.232zm-2.692-4.847l1.077 1.077-1.077 1.077-1.078-1.077 1.078-1.077zM20.36 40.719l-1.077-1.077 1.077-1.077 1.078 1.077-1.078 1.077zm5.925.54a.763.763 0 01-1.077 0l-6.463-6.465a.762.762 0 010-1.077l.538-.538 7.541 7.54-.538.54zm3.771-1.617l-.539.539a.761.761 0 01-1.077 0l-8.618-8.618a.761.761 0 010-1.078l.538-.538 9.696 9.695zm-3.232-5.386l-1.077-1.078 7.426-7.426 1.077 1.078-7.426 7.426zm13.351-4.733l-.538.539-5.925-5.925-3.77-3.771.538-.539a.761.761 0 011.077 0l8.618 8.619a.761.761 0 010 1.077zm1.078-3.232l-.539.539-7.541-7.541.539-.539a.763.763 0 011.077 0l6.464 6.464a.762.762 0 010 1.077z" fill="#383E41"/></svg>