<svg width="60" height="82" fill="none" xmlns="http://www.w3.org/2000/svg"><path fill-rule="evenodd" clip-rule="evenodd" d="M29.86 81.75C40.281 69.703 60 47.042 60 30.405S46.479 0 29.86 0C13.52 0 0 13.768 0 30.405S19.718 69.703 29.86 81.75z" fill="#383E41"/><circle cx="30" cy="30" r="24" fill="#fff"/><path d="M44.418 25.582l-14.533-6.5a.94.94 0 00-.77 0l-14.532 6.5c-.777.348-.777 1.488 0 1.835l5.229 2.34V36c0 3.364 4.255 6 9.688 6 5.433 0 9.688-2.636 9.688-6v-6.244l.97-.433V40c0 .552.433 1 .968 1 .535 0 .969-.448.969-1V28.456l2.323-1.038c.776-.348.776-1.488 0-1.835zM29.5 21.09l12.096 5.41-.96.43-11.016-1.422c-.53-.068-1.015.32-1.081.868-.067.548.31 1.048.84 1.116l7.76 1.001L29.5 31.91 17.404 26.5 29.5 21.09zM37.25 36c0 .942-.749 1.912-2.055 2.661-3.111 1.784-8.27 1.79-11.39 0-1.306-.749-2.056-1.719-2.056-2.661v-5.377l7.366 3.295a.94.94 0 00.77 0l7.366-3.295V36z" fill="#383E41"/></svg>