<svg width="186" height="41" fill="none" xmlns="http://www.w3.org/2000/svg"><path d="M.412.344V23.91h14.223v-3.435H3.71V.344H.412zM26.591 0l-9.345 23.843h3.642c.756-1.924 6.94-18.415 6.94-18.415l6.94 18.415h3.573L28.996 0H26.59zm59.16 0l-9.345 23.843h3.642c.756-1.924 6.94-18.415 6.94-18.415l6.94 18.415H97.5L88.156 0H85.75zM62.664 11.75L55.037.344H52.29V23.91h3.367V7.283l6.046 9.139h1.924l6.047-9.139v16.628h3.298V.344H70.36L62.664 11.75zm52.358 5.153L103.685.343l-2.611-.068V23.91h3.366V7.421l11.2 16.49h2.68V.344h-3.298v16.559zm18.964 3.779c-2.199 0-4.26-.962-5.703-2.542-1.443-1.58-2.405-3.642-2.405-5.978 0-2.405.962-4.535 2.405-6.047 1.443-1.58 3.504-2.542 5.703-2.542 3.435 0 6.253 1.786 7.489 5.29h3.299c-1.306-5.29-5.497-8.657-10.788-8.657-3.161 0-5.978 1.374-8.039 3.504-1.993 2.13-3.298 5.085-3.298 8.452a12.27 12.27 0 003.298 8.382c1.992 2.13 4.878 3.505 8.039 3.505 5.428 0 9.619-3.642 10.994-9.001h-3.298c-1.169 3.573-4.192 5.634-7.696 5.634zm28.515-10.375h-9.826V.344h-3.298V23.91h3.298V13.673h9.826v10.238h3.367V.344h-3.367v9.963zm8.451-9.963V23.91h14.155v-3.435h-10.719V13.81h10.513v-3.436h-10.513V3.78h10.719V.344h-14.155z" fill="#383E41"/><path d="M22.88 21.644l-.068.069 1.512 2.336.068-.069a6.214 6.214 0 017.009 0l.069.069 1.511-2.336-.069-.07c-3.092-1.992-7.008-1.992-10.031 0zm67.612-1.306a6.215 6.215 0 01-7.008 0l-.07-.068-1.51 2.336.068.069c1.512 1.03 3.23 1.511 5.016 1.511 1.718 0 3.435-.48 5.016-1.511l.068-.07-1.511-2.335-.069.068zM6.253 35.317c0 1.65-1.237 2.68-3.23 2.68H1.1v2.336H0v-7.695h3.023c2.062 0 3.23 1.03 3.23 2.68zm-1.1 0c0-1.1-.756-1.718-2.13-1.718H1.168v3.436h1.855c1.443 0 2.13-.618 2.13-1.718zm12.506 4.054v.962h-5.635v-7.695h5.429v.962h-4.33v2.336h3.848v.962h-3.847v2.473h4.535zm11.062.962l-1.649-2.336h-2.405v2.336h-1.1v-7.695h3.024c1.993 0 3.23 1.03 3.23 2.68 0 1.167-.619 2.06-1.718 2.404l1.855 2.611H28.72zm0-5.016c0-1.099-.756-1.717-2.13-1.717h-1.855v3.435h1.855c1.374 0 2.13-.618 2.13-1.718zm8.108-1.717v2.68h3.848v.961h-3.848v3.092h-1.1v-7.695h5.429v.962h-4.329zm15.666 5.771v.962h-5.566v-7.695h5.429v.962h-4.33v2.336h3.849v.962h-3.848v2.473h4.466zm5.291-2.886c0-2.267 1.718-3.916 4.054-3.916 1.168 0 2.198.412 2.954 1.168l-.687.687c-.618-.618-1.305-.893-2.199-.893-1.717 0-3.023 1.237-3.023 2.954 0 1.718 1.306 2.955 3.023 2.955.825 0 1.58-.275 2.2-.893l.686.687c-.687.824-1.717 1.237-2.954 1.237-2.337-.07-4.054-1.718-4.054-3.986zM71.94 33.6h-2.61v-.962h6.39v.962h-2.612v6.733h-1.1V33.6h-.068zm21.37 6.733l-1.65-2.336h-2.405v2.336h-1.1v-7.695h3.024c1.993 0 3.23 1.03 3.23 2.68 0 1.167-.619 2.06-1.718 2.404l1.855 2.611h-1.237zm0-5.016c0-1.099-.757-1.717-2.13-1.717h-1.856v3.435h1.855c1.374 0 2.13-.618 2.13-1.718zm12.573 4.054v.962h-5.565v-7.695h5.428v.962h-4.329v2.336h3.848v.962h-3.848v2.473h4.466zm5.291.069l.412-.825c.55.55 1.581.894 2.543.894 1.305 0 1.923-.55 1.923-1.168 0-1.856-4.672-.688-4.672-3.573 0-1.168.893-2.2 2.955-2.2.893 0 1.855.276 2.473.688l-.343.893c-.687-.412-1.443-.618-2.13-.618-1.306 0-1.856.55-1.856 1.237 0 1.855 4.673.687 4.673 3.504 0 1.168-.962 2.199-2.955 2.199-1.305-.07-2.405-.413-3.023-1.031zm11.681-6.802h1.099v7.695h-1.099v-7.695zm7.558 0h3.229c2.474 0 4.192 1.58 4.192 3.847 0 2.268-1.649 3.848-4.192 3.848h-3.229v-7.695zm3.161 6.733c1.924 0 3.092-1.168 3.092-2.886 0-1.717-1.237-2.885-3.092-2.885h-2.062v5.771h2.062zm15.666 0v.962h-5.566v-7.695h5.428v.962h-4.328v2.336h3.847v.962h-3.847v2.473h4.466zm12.574-6.733v7.695h-.893l-4.604-5.771v5.771h-1.099v-7.695h.893l4.603 5.771v-5.771h1.1zm5.84 3.847c0-2.267 1.718-3.916 4.054-3.916 1.168 0 2.199.412 2.955 1.168l-.687.687c-.619-.618-1.306-.893-2.199-.893-1.718 0-3.023 1.237-3.023 2.954 0 1.718 1.305 2.955 3.023 2.955.824 0 1.58-.275 2.199-.893l.687.687c-.687.824-1.718 1.237-2.955 1.237-2.336-.07-4.054-1.718-4.054-3.986zM186 39.371v.962h-5.566v-7.695h5.429v.962h-4.329v2.336h3.848v.962h-3.848v2.473H186z" fill="#383E41"/></svg>