<svg width="86" height="42" fill="none" xmlns="http://www.w3.org/2000/svg"><path d="M2.731 29.303h-.503v2.678c0 .186-.027.319-.027.451l1.273-.08v.61H.053v-.45c.265 0 .45-.053.583-.133a.68.68 0 00.266-.344c.053-.16.08-.319.08-.53v-7.187c0-.16.026-.319.026-.478L0 23.893v-.61c.477 0 .981-.026 1.512-.026h1.59c1.353 0 2.36.238 3.077.69.742.503 1.114 1.22 1.114 2.174 0 .186-.027.398-.053.636a2.616 2.616 0 01-.266.716 4.141 4.141 0 01-.53.716 3.483 3.483 0 01-.849.61c-.344.16-.769.319-1.246.398-.424.053-.981.106-1.618.106zm-.503-.583c.159.026.318.026.45.053h.451c.398 0 .77-.053 1.114-.186a2.86 2.86 0 00.928-.504 2.09 2.09 0 00.61-.822c.16-.318.239-.69.239-1.087 0-.45-.08-.822-.212-1.114a1.827 1.827 0 00-.584-.742 3.145 3.145 0 00-.901-.425 5.231 5.231 0 00-1.167-.132c-.239 0-.425.026-.557.106a.586.586 0 00-.265.345 1.49 1.49 0 00-.08.53v3.978h-.026zm11.456.132l-4.88.08c0 .53.027 1.008.133 1.458.08.425.212.796.398 1.114.185.318.424.557.715.716.292.16.637.239 1.061.239.212 0 .451-.027.663-.08.239-.053.451-.132.663-.238.212-.106.398-.213.584-.372.185-.132.318-.291.45-.45l.345.265a2.96 2.96 0 01-.663.742 3.486 3.486 0 01-.769.504 2.96 2.96 0 01-.822.265c-.265.053-.53.08-.769.08-.477 0-.928-.08-1.326-.265-.424-.16-.769-.425-1.087-.743A3.936 3.936 0 017.664 31c-.186-.45-.265-.954-.265-1.538 0-.477.08-.954.238-1.405.16-.451.398-.849.716-1.194.319-.344.663-.61 1.114-.822a3.158 3.158 0 011.432-.318c.371 0 .743.053 1.087.186.345.132.637.318.902.557.265.265.45.583.61.954.133.478.186.928.186 1.432zm-2.785-2.519c-.53 0-.981.16-1.352.477-.345.319-.584.822-.69 1.538h3.527a3.24 3.24 0 00-.08-.716 1.705 1.705 0 00-.265-.636 1.635 1.635 0 00-.477-.477c-.159-.133-.398-.186-.663-.186zm7.505.212c-.186 0-.345.027-.53.106a2.17 2.17 0 00-.53.318 2.842 2.842 0 00-.505.478 3.823 3.823 0 00-.424.636l.027 3.421v.504c0 .133-.027.292-.053.45l.875-.052v.557H14.4v-.425c.212 0 .37-.053.477-.132a.808.808 0 00.239-.345c.053-.16.08-.318.08-.53v-4.296c0-.16.026-.292.052-.451l-.981.053v-.557h.424c.186 0 .372 0 .504-.027a2.75 2.75 0 00.318-.08c.08-.026.16-.079.213-.105.053-.053.106-.08.159-.133h.397c.027.133.027.318.027.53 0 .213.026.504.026.823.107-.16.24-.345.398-.53.16-.186.345-.319.557-.478.212-.133.425-.239.663-.345a2.26 2.26 0 01.716-.132c.133 0 .239.026.371.053.133.026.213.08.319.159.08.08.159.159.212.265.053.106.08.239.08.398 0 .053 0 .132-.027.212-.027.08-.053.159-.133.212a.412.412 0 01-.212.16.565.565 0 01-.318.079.604.604 0 01-.292-.08.714.714 0 01-.212-.185 1.07 1.07 0 01-.133-.24c.08-.105.053-.185.08-.29zm6.046-3.421c-.08-.08-.159-.159-.265-.185a1.333 1.333 0 00-.318-.053c-.212 0-.398.053-.53.159a1.55 1.55 0 00-.345.371 3.12 3.12 0 00-.186.53 4.34 4.34 0 00-.053.584v1.458h1.883v.53l-1.883.027.026 4.906v.504c0 .133-.026.292-.052.45l.875-.052v.557h-2.838v-.425c.212 0 .371-.053.477-.132a.808.808 0 00.24-.345c.052-.16.079-.318.079-.53v-.69l-.027-4.243-1.14.027v-.637h1.14v-.291c0-.504.053-.982.133-1.38.08-.397.238-.768.424-1.034.186-.291.45-.503.77-.663.317-.159.715-.238 1.166-.238.159 0 .318.026.477.053.186.026.345.106.478.185.159.08.265.186.37.319a.74.74 0 01.16.477c0 .186-.053.345-.16.45a.577.577 0 01-.424.186.95.95 0 01-.291-.053.476.476 0 01-.186-.132c-.053-.053-.08-.133-.106-.186-.026-.08-.026-.133-.026-.186 0-.052 0-.106.026-.159.053-.026.08-.08.106-.159zm6.895 5.728l-4.88.08c0 .53.027 1.008.133 1.458.08.425.212.796.398 1.114.186.318.424.557.716.716.292.16.636.239 1.06.239.213 0 .452-.027.664-.08.238-.053.45-.132.663-.238.212-.106.397-.213.583-.372.186-.132.318-.291.45-.45l.346.265a2.96 2.96 0 01-.663.742 3.486 3.486 0 01-.77.504 2.96 2.96 0 01-.822.265c-.265.053-.53.08-.768.08-.478 0-.929-.08-1.353-.265-.424-.16-.769-.425-1.087-.743A3.936 3.936 0 0125.299 31c-.186-.45-.265-.954-.265-1.538 0-.477.08-.954.238-1.405.16-.451.398-.849.716-1.194a3.48 3.48 0 011.114-.822 3.159 3.159 0 011.432-.318c.371 0 .743.053 1.087.186.345.132.637.318.902.557.265.265.45.583.61.954.133.478.212.928.212 1.432zm-2.811-2.519c-.53 0-.981.16-1.352.477-.345.319-.584.822-.69 1.538h3.527a3.24 3.24 0 00-.08-.716 1.705 1.705 0 00-.265-.636 1.637 1.637 0 00-.477-.477c-.16-.133-.398-.186-.663-.186zm8.539.743a1.048 1.048 0 00-.265-.398 1.58 1.58 0 00-.398-.239c-.132-.053-.292-.08-.424-.106-.133-.026-.265-.026-.345-.026-.318 0-.61.053-.875.185a2.38 2.38 0 00-.716.557c-.212.239-.345.557-.477.928a4.594 4.594 0 00-.186 1.273c0 .45.053.875.186 1.273.106.398.265.716.477 1.008.212.291.45.504.742.663.292.159.61.238.982.238.212 0 .424-.026.636-.08a1.78 1.78 0 00.61-.264c.186-.107.371-.24.53-.372.16-.132.292-.291.398-.477l.371.265c-.185.292-.397.53-.636.743a3.342 3.342 0 01-.743.504c-.265.132-.53.238-.795.291-.265.053-.504.106-.743.106-.477 0-.901-.08-1.326-.238a3.304 3.304 0 01-1.087-.69 3.563 3.563 0 01-.742-1.114c-.186-.45-.266-.954-.266-1.511a3.758 3.758 0 01.451-1.857 4.16 4.16 0 01.53-.795c.213-.239.451-.45.717-.637.265-.185.556-.318.875-.424a3.207 3.207 0 011.008-.159c.37 0 .742.053 1.06.133.318.106.584.212.822.37.239.16.398.346.53.558.133.212.186.424.186.636a.764.764 0 01-.159.504.583.583 0 01-.477.212c-.133 0-.212-.026-.318-.053-.08-.053-.16-.106-.186-.159a.533.533 0 01-.106-.212c-.027-.08-.027-.133-.027-.212 0-.08.027-.186.053-.292l.133-.132zm1.671-1.061c.238 0 .477-.08.663-.212a2.28 2.28 0 00.53-.478c.16-.185.292-.398.371-.636.106-.239.186-.451.239-.637h.477v1.936h2.334v.53l-2.334.027v3.845c0 .319.027.584.053.849.027.239.08.45.186.61.08.159.186.292.318.371.133.08.292.133.504.133.239 0 .477-.08.716-.212.239-.133.45-.345.637-.61l.37.318c-.211.318-.397.557-.61.716a2.259 2.259 0 01-.583.398c-.185.08-.344.132-.503.159-.16.026-.292.026-.398.026-.133 0-.292 0-.424-.026-.16-.027-.292-.08-.425-.133-.132-.053-.265-.159-.398-.265a1.256 1.256 0 01-.318-.477c-.106-.186-.159-.425-.212-.69a4.945 4.945 0 01-.08-.954l-.053-4.005h-1.06v-.583zM51.208 9.494a.544.544 0 01-.557-.557c0-.318.238-.557.556-.557a.56.56 0 01.557.557.56.56 0 01-.556.557zm-16.336 0a.544.544 0 01-.557-.557c0-.318.239-.557.557-.557a.56.56 0 01.557.557.579.579 0 01-.557.557zM43.04 8.46a.544.544 0 01-.557-.557c0-.319.239-.557.557-.557a.56.56 0 01.557.557.544.544 0 01-.557.556z" fill="#383E41"/><path d="M62.796 6.179c-.132-.186-1.91.239-2.44.159-.45-.16-.689-.663-1.087-.663-.53-.027-.901.318-.901.822 0 .053 0 .133.026.186-.345.928-1.883 1.697-2.864 1.538-1.458-.212-1.75-1.38-2.015-2.334-.133-.45.583-.345.69-.981.079-.53-.213-.981-.929-1.167.371-.106.61-.398.61-.742 0-.425-.08-1.008-.69-1.114-.556-.106-1.14.69-1.14 1.114 0 .265.16.503.398.636-1.06.027-1.856.345-1.777 1.034.027.239.212.451.133.637-.08.185-1.83 1.75-2.997 1.75-1.246 0-3.023-1.591-3.156-2.175-.026 0 .77-.45.85-.928.105-.875-.664-1.538-1.592-1.803a.956.956 0 00.159-.53c0-.53-.45-1.618-.955-1.618h-.106c-.504 0-.954 1.087-.954 1.618 0 .185.053.37.159.53-.928.265-1.698.928-1.591 1.803.053.478.875.928.848.928-.132.584-1.91 2.175-3.156 2.175-1.166 0-2.917-1.565-2.996-1.75-.08-.186.106-.372.133-.637.079-.69-.717-1.007-1.777-1.034a.74.74 0 00.398-.636c0-.425-.584-1.22-1.14-1.114-.61.106-.69.69-.69 1.114 0 .344.265.636.61.742-.716.186-1.008.637-.928 1.167.106.663.822.53.689.981-.265.955-.583 2.122-2.015 2.334-.982.159-2.52-.637-2.865-1.538 0-.053.027-.106.027-.186 0-.504-.371-.849-.902-.822-.397.027-.636.504-1.087.663-.53.08-2.307-.318-2.44-.16 0 0-.132.133-.132.32 0 .132 6.47 5.488 6.974 6.151.478.637 1.087 4.615 1.353 5.437a.794.794 0 00.106.265c.742.928 6.47 1.538 11.376 1.538h.16c4.905 0 10.633-.61 11.376-1.538a.38.38 0 00.106-.265c.265-.822.875-4.8 1.352-5.437.504-.663 6.975-6.02 6.975-6.152-.08-.186-.186-.318-.186-.318zM43.12 19.199h-.159c-5.595 0-9.812-.716-10.687-1.193.557-.53 4.933-1.644 10.687-1.644h.16c5.754 0 10.13 1.114 10.686 1.644-.901.477-5.091 1.194-10.687 1.194zm11.96-6.02c-.159.531-.398 3.448-.69 4.111-.689-.557-5.621-1.803-11.35-1.803h-.052c-5.755 0-10.66 1.246-11.35 1.803-.292-.663-.504-3.606-.69-4.11-.08-.239.08-.451.08-.451.795-1.087 5.807-2.36 11.907-2.36h.159c6.073 0 11.111 1.273 11.907 2.36.026 0 .159.239.08.45zm.716-1.405s-1.246-.53-3.474-1.113c-2.519-.663-6.072-.955-9.255-.955-3.182 0-6.735.398-9.255.955-2.095.45-3.474 1.113-3.474 1.113l-2.519-2.652s2.731.372 4.11-.185c1.38-.557 2.016-3.076 2.016-3.076s3.05 2.333 4.826 2.227c1.804-.106 4.296-3.527 4.296-3.527s2.52 3.421 4.296 3.527c1.777.106 4.827-2.227 4.827-2.227s.663 2.492 2.015 3.076c1.38.557 4.11.185 4.11.185l-2.519 2.652z" fill="#383E41"/><path d="M43.04 11.138c-.849 0-1.538.795-1.538 1.75 0 .981.69 1.75 1.538 1.75.848 0 1.538-.795 1.538-1.75-.027-.955-.69-1.75-1.538-1.75zm6.789 4.269c.69.186 1.458-.318 1.697-1.14.238-.822-.133-1.67-.849-1.856-.69-.186-1.458.318-1.697 1.14-.212.849.16 1.67.849 1.856zm-13.605 0c-.689.186-1.458-.318-1.697-1.14-.238-.822.133-1.67.849-1.856.69-.186 1.458.318 1.697 1.14.239.849-.133 1.67-.849 1.856zm20.791 17.052h-.371c-.16 0-.345.026-.61.08-.265.052-.557.158-.875.265a5.038 5.038 0 01-.477.159c-.16.053-.345.08-.53.106-.187.026-.346.053-.531.08-.186.026-.345.026-.504.026-.69 0-1.326-.106-1.91-.345a4.096 4.096 0 01-1.485-.955 4.374 4.374 0 01-.98-1.538c-.24-.61-.345-1.273-.345-2.042 0-.424.053-.875.132-1.299.08-.424.212-.849.398-1.246a5.66 5.66 0 01.663-1.088c.265-.344.583-.636.928-.875.371-.238.77-.45 1.22-.583.45-.133.955-.212 1.485-.212.239 0 .504.026.769.053.265.026.504.08.769.159.239.053.477.132.716.238.239.107.45.213.637.319l-.054-.663h.77v3.182h-.504a3.284 3.284 0 00-.292-1.167 2.309 2.309 0 00-.636-.848c-.266-.24-.584-.398-.929-.53-.344-.133-.716-.186-1.14-.186-.504 0-.955.106-1.379.318a3.45 3.45 0 00-1.14.928 4.47 4.47 0 00-.77 1.405 5.427 5.427 0 00-.291 1.777c0 .663.08 1.273.265 1.803.186.557.424 1.035.77 1.432a3.29 3.29 0 001.166.929c.45.238.955.344 1.512.344.185 0 .37-.026.583-.053.212-.026.398-.08.61-.132.212-.053.398-.133.61-.212.212-.08.398-.186.583-.319v-3.05l-.98.054v-.61h3.128v.45c-.159 0-.318.027-.424.107-.106.053-.212.159-.292.238a.82.82 0 00-.159.345c-.026.133-.053.239-.08.371-.026.133-.026.239-.026.345v2.44zm5.622-5.887c-.185 0-.345.026-.53.106-.186.08-.371.185-.53.318a2.838 2.838 0 00-.505.477 3.833 3.833 0 00-.424.637l.027 3.42v.505c0 .132-.027.291-.053.45l.875-.053v.557h-2.838v-.424c.212 0 .372-.053.478-.133a.808.808 0 00.238-.344c.053-.16.08-.319.08-.53v-4.297c0-.159.026-.291.053-.45l-.981.052v-.556h.424c.186 0 .371 0 .504-.027s.239-.053.318-.08c.08-.026.16-.08.212-.106.053-.053.106-.08.16-.132h.397c.027.132.027.318.027.53 0 .212.026.504.026.822.106-.159.239-.345.398-.53.16-.186.345-.318.557-.477a5.2 5.2 0 01.663-.345c.239-.08.477-.133.716-.133.132 0 .238.027.371.053.133.027.212.08.318.16.08.079.16.158.212.264.053.107.08.24.08.398 0 .053 0 .133-.026.212-.027.08-.053.16-.133.213a.413.413 0 01-.212.159.566.566 0 01-.319.08.605.605 0 01-.291-.08.715.715 0 01-.212-.186 1.074 1.074 0 01-.133-.239c.053-.106.053-.185.053-.291zm4.614-.769c.478 0 .955.08 1.38.265.424.185.795.424 1.113.742.318.319.557.69.743 1.114.185.424.265.902.265 1.406 0 .53-.08 1.034-.265 1.511a3.763 3.763 0 01-.743 1.22c-.318.345-.69.61-1.114.822-.424.212-.875.292-1.379.292-.477 0-.954-.08-1.379-.265a4.011 4.011 0 01-1.113-.716 3.562 3.562 0 01-.743-1.114c-.186-.424-.265-.902-.265-1.432 0-.557.08-1.06.265-1.538.186-.478.424-.875.743-1.22.318-.345.689-.61 1.113-.822.425-.16.876-.265 1.38-.265zm0 .53c-.37 0-.69.08-.928.239-.265.159-.477.37-.636.663a3.19 3.19 0 00-.371.928c-.08.345-.107.716-.107 1.087 0 .424.053.849.133 1.246.08.398.212.77.398 1.088.185.318.398.557.69.769.264.185.583.291.954.291s.663-.08.928-.238c.239-.16.45-.371.61-.663.16-.265.265-.584.345-.928.08-.345.106-.716.106-1.061 0-.424-.027-.822-.106-1.247a4.37 4.37 0 00-.371-1.087 2.029 2.029 0 00-.637-.769c-.345-.212-.636-.318-1.008-.318zm9.309 1.512c0-.24 0-.425.026-.584 0-.159.026-.318.053-.477l-1.008.053v-.557h.425c.212 0 .37 0 .503-.027.133-.026.266-.052.372-.08.106-.026.185-.079.238-.105.053-.053.133-.08.186-.133h.398l-.027 5.251v.61c0 .133 0 .239-.026.371 0 .133-.027.239-.027.318l1.008-.053v.584h-1.989c-.026-.16-.053-.292-.053-.424-.026-.133-.026-.266-.026-.398a3.45 3.45 0 01-.478.398 6.357 6.357 0 01-.557.344c-.185.106-.398.16-.61.239-.212.053-.424.08-.61.08-.37 0-.716-.054-1.007-.16a1.54 1.54 0 01-.716-.503 2.31 2.31 0 01-.425-.929c-.106-.398-.132-.875-.132-1.432v-2.916c0-.16.026-.293.053-.452l-.955.053v-.556h.424c.186 0 .372 0 .504-.027.133-.026.266-.053.372-.08.106-.026.185-.08.238-.106.053-.053.133-.08.186-.132h.398v4.243c0 .398.026.742.08 1.06.052.292.132.53.264.743.133.186.266.345.478.424a1.836 1.836 0 001.22.053c.159-.053.318-.132.477-.238a2.63 2.63 0 00.424-.345c.133-.133.239-.265.345-.398v-3.712h-.027zm3.076-.159v-.451c0-.16.026-.292.053-.451l-.982.053v-.584c.292 0 .557 0 .743-.026.185-.027.345-.053.45-.08.107-.026.213-.08.266-.106.053-.053.133-.08.159-.132h.398c0 .08.026.185.026.318s.027.265.027.424c.132-.132.292-.238.477-.345.16-.106.345-.185.53-.265.186-.08.372-.132.584-.159.186-.053.398-.053.583-.053.398 0 .796.08 1.167.239.371.159.69.398.981.69.292.291.504.662.663 1.087.16.424.239.901.239 1.458a4.9 4.9 0 01-.133 1.114c-.08.345-.212.663-.37.955-.16.291-.346.556-.558.795-.212.239-.45.424-.716.584-.265.159-.53.291-.848.37-.292.08-.61.133-.902.133a3.15 3.15 0 01-1.67-.45v2.811c0 .132-.027.291-.054.45l.875-.053v.557h-2.837v-.424c.212 0 .371-.053.477-.133a.807.807 0 00.239-.344c.053-.16.08-.319.08-.53 0-.213 0-.425.026-.69l.027-6.762zm2.837-1.194c-.16 0-.318.027-.477.053-.16.053-.292.106-.451.16l-.398.238c-.133.106-.239.186-.318.292v4.853c.239.159.477.318.769.397.265.106.557.133.875.133.318 0 .636-.08.875-.239a1.98 1.98 0 00.663-.663c.186-.291.318-.61.424-1.007.106-.398.16-.822.16-1.273 0-.372-.027-.743-.106-1.088a3.413 3.413 0 00-.372-.954 1.767 1.767 0 00-.663-.663 1.991 1.991 0 00-.981-.239zM61.126 40.388h-.398v-2.413c-.027 0-.027-.027-.053-.027-.053.053-.08.106-.133.16-.61.715-1.379 1.564-1.989 2.28h-.291v-3.182h.397v2.466c.08-.053-.026.026 0 0 .637-.716 1.538-1.724 2.148-2.466h.292c.027 1.06.027 2.121.027 3.182zm-30.364.026a33.54 33.54 0 00-.478-.875h-1.909s-.371.743-.45.875h-.452c.053-.106 1.194-2.28 1.671-3.208h.345c.53 1.007 1.167 2.2 1.697 3.208h-.424zm-.663-1.246a70.503 70.503 0 01-.77-1.432c-.265.504-.503.955-.742 1.432H30.1zm44.949 1.193a33.54 33.54 0 00-.478-.875h-1.909s-.371.743-.45.875h-.451c.053-.106 1.193-2.28 1.67-3.208h.345c.53 1.007 1.167 2.2 1.697 3.208h-.424zm-.663-1.246a69.97 69.97 0 01-.77-1.432c-.264.504-.503.955-.742 1.432h1.512zm-58.209-2.042c.16.053.319.08.478.133.318.132.583.344.795.636l-.318.239c-.636-.716-1.432-.822-2.015-.239-.53.53-.478 1.512.08 1.989.61.53 1.431.345 2.015-.424l.318.238c-.318.584-.796.875-1.459.875-.848 0-1.511-.477-1.67-1.299-.239-1.06.397-1.989 1.379-2.095.026 0 .053-.026.053-.026.106-.027.212-.027.344-.027zm19.73 3.368h-.344v-3.288h.344v3.288zM13.18 38.585c.371.212.557.557.504.981-.053.53-.425.849-.981.849-.716.026-1.406 0-2.149 0v-3.262h.213c.636 0 1.273 0 1.909.026.318 0 .61.133.716.478.106.318.08.663-.212.902.026 0 0 0 0 .026zm-2.201.239v1.22h1.75c.345 0 .53-.24.53-.584 0-.345-.185-.61-.53-.61-.557-.026-1.14-.026-1.75-.026zm0-.372h1.644c.292 0 .477-.185.45-.477 0-.292-.185-.424-.477-.45h-1.591c-.026.318-.026.61-.026.927zm13.71-1.272c.716 0 1.405-.027 2.095 0 .504.026.795.397.769.9-.027.505-.371.876-.849.902-.477.027-.928 0-1.405 0h-.212v1.432h-.398V37.18zm.398.37v1.061h1.564c.319 0 .478-.212.478-.504 0-.291-.16-.53-.451-.53-.53-.053-1.06-.027-1.591-.027zm7.08.902h1.936V37.18h.398v3.235h-.398V38.85h-1.936v1.564h-.398V37.18h.398v1.273zm-10.024 1.962h-.398v-3.261h2.44v.37h-2.042v2.891zm-3.447 0h-.398v-3.261h.398v3.261zm20.127-3.234c.77 0 1.565 0 2.334.026h.318v.37h-2.227v.903h1.591c.636.026.954.37.954.954s-.397.981-.98.981c-.664.027-1.327 0-1.963 0-.027-1.087-.027-2.174-.027-3.235zm.398 2.863h1.432c.106 0 .212 0 .318-.053.239-.08.372-.239.372-.53 0-.318-.107-.478-.345-.584a.445.445 0 00-.133-.053h-1.644v1.22zm11.483.371v-3.182c.769 0 1.511-.026 2.254 0 .265 0 .477.186.557.451.106.318.08.636-.239.902.318.212.504.504.504.901-.027.504-.345.875-.902.902-.716.053-1.432.026-2.174.026zm.398-1.564v1.193h1.776a.492.492 0 00.186-.053c.239-.106.345-.371.291-.663-.052-.265-.238-.477-.477-.477-.583-.027-1.167 0-1.776 0zm0-1.273v.875c.556 0 1.113.027 1.67 0 .265 0 .398-.212.371-.477-.026-.239-.159-.398-.424-.398-.53-.027-1.06 0-1.617 0zm19.836 1.008c.265.185.45.397.503.716.08.636-.291 1.087-.954 1.113-.69.027-1.406 0-2.122 0V37.18h.371c.557 0 1.14 0 1.698.027.318 0 .583.132.716.424.132.345.106.69-.213.955zm-2.175 1.458c.61 0 1.167.027 1.75 0 .345 0 .557-.265.53-.636 0-.371-.212-.557-.583-.584h-1.51c-.053 0-.106.027-.16.027-.026.398-.026.795-.026 1.193zm0-2.466v.875c.583 0 1.14.027 1.697 0 .265 0 .371-.212.371-.45-.026-.24-.132-.399-.37-.399a36.82 36.82 0 00-1.698-.026zM45.532 41.13h-.344v-1.087h.398l1.22-2.864h.318l1.273 2.864h.424v1.087h-.345v-.689h-2.97c.026.212.026.424.026.69zm1.46-3.394c-.346.796-.637 1.538-.956 2.307h1.99c-.345-.769-.69-1.511-1.035-2.307zm17.634 2.307c.16 0 .318.027.45.027v1.06h-.344v-.689H62.16v-3.209h.398v2.838h1.67v-2.838h.398v2.811zm-9.971-2.837h.398v1.246h1.91v-1.246h.37v3.208h-.37v-1.538h-1.91v1.538h-.398v-3.208zm-10.767 1.75c.319-.504 1.088-1.777 1.088-1.777h.477s-1.459 2.334-1.989 3.235h-.477l.636-1.06c-.398-.557-1.432-2.175-1.432-2.175h.504s.849 1.273 1.193 1.777zm22.488-1.379h-1.352v-.371H68.1v.344h-1.352v2.838h-.398c.026-.928.026-1.856.026-2.811zm-17.051-.397h.371v3.234h-.371V37.18z" fill="#383E41"/></svg>