<svg width="70" height="28" fill="none" xmlns="http://www.w3.org/2000/svg"><path d="M27.593 12.96h.279c.03.605.288 1.104.783 1.486.495.382 1.113.584 1.855.584.722 0 1.32-.191 1.784-.573.464-.382.69-.87.69-1.465 0-.467-.154-.838-.474-1.125-.32-.287-.835-.52-1.556-.7l-.938-.245c-.763-.19-1.32-.456-1.67-.774-.35-.319-.526-.743-.526-1.253 0-.626.258-1.157.763-1.581.505-.425 1.123-.637 1.835-.637.752 0 1.38.201 1.896.605.516.403.784.902.804 1.496h-.278c-.03-.52-.268-.955-.732-1.305-.453-.35-1.02-.52-1.69-.52-.65 0-1.196.18-1.64.552-.453.371-.67.828-.67 1.39 0 .446.155.796.475 1.072.32.276.825.499 1.525.68l.928.233c.773.202 1.35.467 1.7.796.362.329.537.764.537 1.295a2.08 2.08 0 01-.773 1.666c-.515.435-1.175.648-2 .648s-1.505-.223-2.051-.658c-.536-.425-.835-.987-.856-1.667zm14.442-6.156v8.374h-.279V7.472h-.02l-3.288 7.706h-.3L34.86 7.472h-.02v7.706h-.279V6.804h.3l3.432 8.013h.02l3.412-8.013h.31zm7.349 8.374l-1.062-2.908H44.54l-1.082 2.908h-.31l3.135-8.374h.288l3.134 8.374h-.32zm-2.968-7.982l-1.773 4.798h3.576l-1.773-4.798h-.03zm4.669 4.32v3.662h-.288V6.804h2.525c.814 0 1.453.212 1.917.626.464.425.701.998.701 1.73 0 .616-.175 1.125-.515 1.528-.34.404-.825.67-1.433.775l2.144 3.715h-.32l-2.123-3.672c-.134.01-.258.01-.371.01h-2.237zm0-4.447v4.182h2.237c.721 0 1.299-.191 1.711-.563.412-.371.618-.88.618-1.528 0-.658-.206-1.168-.618-1.539-.412-.372-.99-.552-1.721-.552h-2.227zm8.813 8.109h-.278V7.08h-2.938v-.276h6.144v.276h-2.938l.01 8.098zm-28.655.85c1.092 0 1.968.393 2.607 1.168.65.775.97 1.825.97 3.142 0 1.316-.32 2.367-.97 3.141-.649.775-1.515 1.168-2.618 1.168s-1.968-.393-2.618-1.168c-.65-.774-.969-1.825-.969-3.141 0-1.317.32-2.357.97-3.142.649-.786 1.514-1.168 2.628-1.168zm0 .266c-1.01 0-1.815.36-2.412 1.093-.598.722-.897 1.709-.897 2.94 0 1.231.299 2.208.896 2.94.598.733 1.402 1.093 2.413 1.093 1 0 1.804-.36 2.401-1.093.598-.732.897-1.709.897-2.94 0-1.231-.299-2.208-.897-2.94-.597-.722-1.402-1.093-2.401-1.093zm5.205 4.563v3.662h-.288v-8.374h2.525c.814 0 1.453.212 1.917.626.464.424.701.997.701 1.73 0 .615-.175 1.125-.515 1.528-.35.404-.825.669-1.433.775l2.144 3.715h-.32l-2.123-3.672c-.134.01-.258.01-.371.01h-2.237zm0-4.447v4.182h2.237c.722 0 1.299-.191 1.711-.563.413-.371.619-.88.619-1.528 0-.658-.206-1.168-.619-1.54-.412-.37-.99-.551-1.721-.551h-2.227zm11.978 8.109l-1.061-2.908h-3.783l-1.072 2.908h-.31l3.134-8.374h.289l3.133 8.374h-.33zm-2.958-7.982l-1.783 4.798h3.576l-1.772-4.798h-.021zm4.659 7.982h-.289v-8.374h.31l5.4 7.822h.021v-7.822h.279v8.374h-.258l-5.443-7.886h-.02v7.886zm13.812-3.279c0 1.05-.289 1.878-.866 2.483-.577.605-1.37.903-2.37.903-.681 0-1.29-.18-1.825-.552-.536-.361-.949-.881-1.237-1.54-.3-.657-.443-1.422-.443-2.27 0-1.274.32-2.304.969-3.079.639-.775 1.494-1.167 2.546-1.167.804 0 1.494.233 2.082.69.587.456.948 1.05 1.103 1.793h-.279a2.742 2.742 0 00-1.03-1.603c-.526-.403-1.155-.604-1.876-.604-.97 0-1.753.36-2.34 1.093-.588.732-.876 1.687-.876 2.887 0 1.21.298 2.197.896 2.95.598.754 1.371 1.136 2.33 1.136.917 0 1.639-.276 2.165-.828.525-.552.793-1.316.793-2.271v-.584h-2.989v-.265h3.268v.828h-.021zM70 24.243v.276h-4.659v-8.374h4.66v.276H65.63v3.672h4.175v.265H65.63v3.896H70v-.01z" fill="#fff"/><path d="M23.8 18.065l-.103-.594 1.227-2.303-1.185-1.953.463-1.2-1.133-.902-.155-2.441-2.227-1.03-.412-.987-.66-.223-.979-1.603-2.072.096-1.752-1.603-1.598.563-.515-.287-1.268.637-2.443-.541-.98 1.061-.67-.095-.958 1.517-2.721.881-.577 2.516-.485.371-.03.563-.248.244.02.34L.69 12.949l.722 1.964-.598 1.146.629 1.146-.423 1.922 1.65 1.73.185 1.518 1.062.54.742 2.325 2.505.446.845 1.125 1.206-.042 1.474 1.114 1.907-.743 2.133.86.918-.807.825.17 1.35-1.55 2.412-.297.629-1.624.453-.201.413-1.37 2.175-1.496-.268-2.494.164-.266z" fill="#727376"/><path d="M21.244 20.358l-.536 1.104 1.072-2.42-.536 1.316z" fill="#898A8D"/><path d="M17.45 25.135l-.752.307 2.144-1.613-1.392 1.306z" fill="#A0A1A3"/><path d="M23.202 13.894l-.907-2.93.825 1.55.082 1.38z" fill="#8D8E91"/><path d="M7.514 25.208l-.794-.456 2.628.966-1.834-.51z" fill="#6C6E70"/><path d="M23.8 18.066l-.783 1.178.557-2.633.227 1.454z" fill="#F2F2F2"/><path d="M2.34 11.951l-.021-1.2 1.309-1.315L2.34 11.95z" fill="#E5E5E5"/><path d="M18.482 24.943l1.711-.977 1.124-.276-2.835 1.253z" fill="#A0A0A0"/><path d="M21.316 23.691l-1.123.276 1.69-2.154-.567 1.878z" fill="#CCC"/><path d="M18.894 6.305l1.381.35.66 1.581-2.04-1.931z" fill="#D8D8D8"/><path d="M17.368 5.668l2.907.987-1.381-.35-1.526-.637z" fill="#F2F2F2"/><path d="M2.773 20.475L4.4 23.149l-1.546-.774-.082-1.9z" fill="#999"/><path d="M2.772 20.474l.082 1.9-.433-3.396.35 1.496z" fill="#A5A5A5"/><path d="M16.472 27.364l-2.886-.616 1.855.085 1.031.53z" fill="#BFBFBF"/><path d="M16.472 27.363l-1.03-.53 2.525-1.179-1.495 1.71z" fill="#D8D8D8"/><path d="M1.794 17.418l.629 1.56L.815 16.06l.979 1.358z" fill="#BFBFBF"/><path d="M1.567 14.584l.227 2.834-.98-1.359.753-1.475z" fill="#D8D8D8"/><path d="M13.585 26.748l-2.896 1.136 1.958-.87.938-.266z" fill="#CCC"/><path d="M14.812 3.322l2.556 2.346-1.01-.732-1.546-1.614zm10.112 11.846l-1.36-1.497-.433-1.444 1.793 2.94z" fill="#E5E5E5"/><path d="M23.564 13.67l-.866-2.865.433 1.422.433 1.444z" fill="#808183"/><path d="M23.13 12.228l-.432-1.423.216-2.133.217 3.556z" fill="#D8D8D8"/><path d="M10.689 27.884l-1.082-1.39 3.04.52-1.958.87zm-.001 0l-2.7-2.049 1.618.658 1.082 1.39z" fill="#999"/><path d="M8.493 5.03l-1.639.998 2.134-2.335-.495 1.338z" fill="#F2F2F2"/><path d="M8.988 3.693l2.907.648-.918.106-1.99-.754z" fill="#F2F2F2"/><path d="M8.494 5.03l.495-1.337 1.989.754-2.484.584z" fill="#E5E5E5"/><path d="M13.637 4.33l1.175-1.008 1.546 1.614-2.721-.605z" fill="#F2F2F2"/><path d="M11.895 4.34l1.742-.01-2.66.117.918-.106z" fill="#9C9EA0"/><path d="M11.895 4.341l2.917-1.019-1.175 1.009-1.742.01z" fill="#E5E5E5"/><path d="M6.081 6.634l.773-.605 1.64-.998L6.08 6.634z" fill="#B9B9BA"/><path d="M6.08 6.634l-2.42.426 3.195-1.03-.773.605z" fill="#E5E5E5"/><path d="M24.924 15.168l-1.402 1.05.041-2.547 1.361 1.497z" fill="#F2F2F2"/><path d="M23.563 17.747l-.04-1.528 1.401-1.051-1.36 2.58z" fill="#E5E5E5"/><path d="M15.441 26.832l1.66-.934.866-.244-2.526 1.178z" fill="#BFBFBF"/><path d="M1.742 15.858l.051 1.56-.227-2.834.176 1.274z" fill="#A5A5A5"/><path d="M7.988 25.835l-1.164-.637 2.783 1.295-1.619-.658z" fill="#6E6F72"/><path d="M7.988 25.835l-3.33-.594 2.165-.043 1.165.637z" fill="#999"/><path d="M3.865 9.107l-.206-2.049 2.422-.424-2.216 2.473z" fill="#F2F2F2"/><path d="M3.865 9.107l-1.01 1.39.804-3.438.206 2.048zM20.234 7.44l2.68 1.232-1.69.265-.99-1.497z" fill="#E5E5E5"/><path d="M21.223 8.937l1.69-.265-.216 2.133-1.474-1.868z" fill="#F2F2F2"/><path d="M9.607 26.493l1.824.191 1.216.33-3.04-.52z" fill="#CCC"/><path d="M23.904 20.825l-.98-2.41.64-.668.34 3.078z" fill="#D8D8D8"/><path d="M22.925 18.416l.598-2.197.04 1.528-.638.669z" fill="#CCC"/><path d="M2.515 11.74l.34-1.242 1.01-1.39-1.35 2.632z" fill="#B9BABA"/><path d="M2.515 11.739L.69 12.949l2.165-2.452-.34 1.242z" fill="#F2F2F2"/><path d="M13.637 4.33l2.721.605-.917.149-1.804-.754z" fill="#CCC"/><path d="M15.441 5.084l.918-.149 2.278-.106-3.196.255z" fill="#F2F2F2"/><path d="M8.494 5.031l2.484-.584-.752.605-1.732-.021z" fill="#CCC"/><path d="M3.865 9.107L6.08 6.634l-.722 1.178-1.494 1.295z" fill="#E5E5E5"/><path d="M4.844 22.895l1.98 2.303-2.165.042.185-2.345z" fill="#A5A5A5"/><path d="M4.844 22.894l-.186 2.346-1.082-3.418 1.268 1.072z" fill="#B2B2B2"/><path d="M23.904 20.825l-2.062-.18 1.083-2.229.979 2.41z" fill="#E5E5E5"/><path d="M21.368 22.576l.474-1.931 2.062.18-2.536 1.751z" fill="#F2F2F2"/><path d="M23.564 13.671l-.567.478 1.206-2.133-.64 1.655z" fill="#CCC"/><path d="M23.522 16.218l-.525-2.07.567-.477-.042 2.547z" fill="#D8D8D8"/><path d="M22.09 11.166l.607-.361 1.505 1.21-2.113-.85z" fill="#E5E5E5"/><path d="M22.09 11.166l2.112.85-1.206 2.133-.907-2.983z" fill="#F2F2F2"/><path d="M21.223 8.938l1.474 1.868-.608.36-.866-2.229z" fill="#CCC"/><path d="M2.515 11.74l-.227 2.547L.69 12.949l1.825-1.21z" fill="#D8D8D8"/><path d="M2.288 14.287l-.546 1.57L.69 12.95l1.598 1.338z" fill="#B2B2B2"/><path d="M20.234 7.44l.99 1.497-1.732-1.284.742-.213z" fill="#CCC"/><path d="M18.636 4.83l1.598 2.61-.742.212-.856-2.823z" fill="#E5E5E5"/><path d="M10.225 5.053l.752-.605 1.722-.85-2.474 1.455zm10.009 20.463l.082-2.93 1.052-.01-1.134 2.94z" fill="#D8D8D8"/><path d="M20.316 22.587l1.526-1.942-.474 1.931-1.052.01z" fill="#E5E5E5"/><path d="M14.73 28l-3.3-1.316 2.021-.446L14.73 28z" fill="#A5A5A5"/><path d="M14.73 28l-1.279-1.762 2.7-.754L14.73 28z" fill="#CCC"/><path d="M14.73 28l1.422-2.516.948.414L14.73 28z" fill="#E5E5E5"/><path d="M17.1 25.898l1.227-1.656 1.907 1.274-3.134.382z" fill="#CCC"/><path d="M20.234 25.516l-1.907-1.273 1.99-1.656-.083 2.93z" fill="#E5E5E5"/><path d="M16.152 25.484l2.175-1.242-1.227 1.656-.948-.414z" fill="#D8D8D8"/><path d="M3.391 19.987l.185 1.836-2.556-2.696 2.371.86z" fill="#B2B2B2"/><path d="M4.844 22.895l-1.268-1.072-.185-1.837 1.453 2.909zm-2.298-5.88l.845 2.972-2.37-.86 1.525-2.112z" fill="#999"/><path d="M2.546 17.014l-.804-1.157.546-1.57.258 2.727z" fill="#D8D8D8"/><path d="M2.546 17.014L1.02 19.127l.722-3.27.804 1.157zM17.255 6.633l1.381-1.804.856 2.823-2.237-1.019z" fill="#F2F2F2"/><path d="M15.441 5.084l3.196-.255-1.382 1.804-1.814-1.55z" fill="#E5E5E5"/><path d="M7.41 7.037l-2.05.775 1.979-3.153.072 2.378z" fill="#D8D8D8"/><path d="M11.431 26.684l-3.422.127 2.495-1.072.927.945z" fill="#A5A5A5"/><path d="M11.431 26.684l-.928-.945 2.948.5-2.02.445zM6.648 23.68l.175 1.518-1.98-2.303 1.805.785z" fill="#999"/><path d="M6.648 23.68l1.36 3.13-1.185-1.612-.175-1.518z" fill="#BFBFBF"/><path d="M7.411 7.037L7.34 4.659l2.598 1.444-2.526.934z" fill="#E5E5E5"/><path d="M7.339 4.66l2.886.392-.288 1.05L7.339 4.66zM2.598 9.945l.752 2.887-.835-1.093.083-1.794z" fill="#D8D8D8"/><path d="M3.35 12.832l-1.062 1.455.227-2.548.834 1.093z" fill="#BFBFBF"/><path d="M15.441 5.084l1.815 1.55-2.423-.5.608-1.05z" fill="#CCC"/><path d="M12.699 3.599l2.742 1.486-.609 1.05L12.7 3.6z" fill="#D8D8D8"/><path d="M5.298 9.425l.062-1.613 2.051-.775-2.113 2.388z" fill="#F2F2F2"/><path d="M5.298 9.425l-2.7.52L5.36 7.812l-.062 1.613z" fill="#D8D8D8"/><path d="M10.225 5.053l2.474-1.454-.413 2.388-2.061-.934z" fill="#F2F2F2"/><path d="M12.286 5.987l.413-2.388 2.133 2.536-2.546-.148z" fill="#E5E5E5"/><path d="M10.226 5.053l2.061.934-2.35.117.289-1.051zm11.864 6.113l.907 2.983-1.474-1.157.567-1.826z" fill="#E5E5E5"/><path d="M21.523 12.991l1.474 1.157.65 2.144-2.124-3.3z" fill="#CCC"/><path d="M21.842 20.645l-.186-2.41 1.268.18-1.082 2.23z" fill="#D8D8D8"/><path d="M22.924 18.416l-1.268-.18 1.99-1.943-.722 2.123z" fill="#F2F2F2"/><path d="M19.492 7.652l1.732 1.285.226.223-1.958-1.508z" fill="#E5E5E5"/><path d="M21.45 9.16l.64 2.006-.568 1.826-.072-3.832z" fill="#D8D8D8"/><path d="M8.73 24.02l-.721 2.79-1.36-3.13 2.081.34z" fill="#A5A5A5"/><path d="M8.73 24.02l1.774 1.719-2.495 1.072.722-2.791z" fill="#BFBFBF"/><path d="M17.255 6.634l2.237 1.019-.804 1.082-1.433-2.101z" fill="#E5E5E5"/><path d="M18.688 8.735l.803-1.083L21.45 9.16l-2.762-.425z" fill="#F2F2F2"/><path d="M13.451 26.238l1.062-1.539 1.639.786-2.701.753z" fill="#D8D8D8"/><path d="M13.451 26.238l-1.01.35 2.072-1.889-1.062 1.54z" fill="#E5E5E5"/><path d="M4.113 18.203l-.722 1.784-.845-2.972 1.567 1.188z" fill="#BFBFBF"/><path d="M4.865 11.835l-1.515.997-.752-2.887 2.267 1.89z" fill="#CCC"/><path d="M5.298 9.426l-.433 2.41-2.267-1.89 2.7-.52z" fill="#E5E5E5"/><path d="M18.327 24.243l.31-2.219 1.68.563-1.99 1.656z" fill="#D8D8D8"/><path d="M21.522 12.991l2.123 3.301-2.917-1.263.794-2.038z" fill="#F2F2F2"/><path d="M20.728 15.03l2.917 1.262-1.989 1.943-.928-3.206zM7.411 7.038l2.526-.934-.67 1.878-1.856-.944z" fill="#D8D8D8"/><path d="M21.522 12.991l-.793 2.038-1.031-3.407 1.824 1.37z" fill="#CCC"/><path d="M21.45 9.16l.072 3.832-1.824-1.37L21.45 9.16z" fill="#F2F2F2"/><path d="M18.688 8.735l2.762.425-1.752 2.462-1.01-2.887z" fill="#D8D8D8"/><path d="M4.216 21.759l2.432 1.92-1.803-.784-.63-1.136zm-.104-3.556l.103 3.556-.824-1.773.721-1.783z" fill="#A5A5A5"/><path d="M11.462 24.168l.98 2.42-1.939-.85.959-1.57z" fill="#B2B2B2"/><path d="M11.462 24.168l-.959 1.571-1.773-1.72 2.732.15z" fill="#999"/><path d="M11.462 24.168l3.051.53-2.072 1.89-.979-2.42z" fill="#D8D8D8"/><path d="M2.463 15.22l1.65 2.983-1.567-1.188-.083-1.794z" fill="#B2B2B2"/><path d="M3.35 12.832l-.887 2.388-.175-.934 1.061-1.454z" fill="#F2F2F2"/><path d="M2.463 15.22l.082 1.794-.257-2.728.175.934z" fill="#A5A5A5"/><path d="M6.412 7.653l1-.616 1.855.945-2.855-.33z" fill="#E5E5E5"/><path d="M20.317 22.587l-1.68-.562 2.556-1.274-.877 1.836zm1.525-1.942l-.65.106.465-2.516.185 2.41z" fill="#CCC"/><path d="M20.316 22.587l.876-1.836.65-.107-1.526 1.943zm-8.03-16.601l2.546.149-.793 1.486-1.753-1.635z" fill="#D8D8D8"/><path d="M7.545 21.886l-.897 1.794-2.432-1.921 3.33.127z" fill="#BFBFBF"/><path d="M8.73 24.02l-2.082-.34.897-1.793L8.73 24.02z" fill="#999"/><path d="M7.08 10.455l-2.215 1.38.432-2.41 1.784 1.03zm-.668-2.803l2.855.33-2.185 2.472-.67-2.802z" fill="#D8D8D8"/><path d="M6.411 7.652l.67 2.802-1.783-1.03 1.113-1.772z" fill="#E5E5E5"/><path d="M16.152 25.485l-1.639-.786 2.65-.255-1.01 1.04zm2.175-1.242l-1.165.201 1.474-2.42-.31 2.219z" fill="#BFBFBF"/><path d="M16.152 25.484l1.01-1.04 1.165-.202-2.175 1.242z" fill="#E5E5E5"/><path d="M5.225 14.075L3.35 12.832l1.516-.998.36 2.24z" fill="#BFBFBF"/><path d="M5.226 14.074L2.463 15.22l.887-2.388 1.876 1.242z" fill="#E5E5E5"/><path d="M14.039 7.62l.793-1.485 2.124 1.061-2.917.425z" fill="#F2F2F2"/><path d="M14.833 6.135l2.423.499-.3.562-2.123-1.061z" fill="#D8D8D8"/><path d="M16.956 7.196l.299-.562 1.433 2.101-1.732-1.539z" fill="#CCC"/><path d="M20.729 15.03l.928 3.205-2.248-1.072 1.32-2.134z" fill="#E5E5E5"/><path d="M19.41 17.163l2.247 1.072-.464 2.516-1.784-3.588z" fill="#F2F2F2"/><path d="M6.432 19.36l-2.216 2.4-.103-3.556 2.319 1.157z" fill="#BFBFBF"/><path d="M6.432 19.36l1.113 2.527-3.33-.128 2.217-2.399z" fill="#A5A5A5"/><path d="M18.688 8.735l1.01 2.887-2.34-.976 1.33-1.91z" fill="#E5E5E5"/><path d="M16.956 7.196l1.732 1.54-1.33 1.91-.402-3.45z" fill="#F2F2F2"/><path d="M13.637 22.683l3.525 1.762-2.649.254-.876-2.016z" fill="#A5A5A5"/><path d="M13.637 22.683l.876 2.016-3.051-.53 2.175-1.486z" fill="#BFBFBF"/><path d="M6.432 19.36l-2.32-1.156 1.598-1.486.722 2.643z" fill="#999"/><path d="M5.226 14.074l.484 2.643-3.247-1.496 2.763-1.147z" fill="#B2B2B2"/><path d="M5.71 16.717l-1.597 1.486-1.65-2.982 3.247 1.496z" fill="#A5A5A5"/><path d="M11.565 6.644l.722-.658 1.752 1.635-2.474-.977z" fill="#CCC"/><path d="M9.937 6.103l2.35-.117-.721.658-1.629-.54z" fill="#D8D8D8"/><path d="M9.267 7.982l.67-1.878 1.629.54-2.3 1.338z" fill="#F2F2F2"/><path d="M19.41 17.163l1.782 3.588-3.432-1.55 1.65-2.038z" fill="#E5E5E5"/><path d="M17.76 19.201l3.432 1.55-2.556 1.273-.876-2.823z" fill="#CCC"/><path d="M15.76 21.144l2.877.88-1.474 2.42-1.402-3.3z" fill="#CCC"/><path d="M15.76 21.144l1.402 3.3-3.525-1.761 2.123-1.54z" fill="#B2B2B2"/><path d="M17.76 19.201l.877 2.823-2.876-.88 2-1.943z" fill="#BFBFBF"/><path d="M9.267 7.982l2.299-1.337-1.907 3.513-.392-2.176z" fill="#E5E5E5"/><path d="M9.267 7.981l.392 2.176-2.577.297 2.185-2.473z" fill="#CCC"/><path d="M14.039 7.62l2.917-.424-2.134 2.802-.783-2.377z" fill="#D8D8D8"/><path d="M16.956 7.196l.402 3.45-2.536-.648 2.134-2.802z" fill="#E5E5E5"/><path d="M11.565 6.645l.587 3.12-2.494.393 1.907-3.513z" fill="#BFBFBF"/><path d="M11.565 6.645l2.474.976-1.886 2.144-.588-3.12z" fill="#E5E5E5"/><path d="M14.04 7.621L14.822 10l-2.67-.234 1.886-2.144z" fill="#CCC"/><path d="M9.163 20.093l-1.618 1.794-1.113-2.527 2.731.733z" fill="#999"/><path d="M15.76 21.144l-2.123 1.539-1.278-2.176 3.402.637z" fill="#A5A5A5"/><path d="M7.618 15.072L5.71 16.717l-.485-2.643 2.392.998z" fill="#999"/><path d="M9.947 23.064l1.515 1.104-2.732-.148 1.217-.956z" fill="#BFBFBF"/><path d="M9.164 20.093l3.195.414-2.412 2.558-.783-2.972z" fill="#BFBFBF"/><path d="M12.358 20.507l1.278 2.176-3.69.382 2.412-2.558z" fill="#999"/><path d="M9.946 23.065l3.69-.382-2.175 1.486-1.515-1.104z" fill="#B2B2B2"/><path d="M9.163 20.093l.784 2.972-2.402-1.178 1.618-1.794z" fill="#A5A5A5"/><path d="M9.947 23.065l-1.217.955-1.185-2.133 2.402 1.178z" fill="#B2B2B2"/><path d="M19.41 17.163l-1.65 2.038-1.237-3.226 2.887 1.188z" fill="#CCC"/><path d="M12.152 9.765l-2.412 2.78-.082-2.388 2.494-.392z" fill="#B2B2B2"/><path d="M17.358 10.646l-1.897 2.176L14.822 10l2.536.647z" fill="#D8D8D8"/><path d="M19.698 11.622l1.03 3.407-1.7-1.581.67-1.826zm-2.34-.976l1.67 2.802-3.567-.627 1.897-2.175z" fill="#E5E5E5"/><path d="M17.358 10.646l2.34.976-.67 1.826-1.67-2.803z" fill="#D8D8D8"/><path d="M19.028 13.448l.382 3.715-2.887-1.189 2.505-2.526z" fill="#F2F2F2"/><path d="M19.028 13.448l1.7 1.582-1.319 2.133-.381-3.715zm-3.567-.626l3.567.627-2.505 2.526-1.062-3.153z" fill="#D8D8D8"/><path d="M6.535 12.387l3.205.159-2.123 2.526-1.082-2.685z" fill="#BFBFBF"/><path d="M9.658 10.158l.082 2.388-3.205-.159 3.123-2.229z" fill="#D8D8D8"/><path d="M6.535 12.387l1.083 2.685-2.392-.998 1.31-1.687z" fill="#A5A5A5"/><path d="M6.534 12.387l-1.309 1.688-.36-2.24 1.67.552z" fill="#B2B2B2"/><path d="M7.08 10.455l-.546 1.932-1.67-.552 2.217-1.38z" fill="#F2F2F2"/><path d="M7.08 10.455l2.578-.297-3.123 2.23.546-1.933z" fill="#E5E5E5"/><path d="M11.308 17.874l1.051 2.632-3.195-.414 2.144-2.218z" fill="#A5A5A5"/><path d="M9.74 12.546l.64 2.664-2.763-.138 2.123-2.526zm3.68 2.728l-2.113 2.6-.927-2.664 3.04.064z" fill="#999"/><path d="M15.461 12.822l1.062 3.153-3.102-.7 2.04-2.453z" fill="#CCC"/><path d="M7.802 17.959l3.505-.085-2.144 2.218-1.36-2.133z" fill="#BFBFBF"/><path d="M7.803 17.959l1.36 2.133-2.731-.732 1.37-1.401zm-.186-2.887l.186 2.887-2.093-1.241 1.907-1.646z" fill="#A5A5A5"/><path d="M7.803 17.96l-1.371 1.4-.722-2.642 2.093 1.242z" fill="#BFBFBF"/><path d="M10.38 15.21l.927 2.664-3.505.085 2.577-2.749z" fill="#A5A5A5"/><path d="M7.617 15.072l2.762.138-2.577 2.75-.185-2.888z" fill="#B2B2B2"/><path d="M12.42 11.877l3.041.945-2.04 2.452-1-3.397z" fill="#D8D8D8"/><path d="M14.822 9.999l.64 2.823-3.041-.944 2.401-1.879z" fill="#F2F2F2"/><path d="M12.153 9.765l2.67.233-2.402 1.879-.268-2.112z" fill="#BFBFBF"/><path d="M12.42 11.877l1 3.396-3.04-.063 2.04-3.333z" fill="#A5A5A5"/><path d="M12.152 9.765l.268 2.112-2.68.668 2.412-2.78z" fill="#F2F2F2"/><path d="M9.74 12.546l2.68-.669-2.04 3.333-.64-2.664z" fill="#B2B2B2"/><path d="M16.523 15.975L17.76 19.2l-3.03-.541 1.793-2.685z" fill="#F2F2F2"/><path d="M14.73 18.66l3.03.54-2 1.943-1.03-2.484z" fill="#D8D8D8"/><path d="M13.42 15.273l1.31 3.386-3.422-.785 2.113-2.6z" fill="#B2B2B2"/><path d="M13.42 15.273l3.103.701-1.793 2.685-1.31-3.386z" fill="#D8D8D8"/><path d="M14.73 18.66l1.03 2.483-3.401-.637 2.37-1.847z" fill="#BFBFBF"/><path d="M11.308 17.874l3.422.786-2.37 1.846-1.052-2.632z" fill="#999"/><path d="M2.598 3.11l2.391 1.051.886 2.208L2.598 3.11z" fill="#727272"/><path d="M5.36 3.238l.515 3.13-.886-2.207-.825-1.868 1.196.945z" fill="#A5A5A5"/><path d="M.845 2.293l1.752.817L4.99 4.161l-.825-1.868H.845z" fill="#8C8C8C"/><path d="M2.731.955l1.433 1.337H.845L2.731.955z" fill="#B2B2B2"/><path d="M0 .955h2.732L.845 2.292 0 .955z" fill="#BFBFBF"/><path d="M2.732.955l1.845.138L2.907 0 0 .955h2.732z" fill="#8C8C8C"/><path d="M5.453 1.093h-.876L2.907 0l2.546 1.093z" fill="#A5A5A5"/><path d="M5.36 3.237l-.783-2.144L2.732.955l1.432 1.337 1.196.945zM6.38 6.21L5.36 3.236l.516 3.131.505-.159z" fill="#727272"/><path d="M5.453 1.093l.928 5.116-1.02-2.972-.784-2.144h.876z" fill="#8C8C8C"/></svg>